<svg width="128px" height="128px" viewBox="0 0 1024 1024" xmlns="http://www.w3.org/2000/svg"><path d="M512 0.00617a376.829937 376.829937 0 0 0-265.214956 107.007982 365.565939 365.565939 0 0 0-108.542982 259.069957v499.708917h743.419877v-499.709917a363.00594 363.00594 0 0 0-109.055982-259.069957A375.293938 375.293938 0 0 0 511.999 0.00717z m-30.719995 745.979876L470.528007 503.810086H287.233037L527.869997 200.197137l20.479997 195.582967 174.079971 6.143999-243.19996 344.061943zM0.003085 968.192009a55.807991 55.807991 0 0 1 55.806991-56.31999H968.189924a57.34399 57.34399 0 0 1 39.423994 16.384997 58.36799 58.36799 0 0 1 16.382997 39.934993A55.807991 55.807991 0 0 1 968.189924 1024H55.810076A55.807991 55.807991 0 0 1 0.003085 968.192009z m0 0" /></svg>