<?xml version="1.0" standalone="no"?><!DOCTYPE svg PUBLIC "-//W3C//DTD SVG 1.1//EN" "http://www.w3.org/Graphics/SVG/1.1/DTD/svg11.dtd"><svg t="1628842027139" class="icon" viewBox="0 0 1024 1024" version="1.1" xmlns="http://www.w3.org/2000/svg" p-id="13773" xmlns:xlink="http://www.w3.org/1999/xlink" width="128" height="128"><defs><style type="text/css"></style></defs><path d="M769.365333 38.001778c0-20.935111-17.066667-38.001778-38.001777-38.001778s-38.001778 17.066667-38.001778 38.001778v168.846222h-166.570667c-20.935111 0-38.001778 17.066667-38.001778 38.001778s17.066667 38.001778 38.001778 38.001778h166.570667v171.121777c0 20.935111 17.066667 38.001778 38.001778 38.001778s38.001778-17.066667 38.001777-38.001778v-171.121777h171.121778c20.935111 0 38.001778-17.066667 38.001778-38.001778s-17.066667-38.001778-38.001778-38.001778h-171.121778V38.001778z" p-id="13774" fill="#333333"></path><path d="M891.335111 515.868444v432.355556H132.664889V75.776h357.944889c20.935111 0 38.001778-17.066667 38.001778-38.001778S511.772444 0 490.837333 0H132.664889C90.794667 0 56.888889 33.905778 56.888889 75.776v872.220444c0 41.870222 33.905778 75.776 75.776 75.776h758.442667c41.870222 0 75.776-33.905778 75.776-75.776v-432.355555c0-20.935111-17.066667-38.001778-38.001778-38.001778-20.707556 0.227556-37.546667 17.294222-37.546667 38.229333z" p-id="13775" fill="#333333"></path></svg>