<?xml version="1.0" standalone="no"?><!DOCTYPE svg PUBLIC "-//W3C//DTD SVG 1.1//EN" "http://www.w3.org/Graphics/SVG/1.1/DTD/svg11.dtd"><svg t="1628842178525" class="icon" viewBox="0 0 1024 1024" version="1.1" xmlns="http://www.w3.org/2000/svg" p-id="14071" xmlns:xlink="http://www.w3.org/1999/xlink" width="128" height="128"><defs><style type="text/css"></style></defs><path d="M236.834498 614.331643c-17.664312 0-31.978319 14.3181-31.978318 31.978319v191.869912c0 17.660218 14.314007 31.978319 31.978318 31.978319s31.978319-14.3181 31.978319-31.978319v-191.869912c0-17.660218-14.314007-31.978319-31.978319-31.978319z m183.339632-204.663286c-17.664312 0-31.978319 14.3181-31.978319 31.978319v396.533198c0 17.660218 14.314007 31.978319 31.978319 31.978319s31.978319-14.3181 31.978319-31.978319V441.646676c0-17.660218-14.314007-31.978319-31.978319-31.978319z m366.68745 0c-17.660218 0-31.978319 14.3181-31.978319 31.978319v396.533198c0 17.660218 14.3181 31.978319 31.978319 31.978319s31.978319-14.3181 31.978319-31.978319V441.646676c0-17.660218-14.3181-31.978319-31.978319-31.978319zM603.521948 563.166333c-17.660218 0-31.978319 14.3181-31.978319 31.978319v243.035222c0 17.660218 14.3181 31.978319 31.978319 31.978319s31.978319-14.3181 31.978319-31.978319v-243.035222c0-17.660218-14.3181-31.978319-31.978319-31.978319z m234.768955-409.324526H722.904942c-17.660218 0-31.978319 14.3181-31.978318 31.978319s14.3181 31.978319 31.978318 31.978319h37.97387l-153.782455 151.985529-155.854651-155.894559c-11.923564-11.921517-31.110555-12.367679-43.578518-1.01512-0.435928 0.393973-0.867764 0.801249-1.295505 1.222851L163.061284 457.444477c-12.443403 12.441357-12.443403 32.615838 0 45.059241 12.443403 12.43931 32.613792 12.43931 45.057196 0l220.786498-220.796731 153.567562 153.544025a31.667234 31.667234 0 0 0 18.372439 10.79281l0.431835 0.071632 0.927116 0.159635a31.514761 31.514761 0 0 0 26.526143-8.39418l0.488117-0.463558 177.095417-174.929078v38.4538c0 17.660218 14.3181 31.978319 31.978319 31.978319s31.978319-14.3181 31.978319-31.978319v-115.121947c-0.001023-17.660218-14.319124-31.978319-31.979342-31.978319z" fill="" p-id="14072"></path></svg>