<?xml version="1.0" standalone="no"?><!DOCTYPE svg PUBLIC "-//W3C//DTD SVG 1.1//EN" "http://www.w3.org/Graphics/SVG/1.1/DTD/svg11.dtd"><svg t="1630658215340" class="icon" viewBox="0 0 1024 1024" version="1.1" xmlns="http://www.w3.org/2000/svg" p-id="2417" xmlns:xlink="http://www.w3.org/1999/xlink" width="128" height="128"><defs><style type="text/css">@font-face { font-family: uc-nexus-iconfont; src: url("chrome-extension://pogijhnlcfmcppgimcaccdkmbedjkmhi/res/font_9qmmi8b8jsxxbt9.woff") format("woff"), url("chrome-extension://pogijhnlcfmcppgimcaccdkmbedjkmhi/res/font_9qmmi8b8jsxxbt9.ttf") format("truetype"); }
</style></defs><path d="M513 546.9c59.8 0 115.9-23.3 158.2-65.5 42.3-42.3 65.5-98.4 65.5-158.2S713.4 207.3 671.2 165 572.8 99.5 513 99.5 397.1 122.8 354.8 165s-65.5 98.4-65.5 158.2c0 59.8 23.3 115.9 65.5 158.2 42.3 42.3 98.4 65.5 158.2 65.5zM754 609.6H272c-87.5 0-158.6 71.2-158.6 158.6 0 87.5 71.2 158.6 158.6 158.6h482c87.5 0 158.6-71.2 158.6-158.6 0-87.5-71.1-158.6-158.6-158.6z" p-id="2418"></path></svg>