<?xml version="1.0" standalone="no"?><!DOCTYPE svg PUBLIC "-//W3C//DTD SVG 1.1//EN" "http://www.w3.org/Graphics/SVG/1.1/DTD/svg11.dtd"><svg t="1630658222242" class="icon" viewBox="0 0 1024 1024" version="1.1" xmlns="http://www.w3.org/2000/svg" p-id="2545" xmlns:xlink="http://www.w3.org/1999/xlink" width="128" height="128"><defs><style type="text/css">@font-face { font-family: uc-nexus-iconfont; src: url("chrome-extension://pogijhnlcfmcppgimcaccdkmbedjkmhi/res/font_9qmmi8b8jsxxbt9.woff") format("woff"), url("chrome-extension://pogijhnlcfmcppgimcaccdkmbedjkmhi/res/font_9qmmi8b8jsxxbt9.ttf") format("truetype"); }
</style></defs><path d="M645 846.4l-68.2 1.8c-2.7 0.1-5-1.9-5.5-4.5L560 774.3l334.2-393.9V221.9c0-65.5-53.1-118.5-118.5-118.5H248.2c-65.5 0-118.5 53.1-118.5 118.5v582.8c0 65.5 53.1 118.5 118.5 118.5h527.5c65.5 0 118.5-53.1 118.5-118.5V552.6L645 846.4zM223.8 285.3c0-19.1 15.5-34.6 34.6-34.6h474.4c19.1 0 34.6 15.5 34.6 34.6s-15.5 34.6-34.6 34.6H258.3c-19.1 0-34.5-15.5-34.5-34.6z m0 205.4c0-19.1 15.5-34.6 34.6-34.6h345.3c19.1 0 34.6 15.5 34.6 34.6s-15.5 34.6-34.6 34.6H258.3c-19.1 0-34.5-15.5-34.5-34.6z m275.9 205.4c0 19.1-15.5 34.6-34.6 34.6H258.3c-19.1 0-34.6-15.5-34.6-34.6s15.5-34.6 34.6-34.6H465c19.2 0.1 34.7 15.6 34.7 34.6z" p-id="2546"></path></svg>