<?xml version="1.0" standalone="no"?><!DOCTYPE svg PUBLIC "-//W3C//DTD SVG 1.1//EN" "http://www.w3.org/Graphics/SVG/1.1/DTD/svg11.dtd"><svg t="1630658227581" class="icon" viewBox="0 0 1024 1024" version="1.1" xmlns="http://www.w3.org/2000/svg" p-id="2673" xmlns:xlink="http://www.w3.org/1999/xlink" width="128" height="128"><defs><style type="text/css">@font-face { font-family: uc-nexus-iconfont; src: url("chrome-extension://pogijhnlcfmcppgimcaccdkmbedjkmhi/res/font_9qmmi8b8jsxxbt9.woff") format("woff"), url("chrome-extension://pogijhnlcfmcppgimcaccdkmbedjkmhi/res/font_9qmmi8b8jsxxbt9.ttf") format("truetype"); }
</style></defs><path d="M802.6 270.9H691.7L596 115.4c-6.6-10.7-15.6-19.7-26.3-26.3-37.8-23.2-87.2-11.5-110.4 26.3l-95.7 155.5H254.5c-68.9 0-124.7 55.8-124.7 124.7v421c0 68.9 55.8 124.7 124.7 124.7h548.1c68.9 0 124.7-55.8 124.7-124.7v-421c0-68.9-55.8-124.7-124.7-124.7z m-275-113.5l69.6 113.1H458l69.6-113.1z m120.9 506.8c0 20.7-16.8 37.4-37.4 37.4H261c-20.7 0-37.4-16.8-37.4-37.4 0-20.7 16.8-37.4 37.4-37.4h350c20.7 0 37.5 16.8 37.5 37.4z m103.7-180.7c0 20.7-16.8 37.4-37.4 37.4H261c-20.7 0-37.4-16.8-37.4-37.4 0-20.7 16.8-37.4 37.4-37.4h453.8c20.7 0 37.4 16.7 37.4 37.4z" p-id="2674"></path></svg>