<svg t="1638861867542" class="icon" viewBox="0 0 1024 1024" version="1.1" xmlns="http://www.w3.org/2000/svg" p-id="4369" xmlns:xlink="http://www.w3.org/1999/xlink" width="128" height="128"><path d="M902.72 295.232H611.712V92.16C611.712 41.6 573.248 0 526.08 0h-51.392c-47.04 0-85.568 41.536-85.568 92.224v203.008H98.24c-18.88 0-34.24 16.576-34.24 36.864v184.512c0 20.288 15.36 36.928 34.24 36.928h17.088v285.056c0 81.152-17.088 148.48-17.088 148.48 0 20.352 15.36 36.928 34.24 36.928h736c18.816 0 34.176-16.64 34.176-36.928 0 0-17.088-70.08-17.088-152.192V553.536h17.088c18.88 0 34.24-16.64 34.24-36.928V332.16c0-20.288-15.36-36.864-34.176-36.864zM703.296 975.168v-221.76c0-15.616-11.392-28.224-25.344-28.224-14.08 0-25.344 12.608-25.344 28.16v221.824h-119.04v-221.76c0-15.616-11.392-28.224-25.344-28.224-14.08 0-25.344 12.608-25.344 28.16v221.824H356.48V755.2c0-15.616-11.392-28.224-25.408-28.224-14.016 0-25.344 12.608-25.344 28.16v220.032H143.424s17.088-54.528 17.088-136.64V553.6h679.872v285.056c0 82.048 17.088 136.64 17.088 136.64h-154.24z m181.696-488.96c0 9.984-7.616 18.176-16.896 18.176H131.84c-9.28 0-16.896-8.192-16.896-18.24V364.224c0-9.984 7.616-18.112 16.896-18.112h303.104V107.52c0-35.392 26.112-51.904 58.944-51.904h12.16c32.832 0 58.88 16.448 58.88 51.84v238.656h303.168c9.28 0 16.896 8.192 16.896 18.176v121.856z"></path></svg>