<svg class="icon" viewBox="0 0 1024 1024" xmlns="http://www.w3.org/2000/svg" width="128" height="128"><path d="M837.818182 325.818182h-209.454546V162.909091c0-39.563636-30.254545-69.818182-69.818181-69.818182h-93.09091c-39.563636 0-69.818182 30.254545-69.818181 69.818182v162.909091h-209.454546c-39.563636 0-69.818182 30.254545-69.818182 69.818182v93.090909c0 30.254545 18.618182 55.854545 46.545455 65.163636v246.690909c0 20.945455-4.654545 44.218182-9.309091 65.163637l-2.327273 4.654545c-2.327273 4.654545-2.327273 9.309091-2.327272 13.963636 0 25.6 20.945455 46.545455 46.545454 46.545455H828.509091c4.654545 0 9.309091 0 13.963636-2.327273 11.636364-4.654545 20.945455-11.636364 27.927273-23.272727 4.654545-11.636364 6.981818-23.272727 2.327273-34.909091l-2.327273-4.654545c-6.981818-20.945455-9.309091-41.890909-9.309091-65.163637V553.890909c27.927273-9.309091 46.545455-34.909091 46.545455-65.163636v-93.090909c0-39.563636-30.254545-69.818182-69.818182-69.818182z m-139.636364 558.545454v-162.909091c0-13.963636-9.309091-23.272727-23.272727-23.272727s-23.272727 9.309091-23.272727 23.272727v162.909091h-116.363637v-162.909091c0-13.963636-9.309091-23.272727-23.272727-23.272727s-23.272727 9.309091-23.272727 23.272727v162.909091h-116.363637v-162.909091c0-13.963636-9.309091-23.272727-23.272727-23.272727s-23.272727 9.309091-23.272727 23.272727v162.909091h-130.327273l2.327273-4.654545c9.309091-25.6 13.963636-51.2 13.963636-79.127273V558.545455h605.090909v242.036363c0 27.927273 4.654545 53.527273 13.963637 79.127273l2.327272 4.654545H698.181818z m162.909091-395.636363c0 13.963636-9.309091 23.272727-23.272727 23.272727H186.181818c-13.963636 0-23.272727-9.309091-23.272727-23.272727v-93.090909c0-13.963636 9.309091-23.272727 23.272727-23.272728h256V162.909091c0-13.963636 9.309091-23.272727 23.272727-23.272727h93.09091c13.963636 0 23.272727 9.309091 23.272727 23.272727v209.454545h256c13.963636 0 23.272727 9.309091 23.272727 23.272728v93.090909z"></path></svg>