<?xml version="1.0" standalone="no"?><!DOCTYPE svg PUBLIC "-//W3C//DTD SVG 1.1//EN" "http://www.w3.org/Graphics/SVG/1.1/DTD/svg11.dtd"><svg t="1637284037422" class="icon" viewBox="0 0 1024 1024" version="1.1" xmlns="http://www.w3.org/2000/svg" p-id="11252" xmlns:xlink="http://www.w3.org/1999/xlink" width="128" height="128"><defs><style type="text/css">@font-face { font-family: uc-nexus-iconfont; src: url("chrome-extension://pogijhnlcfmcppgimcaccdkmbedjkmhi/res/font_9qmmi8b8jsxxbt9.woff") format("woff"), url("chrome-extension://pogijhnlcfmcppgimcaccdkmbedjkmhi/res/font_9qmmi8b8jsxxbt9.ttf") format("truetype"); }
</style></defs><path d="M596.48 514.56l250.88-250.88c20.48-20.48 20.48-51.2 0-71.68-20.48-20.48-51.2-20.48-71.68 0l-250.88 250.88-250.88-250.88c-20.48-20.48-51.2-20.48-71.68 0-20.48 20.48-20.48 51.2 0 71.68l250.88 250.88-250.88 250.88c-20.48 20.48-20.48 51.2 0 71.68 20.48 20.48 51.2 20.48 71.68 0l250.88-250.88 250.88 250.88c20.48 20.48 51.2 20.48 71.68 0 20.48-20.48 20.48-51.2 0-71.68l-250.88-250.88z" p-id="11253"></path></svg>