<?xml version="1.0" standalone="no"?><!DOCTYPE svg PUBLIC "-//W3C//DTD SVG 1.1//EN" "http://www.w3.org/Graphics/SVG/1.1/DTD/svg11.dtd"><svg t="1617944864358" class="icon" viewBox="0 0 1024 1024" version="1.1" xmlns="http://www.w3.org/2000/svg" p-id="21009" xmlns:xlink="http://www.w3.org/1999/xlink" width="200" height="200"><defs><style type="text/css">@font-face { font-family: uc-nexus-iconfont; src: url("chrome-extension://pogijhnlcfmcppgimcaccdkmbedjkmhi/res/font_9qmmi8b8jsxxbt9.woff") format("woff"), url("chrome-extension://pogijhnlcfmcppgimcaccdkmbedjkmhi/res/font_9qmmi8b8jsxxbt9.ttf") format("truetype"); }
</style></defs><path d="M127.968 711.664 269.44 711.664 269.44 889.888 127.968 889.888 127.968 711.664Z" p-id="21010"></path><path d="M343.712 528.944 488.704 528.944 488.704 889.888 343.712 889.888 343.712 528.944Z" p-id="21011"></path><path d="M559.44 598.496 703.264 598.496 703.264 889.888 559.44 889.888 559.44 598.496Z" p-id="21012"></path><path d="M775.184 421.664 920.192 421.664 920.192 889.888 775.184 889.888 775.184 421.664Z" p-id="21013"></path><path d="M89.072 534.832 425.056 225.968 617.872 415.392 799.936 203.568 733.92 134.112 920.192 134.112 920.192 314.384 855.072 247.264 617.872 534.368 422.992 334.016 135.824 601.376 89.072 534.832Z" p-id="21014"></path></svg>