<svg viewBox="0 0 1024 1024" version="1.1" xmlns="http://www.w3.org/2000/svg" width="128" height="128"><path d="M902.23 9.72H346.3C160.05 9.72 9.06 160.71 9.06 346.97v554.8c0 62.09 50.33 112.42 112.42 112.42H677.4c186.26 0 337.25-150.99 337.25-337.25v-554.8c0-62.09-50.33-112.42-112.42-112.42z m41.6 657.11c0 161.42-115.12 278.79-276.54 278.79h-540.2c-27.54 0-48.34-21.71-48.34-49.46V357.09C78.75 195.67 195 78.3 356.42 78.3h540.19c30.09 0 47.21 18.56 47.21 49.46v539.07z"></path><path d="M800.67 316.2H548.64V191.89h-74.19V316.2h-251.6v71.95h0.47V668.11h67.45v-43.53h183.67v233.86h74.19V624.58h184.71v43.53h67.45V317.37h-0.13v-1.17zM474.44 557.13H290.77V388.15h183.67v168.98z m258.91 0H548.64V388.15h184.71v168.98z"></path></svg>