<?xml version="1.0" standalone="no"?><!DOCTYPE svg PUBLIC "-//W3C//DTD SVG 1.1//EN" "http://www.w3.org/Graphics/SVG/1.1/DTD/svg11.dtd"><svg t="1628847900363" class="icon" viewBox="0 0 1024 1024" version="1.1" xmlns="http://www.w3.org/2000/svg" p-id="32162" xmlns:xlink="http://www.w3.org/1999/xlink" width="128" height="128"><defs><style type="text/css"></style></defs><path d="M512 180.451556L310.840889 381.553778A56.888889 56.888889 0 0 1 230.4 301.112889L512 19.512889l281.6 281.6a56.888889 56.888889 0 1 1-80.440889 80.440889L512 180.451556z" p-id="32163"></path><path d="M113.777778 853.333333m56.888889 0l682.666666 0q56.888889 0 56.888889 56.888889l0 0q0 56.888889-56.888889 56.888889l-682.666666 0q-56.888889 0-56.888889-56.888889l0 0q0-56.888889 56.888889-56.888889Z" p-id="32164"></path><path d="M568.888889 56.888889m0 56.888889l0 568.888889q0 56.888889-56.888889 56.888889l0 0q-56.888889 0-56.888889-56.888889l0-568.888889q0-56.888889 56.888889-56.888889l0 0q56.888889 0 56.888889 56.888889Z" p-id="32165"></path></svg>