<svg viewBox="0 0 1024 1024" version="1.1" xmlns="http://www.w3.org/2000/svg" width="128" height="128"><path d="M512 1023.7952c-255.5904 0-398.2336-56.832-398.2336-152.1664 0-54.8864 82.6368-103.0144 197.0688-129.8432L337.92 789.504c-97.4848 17.1008-160.3072 47.4624-160.3072 82.0736 0 53.5552 161.28 87.9104 334.3872 87.9104s334.3872-34.3552 334.3872-87.9104c0-34.6624-62.8224-64.9728-160.3072-82.0736l27.0848-47.7184c114.3808 26.7776 197.0688 74.9056 197.0688 129.8432 0 93.0816-150.784 152.1664-398.2336 152.1664z m264.8064-465.152c-9.2672 10.1888-229.2224 268.4416-229.2224 268.4416-9.216 11.3152-19.3536 19.1488-30.2592 19.1488s-19.1488-8.8064-27.5456-19.1488c0 0-247.9616-273.6128-252.2112-279.552-4.1984-5.9904-9.9328-13.4656-14.5408-21.2992-32.7168-52.8896-54.3744-113.4592-54.3744-180.2752C168.6528 154.9312 322.3552 0.1536 512 0.1536s343.3472 154.7776 343.3472 345.8048c0 66.304-19.0464 131.1744-54.9376 186.9312-9.5232 12.5952-18.5344 20.6848-23.6032 25.7536zM512 64.3584c-155.3408 0-281.2416 126.8736-281.2416 283.3408 0 51.6608 16.7936 97.9456 42.4448 135.6288 8.3968 13.5168 34.9184 45.056 34.9184 45.056l211.6608 237.6192 192.9216-231.0144s10.1888-12.1856 22.3232-29.9008c31.1296-45.3632 58.2656-94.9248 58.2656-157.3376-0.0512-156.5696-125.952-283.392-281.2928-283.392z"></path><path d="M666.8288 402.0736h-307.2c-15.4624 0-28.0064-12.544-28.0064-28.0064 0-15.4624 12.544-28.0064 28.0064-28.0064h307.2c15.4624 0 28.0064 12.544 28.0064 28.0064 0 15.4624-12.544 28.0064-28.0064 28.0064z"></path></svg>