<?xml version="1.0" standalone="no"?><!DOCTYPE svg PUBLIC "-//W3C//DTD SVG 1.1//EN" "http://www.w3.org/Graphics/SVG/1.1/DTD/svg11.dtd"><svg t="1627722103869" class="icon" viewBox="0 0 1025 1024" version="1.1" xmlns="http://www.w3.org/2000/svg" p-id="1963" xmlns:xlink="http://www.w3.org/1999/xlink" width="128.125" height="128"><defs><style type="text/css"></style></defs><path d="M181.10185262 930.4882664c-18.69801175 0-33.42977859-15.29837325-33.42977858-33.42977858 0-18.69801175 15.29837325-33.42977859 33.42977858-33.4297786h691.25982844c18.69801175 0 33.42977859 15.29837325 33.42977859 33.4297786 0 18.69801175-15.29837325 33.42977859-33.42977859 33.42977858h-691.25982844z m671.42860384-747.92047012L752.80772713 82.84506694c-12.46534117-12.46534117-32.86317217-12.46534117-45.32851335 0l-100.85594218 100.85594218 145.05124269 145.05124269 100.85594217-100.85594218c12.46534117-12.46534117 12.46534117-32.29656575 0-45.32851335z m-275.93732495 31.16335293L240.59552637 549.72875434c-9.06570266 9.06570266-16.9981925 28.89692726-16.9981925 28.89692726l-52.12779033 165.44907369c-3.96624492 12.46534117 7.93248983 23.7974695 20.397831 20.397831l164.31586085-52.12779034s19.83122459-7.36588342 29.46353368-17.56479891L721.6443742 358.7823919 576.59313151 213.73114921z" fill="#ffffff" p-id="1964"></path></svg>