<svg viewBox="0 0 1024 1024" version="1.1" xmlns="http://www.w3.org/2000/svg" width="128" height="128"><path d="M902.23 9.72H346.3C160.05 9.72 9.06 160.71 9.06 346.97v554.8c0 62.09 50.33 112.42 112.42 112.42H677.4c186.26 0 337.25-150.99 337.25-337.25v-554.8c0-62.09-50.33-112.42-112.42-112.42z m41.6 657.11c0 161.42-115.12 278.79-276.54 278.79h-540.2c-27.54 0-48.34-21.71-48.34-49.46V357.09C78.75 195.67 195 78.3 356.42 78.3h540.19c30.09 0 47.21 18.56 47.21 49.46v539.07z"></path><path d="M769.57 623.38L584.31 341.44h-66v382.38h66V441.9l185.22 281.92h66.04V341.44h-66zM245.94 341.4h-61.19v382.38h271.18v-58.14H245.94V561.7h209.99v-58.15H245.94V399.59h209.99v-58.15H245.94z"></path></svg>