<svg t="1638861861361" class="icon" viewBox="0 0 1024 1024" version="1.1" xmlns="http://www.w3.org/2000/svg" p-id="4238" xmlns:xlink="http://www.w3.org/1999/xlink" width="128" height="128"><path d="M399.3 379.4h225.4c12.4 0 22.5 10.1 22.5 22.5s-10.1 22.5-22.5 22.5H399.3c-12.4 0-22.5-10.1-22.5-22.5s10.1-22.5 22.5-22.5z m0-135.2h90.1c12.4 0 22.5 10.1 22.5 22.5s-10.1 22.5-22.5 22.5h-90.1c-12.4 0-22.5-10.1-22.5-22.5s10.1-22.5 22.5-22.5z m-44.8-93c-24.9 0-45.1 20.2-45.1 45.1v273.3l8.3 3.7 194.5 86.5 199.5-90.1 2.8-272.9v-0.5c0-24.9-20.2-45.1-45.1-45.1H354.5zM196.7 464v276.5c0 24.9 20.2 45.1 45.1 45.1h540.9c24.9 0 45.1-20.2 45.1-45.1V464.6l-304 141.8c-3.3 1.8-7 2.8-10.8 2.8-3.8 0-7.5-1-10.8-2.8L196.7 464z m67.6-105.2V199.1c0-49.8 40.4-90.1 90.1-90.1H670c49.8 0 90.1 40.4 90.1 90.1v159.4l99.7 46.5c8.8 4.1 13.7 13.1 12.9 22.3 0.1 1.2 0.1 2.4 0 3.6v309c0 49.8-40.4 90.1-90.1 90.1H241.8c-49.8 0-90.1-40.4-90.1-90.1V429.6h0.6c0-0.8 0-1.6 0.1-2.4-0.7-9.1 4.2-18.1 13-22.1l98.9-46.3z m0 87v-16.3h-34.9l34.9 16.3z m495.9-37.5v21.3h36.2-36.2v16.9l36.2-16.9-36.2-21.3z m-495.9 0.3l-39.9 18.6 5.1 2.4h34.9v-21z" ></path></svg>