<?xml version="1.0" standalone="no"?><!DOCTYPE svg PUBLIC "-//W3C//DTD SVG 1.1//EN" "http://www.w3.org/Graphics/SVG/1.1/DTD/svg11.dtd"><svg t="1634280034075" class="icon" viewBox="0 0 1024 1024" version="1.1" xmlns="http://www.w3.org/2000/svg" p-id="30217" width="128" height="128" xmlns:xlink="http://www.w3.org/1999/xlink"><defs><style type="text/css"></style></defs><path d="M872 1024H152C68.2 1024 0 955.8 0 872V244C0 160.2 68.2 92 152 92h40c17.7 0 32 14.3 32 32s-14.3 32-32 32h-40c-48.5 0-88 39.5-88 88v628c0 48.5 39.5 88 88 88h720c48.5 0 88-39.5 88-88V244c0-48.5-39.5-88-88-88h-39.8c-17.7 0-32-14.3-32-32s14.3-32 32-32H872c83.8 0 152 68.2 152 152v628c0 83.8-68.2 152-152 152z" fill="" p-id="30218"></path><path d="M588 156H436c-17.6 0-32-14.4-32-32s14.4-32 32-32h152c17.6 0 32 14.4 32 32s-14.4 32-32 32zM308.5 264c-17.6 0-32-14.4-32-32V32c0-17.6 14.4-32 32-32s32 14.4 32 32v200c0 17.6-14.4 32-32 32zM716.8 264c-17.6 0-32-14.4-32-32V32c0-17.6 14.4-32 32-32s32 14.4 32 32v200c0 17.6-14.4 32-32 32zM41 352h926v64H41z" fill="" p-id="30219"></path><path d="M457.2 576.1a54.8 54 0 1 0 109.6 0 54.8 54 0 1 0-109.6 0Z" fill="" p-id="30220"></path><path d="M457.2 793.9a54.8 54 0 1 0 109.6 0 54.8 54 0 1 0-109.6 0Z" fill="" p-id="30221"></path><path d="M183 576.1a54.8 54 0 1 0 109.6 0 54.8 54 0 1 0-109.6 0Z" fill="" p-id="30222"></path><path d="M183 793.9a54.8 54 0 1 0 109.6 0 54.8 54 0 1 0-109.6 0Z" fill="" p-id="30223"></path><path d="M730.1 576.1a54.8 54 0 1 0 109.6 0 54.8 54 0 1 0-109.6 0Z" fill="" p-id="30224"></path><path d="M730.1 793.9a54.8 54 0 1 0 109.6 0 54.8 54 0 1 0-109.6 0Z" fill="" p-id="30225"></path></svg>