<?xml version="1.0" standalone="no"?><!DOCTYPE svg PUBLIC "-//W3C//DTD SVG 1.1//EN" "http://www.w3.org/Graphics/SVG/1.1/DTD/svg11.dtd"><svg t="1635759565214" class="icon" viewBox="0 0 1024 1024" version="1.1" xmlns="http://www.w3.org/2000/svg" p-id="3902" width="128" height="128" xmlns:xlink="http://www.w3.org/1999/xlink"><defs><style type="text/css"></style></defs><path d="M797.3 452.9H227c-13.2 0-24-10.7-24-24s10.7-24 24-24h570.3c13.2 0 24 10.7 24 24s-10.7 24-24 24z" opacity=".4" p-id="3903"></path><path d="M654.4 702.3c-13.2 0-24.2-10.7-24.2-24 0-13.2 10.6-24 23.9-24h0.3c13.2 0 24 10.7 24 24s-10.7 24-24 24z m-141.9 0c-13.2 0-24.2-10.7-24.2-24 0-13.2 10.6-24 23.8-24h0.3c13.2 0 24 10.7 24 24 0.1 13.3-10.7 24-23.9 24z m-142.4 0c-13.2 0-24.1-10.7-24.1-24 0-13.2 10.6-24 23.9-24h0.3c13.2 0 24 10.7 24 24-0.1 13.3-10.8 24-24.1 24z m284.3-124.4c-13.2 0-24.2-10.7-24.2-24s10.6-24 23.9-24h0.3c13.2 0 24 10.7 24 24s-10.7 24-24 24z m-141.9 0c-13.2 0-24.2-10.7-24.2-24s10.6-24 23.8-24h0.3c13.2 0 24 10.7 24 24s-10.7 24-23.9 24z m-142.4 0c-13.2 0-24.1-10.7-24.1-24s10.6-24 23.9-24h0.3c13.2 0 24 10.7 24 24s-10.8 24-24.1 24z" opacity=".4" p-id="3904"></path><path d="M641.4 321.3c-13.2 0-24-10.7-24-24V192c0-13.2 10.7-24 24-24s24 10.7 24 24v105.3c0 13.3-10.8 24-24 24zM382.9 321.3c-13.2 0-24-10.7-24-24V192c0-13.2 10.7-24 24-24 13.2 0 24 10.7 24 24v105.3c0 13.3-10.8 24-24 24z" p-id="3905"></path><path d="M647.3 856H376.7c-109 0-176.7-67.2-176.7-175.3V391.1c0-106.5 67.7-172.6 176.7-172.6h270.9c54.7 0 99.9 16.4 130.8 47.3 30 30.1 45.8 73.4 45.6 125.3v292C824 789.8 756.3 856 647.3 856zM376.7 266.5c-83 0-128.7 44.2-128.7 124.6v289.6c0 82.1 45.7 127.3 128.7 127.3h270.6c83 0 128.7-44.3 128.7-124.8v-292c0.1-39.5-10.5-70.2-31.6-91.3-21.7-21.7-55.2-33.2-96.8-33.2H376.7z" p-id="3906"></path></svg>