<?xml version="1.0" standalone="no"?><!DOCTYPE svg PUBLIC "-//W3C//DTD SVG 1.1//EN" "http://www.w3.org/Graphics/SVG/1.1/DTD/svg11.dtd"><svg t="1635404460386" class="icon" viewBox="0 0 1024 1024" version="1.1" xmlns="http://www.w3.org/2000/svg" p-id="3902" width="128" height="128" xmlns:xlink="http://www.w3.org/1999/xlink"><defs><style type="text/css"></style></defs><path d="M511.2 955.6c-124.3 0-234-17.7-309-49.8-86-32.3-135.2-82.2-135.2-137V259.1c0-28.6 11.6-55.1 34.6-78.8 22.3-23 55.2-43.8 100.5-63.6C277 84.7 386.8 67 511.2 67c124.4 0 234.2 17.7 309.2 49.7l3.6 1.5v0.1c43.5 19.4 75.3 39.7 97 62.1 22.9 23.7 34.6 50.1 34.6 78.7v509.6c0 51.9-50.5 103.1-135.2 137-74.9 32.2-184.7 49.9-309.2 49.9zM133.6 763.3c0 17 9.8 33.2 29.2 48.1 20.1 15.4 49.4 28.7 87.1 39.4 84.8 24.4 176.7 37.9 259.3 38.1h2.1c101.5 0 199-14.2 261-38h0.1c37.9-13.5 67.3-28.2 87.4-43.6 19.4-14.9 29.2-29.7 29.2-44v-72.6c-4 2-7.9 4-11.7 5.9-45.7 23.2-81.8 41.4-139.9 56h-0.1c-80.5 18.6-156.2 27.6-231.5 27.6-73.5 0-155.9-10.1-226-27.6h-0.1c-51.6-14-88.1-32.5-130.4-53.9-5.1-2.6-10.3-5.2-15.6-7.9v72.5z m0-175.4c0 17 9.8 33.2 29.2 48.1 20.1 15.4 49.4 28.7 87.1 39.4 86 24.6 178.8 38.1 261.3 38.1 86 0 183.7-14.2 261.4-38.1l0.8-0.3h0.1c37.3-10.7 66.3-23.9 86.3-39.2 19.4-14.9 29.2-31.1 29.3-48.1v-72.6c-4.9 2.5-9.6 4.9-14.3 7.3-44.5 22.6-79.6 40.5-131.7 54.7l-0.2 0.1c-80.7 18.5-156.4 27.5-231.5 27.5-75.6 0-151.3-9-231.5-27.5l-0.2-0.1c-52.1-14.2-87.2-32.1-131.6-54.7-4.7-2.4-9.5-4.8-14.4-7.3v72.7zM250 500.2c85.9 24.6 178.7 38.1 261.2 38.1 86 0 183.7-14.2 261.4-38.1h0.1c85.7-30.6 116.3-62.5 116.4-82.1v-56.9c-14.9 6.3-28.7 12.9-42.1 19.4-32.5 15.6-63.3 30.4-104.3 37.9-80.4 18.6-156.1 27.6-231.4 27.6-75.2 0-150.9-9-231.4-27.6-41-7.5-71.7-22.3-104.2-37.9-13.4-6.5-27.3-13.1-42.2-19.4v51.5c0 14.3 9.8 29.1 29.2 44 20.2 15.3 49.5 30 87.3 43.5z m261.2-366.6c-102.4 0-190.8 13.1-255.4 38h-0.1C181.5 198.1 139 230.1 139 259.3c0 14.8 9.4 29.7 27.1 43.2 20.2 15.3 50.2 28.4 89 38.7l0.3 0.1 0.3 0.1c81.7 31.4 184 38 255.4 38 99.7 0 192.8-13.8 255.4-38l0.3-0.1 0.3-0.1c38.9-10.4 68.9-23.4 89.1-38.7 17.7-13.5 27.1-28.4 27-43.2 0-14.4-9.8-29.2-29.2-44-20.1-15.4-49.5-30.1-87.3-43.6-76.1-23.5-174.1-38.1-255.5-38.1z" p-id="3903"></path></svg>