<?xml version="1.0" standalone="no"?><!DOCTYPE svg PUBLIC "-//W3C//DTD SVG 1.1//EN" "http://www.w3.org/Graphics/SVG/1.1/DTD/svg11.dtd"><svg t="1635404474364" class="icon" viewBox="0 0 1024 1024" version="1.1" xmlns="http://www.w3.org/2000/svg" p-id="4089" xmlns:xlink="http://www.w3.org/1999/xlink" width="128" height="128"><defs><style type="text/css"></style></defs><path d="M932.34 875.71H119.69v-756.6c0-16.82-11.21-28.02-28.02-28.02-16.82 0-28.02 11.21-28.02 28.02v784.62c0 16.81 11.21 28.02 28.02 28.02h840.67c16.81 0 28.02-11.21 28.02-28.02-0.01-16.81-11.21-28.02-28.02-28.02z m0 0" p-id="4090"></path><path d="M231.78 679.56v112.09c0 16.81 11.21 28.02 28.02 28.02s28.02-11.21 28.02-28.02V679.56c0-16.82-11.21-28.02-28.02-28.02s-28.02 11.21-28.02 28.02z m168.13-112.09v224.18c0 16.81 11.21 28.02 28.02 28.02s28.02-11.21 28.02-28.02V567.47c0-16.82-11.21-28.02-28.02-28.02s-28.02 11.21-28.02 28.02z m168.14-56.04v280.22c0 16.81 11.21 28.02 28.02 28.02s28.02-11.21 28.02-28.02V511.43c0-16.82-11.21-28.02-28.02-28.02-16.82-0.01-28.02 11.2-28.02 28.02z m168.13-56.05v336.27c0 16.81 11.21 28.02 28.02 28.02s28.02-11.21 28.02-28.02V455.38c0-16.82-11.21-28.02-28.02-28.02s-28.02 11.21-28.02 28.02z m-504.4 112.09c5.6 0 11.21 0 16.81-5.6l218.57-162.53h156.93c5.6 0 16.81-5.61 22.42-5.61l145.71-151.32V343.3c0 16.81 11.21 28.02 28.02 28.02s28.02-11.21 28.02-28.02V175.16c0-16.82-11.21-28.02-28.02-28.02H652.11c-16.82 0-28.02 11.21-28.02 28.02s11.21 28.02 28.02 28.02h100.88L612.88 343.3H455.96c-5.6 0-11.21 0-16.81 5.6L214.97 517.03c-11.21 11.21-16.82 28.02-5.6 39.23 5.6 5.61 11.2 11.21 22.41 11.21z m0 0" p-id="4091"></path></svg>