<?xml version="1.0" standalone="no"?><!DOCTYPE svg PUBLIC "-//W3C//DTD SVG 1.1//EN" "http://www.w3.org/Graphics/SVG/1.1/DTD/svg11.dtd"><svg t="1635759575910" class="icon" viewBox="0 0 1024 1024" version="1.1" xmlns="http://www.w3.org/2000/svg" p-id="4066" xmlns:xlink="http://www.w3.org/1999/xlink" width="128" height="128"><defs><style type="text/css"></style></defs><path d="M348.7 628.9c-5.1 0-10.3-1.6-14.6-5-10.5-8.1-12.5-23.2-4.4-33.7l95.8-124.4c3.9-5.1 9.7-8.4 16-9.2 6.4-0.8 12.8 1 17.8 4.9l90.3 70.8 78.9-101.9c8.1-10.5 23.2-12.4 33.7-4.3 10.5 8.1 12.4 23.2 4.3 33.7l-93.7 121c-3.9 5.1-9.7 8.3-16 9.1-6.3 0.8-12.7-1-17.8-4.9l-90.2-70.8-81 105.2c-4.8 6.2-11.9 9.5-19.1 9.5z" opacity=".4" p-id="4067"></path><path d="M756.7 351.8c-47.2 0-85.5-38.3-85.5-85.5s38.4-85.5 85.5-85.5 85.5 38.3 85.5 85.5-38.4 85.5-85.5 85.5z m0-123c-20.7 0-37.5 16.8-37.5 37.5s16.8 37.5 37.5 37.5 37.5-16.8 37.5-37.5-16.8-37.5-37.5-37.5z"  p-id="4068"></path><path d="M637.1 843.2H361.9c-107.7 0-180.1-75.7-180.1-188.3V396.3c0-112.8 72.4-188.6 180.1-188.6h232.5c13.2 0 24 10.7 24 24s-10.7 24-24 24H361.9c-80.3 0-132.1 55.2-132.1 140.6v258.6c0 86.6 50.6 140.3 132.1 140.3h275.2c80.3 0 132.1-55.1 132.1-140.3V429.7c0-13.2 10.7-24 24-24 13.2 0 24 10.7 24 24v225.2c0 112.6-72.4 188.3-180.1 188.3z"  p-id="4069"></path></svg>