<?xml version="1.0" standalone="no"?><!DOCTYPE svg PUBLIC "-//W3C//DTD SVG 1.1//EN" "http://www.w3.org/Graphics/SVG/1.1/DTD/svg11.dtd"><svg t="1634280056273" class="icon" viewBox="0 0 1024 1024" version="1.1" xmlns="http://www.w3.org/2000/svg" p-id="30415" xmlns:xlink="http://www.w3.org/1999/xlink" width="128" height="128"><defs><style type="text/css"></style></defs><path d="M316.8 448c38.4 0 76.8-22.4 89.6-57.6 16-35.2 6.4-76.8-19.2-105.6-25.6-28.8-70.4-35.2-105.6-22.4-35.2 16-57.6 54.4-57.6 92.8 0 51.2 41.6 92.8 92.8 92.8z m-19.2-118.4c3.2-6.4 12.8-9.6 22.4-9.6 16 0 32 12.8 32 28.8s-12.8 32-28.8 35.2c-16 0-32-12.8-35.2-28.8 0-9.6 3.2-19.2 9.6-25.6z" p-id="30416"></path><path d="M896 128H128c-35.2 0-64 28.8-64 64v640c0 35.2 28.8 64 64 64h768c35.2 0 64-28.8 64-64V192c0-35.2-28.8-64-64-64z m0 672c0 16-12.8 32-32 32H160c-19.2 0-32-16-32-32V224c0-16 12.8-32 32-32h704c19.2 0 32 16 32 32v576z" p-id="30417"></path><path d="M793.6 352L499.2 646.4l-112-112c-6.4-6.4-12.8-9.6-22.4-9.6-9.6 0-16 3.2-22.4 9.6l-160 160c-12.8 12.8-12.8 32 0 44.8 12.8 12.8 32 12.8 44.8 0l134.4-134.4 112 112c6.4 6.4 12.8 9.6 22.4 9.6 9.6 0 16-3.2 22.4-9.6L835.2 400c12.8-12.8 12.8-32 0-44.8-9.6-16-28.8-16-41.6-3.2z" p-id="30418"></path></svg>