<svg t="1638171028250" class="icon" viewBox="0 0 1024 1024" version="1.1" xmlns="http://www.w3.org/2000/svg" p-id="4164" xmlns:xlink="http://www.w3.org/1999/xlink" width="128" height="128"><path d="M121.508 194c16.275 0 29.513 13.015 29.888 29.212l0.008 0.706v675.898l749.36-8.485c16.51-0.187 30.045 13.056 30.234 29.578 0.182 16.287-12.672 29.68-28.852 30.24l-0.706 0.015-780.204 8.834c-16.51 0.187-30.045-13.056-30.234-29.578-0.026-2.357 0.22-4.653 0.71-6.858a30.549 30.549 0 0 1-0.092-1.763l-0.008-0.707V223.918c0-16.523 13.385-29.918 29.896-29.918z m428.996 273.869c16.275 0.056 29.467 13.117 29.786 29.316l0.006 0.706-1.15 331.249c-0.058 16.523-13.489 29.871-30 29.814-16.275-0.057-29.467-13.118-29.786-29.316l-0.006-0.706 1.15-331.249c0.057-16.523 13.489-29.872 30-29.814zM766.637 284.14c16.275 0.036 29.484 13.081 29.823 29.28l0.006 0.705-1.15 514.978c-0.036 16.523-13.451 29.888-29.962 29.851-16.275-0.036-29.484-13.08-29.823-29.279l-0.006-0.706 1.15-514.977c0.036-16.524 13.451-29.889 29.962-29.852zM336.716 615.16c16.275 0.102 29.43 13.2 29.704 29.399l0.004 0.706-1.15 183.958c-0.103 16.523-13.571 29.834-30.082 29.731-16.275-0.102-29.43-13.2-29.705-29.4l-0.003-0.705 1.15-183.958c0.103-16.524 13.571-29.834 30.082-29.732z"></path></svg>