<?xml version="1.0" standalone="no"?><!DOCTYPE svg PUBLIC "-//W3C//DTD SVG 1.1//EN" "http://www.w3.org/Graphics/SVG/1.1/DTD/svg11.dtd"><svg t="1639993653240" class="icon" viewBox="0 0 1024 1024" version="1.1" xmlns="http://www.w3.org/2000/svg" p-id="4756" xmlns:xlink="http://www.w3.org/1999/xlink" width="128" height="128"><defs><style type="text/css"></style></defs><path d="M671.4 198.5v-62.6c0-22-18-40-40-40h-246c-22.1 0-40 17.9-40 40v62.6h326z" p-id="4757"></path><path d="M878.3 140.9h-89.8v141.8H238.3V140.9h-89.9c-44.2 0-80 35.8-80 80v626.6c0 44.2 35.8 80 80 80h730c44.2 0 80-35.8 80-80V220.9c-0.1-44.2-35.9-80-80.1-80zM720.8 618.2c-1.8 1.6-3.8 3-5.9 4.1L587.7 734.5c-12.7 11.2-33.3 11.2-46 0-12.7-11.2-12.7-29.4 0-40.6L622 623H320.4c-16.6 0-30-13.4-30-30v-4c0-16.6 13.4-30 30-30h287.3l-66-58.2c-12.7-11.2-12.7-29.4 0-40.6 12.7-11.2 33.3-11.2 46 0L715 572.6c2 1.1 3.9 2.4 5.6 4 6.1 5.4 9.3 12.5 9.5 19.6 0.7 7.8-2.5 15.9-9.3 22z" p-id="4758"></path></svg>