<svg class="icon" width="128px" height="128.00px" viewBox="0 0 1024 1024" version="1.1" xmlns="http://www.w3.org/2000/svg"><path d="M724.4 877H293.3c-17 0-30.7 13.8-30.8 30.8 0 16.9 13.8 30.8 30.8 30.8h431.2c17 0 30.7-13.8 30.8-30.8-0.2-17-13.9-30.7-30.9-30.8z m78.4-789.1H219.9c-95.4 0-123.2 33-123.2 123.2v460.4c0 97.4 32 123.2 123.2 123.2h582.9c96.7 0 123.2-24.3 123.2-123.2V211.1c0-84.6-32.1-123.2-123.2-123.2zM570.4 519c0 17-13.8 30.8-30.8 30.8H293.3c-17 0-30.7-13.8-30.8-30.8 0-16.9 13.8-30.8 30.8-30.8h246.4c16.9 0 30.7 13.9 30.7 30.8z m184.8-215.6c0 17-13.8 30.7-30.8 30.8H293.3c-17 0-30.7-13.8-30.8-30.8 0-16.9 13.8-30.8 30.8-30.8h431.2c16.9 0.1 30.7 13.9 30.7 30.8z m0 0" /></svg>