<?xml version="1.0" standalone="no"?><!DOCTYPE svg PUBLIC "-//W3C//DTD SVG 1.1//EN" "http://www.w3.org/Graphics/SVG/1.1/DTD/svg11.dtd"><svg t="1639993684699" class="icon" viewBox="0 0 1024 1024" version="1.1" xmlns="http://www.w3.org/2000/svg" p-id="5648" xmlns:xlink="http://www.w3.org/1999/xlink" width="128" height="128"><defs><style type="text/css"></style></defs><path d="M832 99.8H192c-66.3 0-120 53.7-120 120v590c0 66.3 53.7 120 120 120h640c66.3 0 120-53.7 120-120v-590c0-66.3-53.7-120-120-120zM457.8 491.2c15.5 0 28 12.5 28 28s-12.5 28-28 28H308.4V639h149.4c15.5 0 28 12.5 28 28s-12.5 28-28 28H277.5c-13.5 0-24.8-9.6-27.4-22.4-1.1-3.1-1.7-6.4-1.7-9.8V383.2c0-3.6 0.6-7.1 1.8-10.4 2.9-12.4 14-21.6 27.3-21.6h180.3c15.5 0 28 12.5 28 28s-12.5 28-28 28H308.4v83.9h149.4z m318.1 176c0 15.9-12.4 28.9-28 29.9-3.2 1.3-6.6 1.9-10 1.9-9.1 0-18-4.6-23.1-13L584.6 470.9v196.2c0 16.6-13.4 30-30 30s-30-13.4-30-30v-286c0-16.6 13.4-30 30-30 4.8 0 9.4 1.2 13.4 3.2 6.6 1.7 12.6 5.9 16.4 12.2l131.4 217.2V381.1c0-16.6 13.4-30 30-30s30 13.4 30 30v286.1z" p-id="5649"></path></svg>