<?xml version="1.0" standalone="no"?><!DOCTYPE svg PUBLIC "-//W3C//DTD SVG 1.1//EN" "http://www.w3.org/Graphics/SVG/1.1/DTD/svg11.dtd"><svg t="1629792557296" class="icon" viewBox="0 0 1024 1024" version="1.1" xmlns="http://www.w3.org/2000/svg" p-id="2416" xmlns:xlink="http://www.w3.org/1999/xlink" width="128" height="128"><defs><style type="text/css">@font-face { font-family: uc-nexus-iconfont; src: url("chrome-extension://pogijhnlcfmcppgimcaccdkmbedjkmhi/res/font_9qmmi8b8jsxxbt9.woff") format("woff"), url("chrome-extension://pogijhnlcfmcppgimcaccdkmbedjkmhi/res/font_9qmmi8b8jsxxbt9.ttf") format("truetype"); }
</style></defs><path d="M669.99 868.56h-60.32V629c0-17.97-19.5-33.15-42.57-33.15h-99.26c-23.08 0-42.57 15.18-42.57 33.15v239.55h-60.32V629c0-51.48 46.16-93.36 102.89-93.36h99.26c56.74 0 102.89 41.88 102.89 93.36v239.56z" fill="#2F88FF" p-id="2417"></path><path d="M128.17 509.69c-7.93 0-15.84-3.1-21.76-9.26-11.53-12-11.14-31.05 0.87-42.57l355.28-340.45 0.34-0.3a73.19 73.19 0 0 1 98.27-0.03l0.3 0.28 356.89 330.55c12.21 11.31 12.93 30.36 1.6 42.55-11.33 12.19-30.41 12.9-42.62 1.59L520.63 161.68a12.96 12.96 0 0 0-17.05-0.11L149.05 501.31c-5.85 5.6-13.37 8.38-20.88 8.38z" fill="#191919" p-id="2418"></path><path d="M832.89 636c-16.66 0-30.16-13.48-30.16-30.11V420.87c0-16.63 13.5-30.11 30.16-30.11s30.16 13.48 30.16 30.11v185.01c0 16.64-13.51 30.12-30.16 30.12zM742.41 928.22H279.83c-66.52 0-120.64-54.03-120.64-120.43V431.25c0-16.63 13.5-30.11 30.16-30.11s30.16 13.48 30.16 30.11v376.54c0 33.2 27.06 60.22 60.32 60.22h462.58c33.26 0 60.32-27.01 60.32-60.22v-42.98c0-16.63 13.5-30.11 30.16-30.11s30.16 13.48 30.16 30.11v42.98c0 66.4-54.12 120.43-120.64 120.43z" fill="#191919" p-id="2419"></path></svg>