<?xml version="1.0" standalone="no"?><!DOCTYPE svg PUBLIC "-//W3C//DTD SVG 1.1//EN" "http://www.w3.org/Graphics/SVG/1.1/DTD/svg11.dtd"><svg t="1630576684900" class="icon" viewBox="0 0 1024 1024" version="1.1" xmlns="http://www.w3.org/2000/svg" p-id="6205" xmlns:xlink="http://www.w3.org/1999/xlink" width="128" height="128"><defs><style type="text/css">@font-face { font-family: uc-nexus-iconfont; src: url("chrome-extension://pogijhnlcfmcppgimcaccdkmbedjkmhi/res/font_9qmmi8b8jsxxbt9.woff") format("woff"), url("chrome-extension://pogijhnlcfmcppgimcaccdkmbedjkmhi/res/font_9qmmi8b8jsxxbt9.ttf") format("truetype"); }
</style></defs><path d="M902.144 337.92c-7.68-8.192-18.944-12.8-29.696-12.8-23.04 0-41.984 18.944-41.984 41.984v379.904c0 43.008-37.376 77.824-82.944 77.824H276.48c-45.568 0-82.944-34.816-82.944-77.824V247.296c0-43.008 37.376-77.824 82.944-77.824h423.936c23.04 0 41.984-18.944 41.984-41.984 0-23.552-18.432-41.984-41.984-41.984H276.992c-91.648 0-166.4 72.704-166.4 161.792v499.712c0 89.088 74.752 161.792 166.4 161.792H747.52c91.648 0 166.4-72.704 166.4-161.792V367.616c0.512-11.264-3.584-21.504-11.776-29.696z" fill="#181818" p-id="6206"></path><path d="M245.76 698.368c0 23.04 18.944 41.984 41.984 41.984H737.28c23.04 0 41.984-18.944 41.984-41.984 0-23.552-18.432-41.984-41.984-41.984H287.744c-23.04 0-41.984 18.944-41.984 41.984zM959.488 68.608c-7.68-7.68-18.432-12.288-29.696-12.288-11.264 0-21.504 4.096-29.696 12.288l-371.712 373.76c-7.68 7.68-12.288 18.432-12.288 29.696 0 11.264 4.096 21.504 12.288 29.696 7.68 7.68 17.92 11.776 29.696 11.776 11.264 0 21.504-4.608 29.696-12.288L958.464 128c8.192-7.68 12.8-18.432 12.8-29.696 0.512-11.264-4.096-21.504-11.776-29.696z" fill="#181818" p-id="6207"></path><path d="M458.24 512.512H287.744c-23.04 0-41.984 18.944-41.984 41.984 0 23.552 18.432 41.984 41.984 41.984h170.496c23.04 0 41.984-18.944 41.984-41.984s-18.944-41.984-41.984-41.984z" fill="#1890FF" p-id="6208"></path></svg>