<?xml version="1.0" standalone="no"?><!DOCTYPE svg PUBLIC "-//W3C//DTD SVG 1.1//EN" "http://www.w3.org/Graphics/SVG/1.1/DTD/svg11.dtd"><svg t="1640857690183" class="icon" viewBox="0 0 1024 1024" version="1.1" xmlns="http://www.w3.org/2000/svg" p-id="4983" xmlns:xlink="http://www.w3.org/1999/xlink" width="128" height="128"><defs><style type="text/css">@font-face { font-family: uc-nexus-iconfont; src: url("chrome-extension://pogijhnlcfmcppgimcaccdkmbedjkmhi/res/font_9qmmi8b8jsxxbt9.woff") format("woff"), url("chrome-extension://pogijhnlcfmcppgimcaccdkmbedjkmhi/res/font_9qmmi8b8jsxxbt9.ttf") format("truetype"); }
</style></defs><path d="M556.6 168.1c3.3 2.8 6.4 5.8 9.1 9.1l134.7 161.6 148.5-109.7c24.1-17.8 56.7-18.5 81.6-1.9 24.9 16.6 36.6 47.1 29.4 76.1L818.6 868.4H203.9l-141.3-565c-7.3-29 4.5-59.5 29.4-76.2 24.9-16.7 57.5-15.9 81.6 1.9l148.5 109.7 134.7-161.6c12-14.5 29.3-23.5 48.1-25.2 18.7-1.7 37.3 4.1 51.7 16.1z m120.1 498.6h-331v75.7h331v-75.7z m0 0" p-id="4984"></path></svg>