<?xml version="1.0" standalone="no"?><!DOCTYPE svg PUBLIC "-//W3C//DTD SVG 1.1//EN" "http://www.w3.org/Graphics/SVG/1.1/DTD/svg11.dtd"><svg t="1639993677189" class="icon" viewBox="0 0 1024 1024" version="1.1" xmlns="http://www.w3.org/2000/svg" p-id="5394" xmlns:xlink="http://www.w3.org/1999/xlink" width="128" height="128"><defs><style type="text/css"></style></defs><path d="M887.1 100.6l-744.5-0.1c-41.1 0.1-74.4 30.9-74.4 69v516.8c0 38 33.3 68.8 74.4 68.8H887c19.7 0 38.7-7.2 52.7-20.1 14-12.9 21.8-30.4 21.9-48.7V169.6c0-38.1-33.4-69-74.5-69zM558.3 510.9c0 25-20.2 45.2-45.2 45.2H226.7c-25 0-45.2-20.2-45.2-45.2 0-25 20.2-45.2 45.2-45.2h286.5c24.9 0 45.1 20.2 45.1 45.2zM769 302.4c0 25-20.2 45.2-45.2 45.2H226.7c-25 0-45.2-20.2-45.2-45.2 0-25 20.2-45.2 45.2-45.2h497.2c24.9 0 45.1 20.2 45.1 45.2zM823.7 835.5H206.1c-22.7 5.4-38.6 24.3-38.6 45.9 0 21.7 15.9 40.6 38.6 46h617.6c22.7-5.4 38.5-24.3 38.5-46s-15.8-40.5-38.5-45.9z" p-id="5395"></path></svg>