<?xml version="1.0" standalone="no"?><!DOCTYPE svg PUBLIC "-//W3C//DTD SVG 1.1//EN" "http://www.w3.org/Graphics/SVG/1.1/DTD/svg11.dtd"><svg class="icon" width="128px" height="128.00px" viewBox="0 0 1024 1024" version="1.1" xmlns="http://www.w3.org/2000/svg"><path d="M980 447c-7.8-31.7-30.6-58.9-66-78.8-17.4-9.8-37.8-17.9-61-24.2 16.6 26.6 30.1 55.2 40.2 85.4 13.9 9.7 22.7 20.7 25.7 32.7 3.1 12.4 0 26.8-8.4 42.4l-1.2 2.1c-0.4 0.7-0.8 1.3-1.2 2-0.1 0.1-0.1 0.2-0.2 0.3-0.4 0.6-0.7 1.2-1.1 1.8-0.1 0.1-0.2 0.3-0.3 0.5-0.4 0.6-0.7 1.2-1.1 1.7-0.1 0.2-0.2 0.4-0.4 0.6-0.4 0.5-0.7 1.1-1.1 1.6-0.1 0.2-0.3 0.4-0.5 0.7-0.4 0.5-0.7 1.1-1.1 1.6l-0.5 0.7c-0.4 0.5-0.7 1-1.1 1.6-0.2 0.3-0.4 0.5-0.6 0.8l-1.2 1.5c-0.2 0.3-0.4 0.5-0.6 0.8l-1.2 1.5c-0.2 0.3-0.5 0.6-0.7 0.9l-1.2 1.5c-0.2 0.3-0.5 0.6-0.7 0.9l-1.2 1.5c-0.3 0.3-0.5 0.6-0.8 0.9-0.4 0.5-0.8 1-1.2 1.4-0.3 0.3-0.5 0.6-0.8 1-0.4 0.5-0.8 0.9-1.3 1.4-0.3 0.3-0.6 0.7-0.9 1-0.4 0.5-0.8 0.9-1.3 1.4l-0.9 1c-0.4 0.5-0.9 0.9-1.3 1.4-0.3 0.3-0.6 0.7-1 1-0.4 0.5-0.9 0.9-1.3 1.4-0.3 0.4-0.7 0.7-1 1.1-0.4 0.5-0.9 0.9-1.3 1.4l-1.1 1.1c-0.5 0.4-0.9 0.9-1.4 1.3l-1.1 1.1c-0.4 0.4-0.9 0.9-1.4 1.3-0.4 0.4-0.8 0.7-1.2 1.1-0.5 0.4-0.9 0.9-1.4 1.3-0.4 0.4-0.8 0.8-1.2 1.1l-1.4 1.3c-0.4 0.4-0.8 0.8-1.3 1.2l-1.4 1.3c-0.4 0.4-0.9 0.8-1.3 1.2-0.5 0.4-1 0.8-1.4 1.3-0.5 0.4-0.9 0.8-1.4 1.2s-1 0.8-1.5 1.3c-0.5 0.4-1 0.8-1.4 1.2l-1.5 1.2-1.5 1.2-1.5 1.2c-0.5 0.4-1 0.9-1.6 1.3l-1.5 1.2c-0.5 0.4-1.1 0.9-1.6 1.3l-1.5 1.2c-0.6 0.4-1.1 0.9-1.7 1.3l-1.5 1.2c-0.6 0.5-1.2 0.9-1.8 1.4-0.5 0.4-1 0.7-1.4 1.1-0.6 0.5-1.3 1-2 1.5-0.5 0.3-0.9 0.7-1.4 1-0.7 0.5-1.5 1.1-2.2 1.6l-1.2 0.9c-1.1 0.8-2.3 1.6-3.4 2.5-2.8 2-5.6 3.9-8.4 5.9-31.3 21.3-68 41.2-108.6 59.1-51 22.5-108.2 41.8-168.7 56.7-14.9 3.7-29.7 7-44.4 10-40.6 8.3-80.5 14-118.7 17.1-22.5 1.8-44.4 2.8-65.4 2.8-28.6 0-55.8-1.7-81-5.2l-4.5-0.6-1.8-0.3c-0.9-0.1-1.7-0.3-2.6-0.4-0.7-0.1-1.3-0.2-2-0.3-0.8-0.1-1.6-0.3-2.3-0.4-0.7-0.1-1.5-0.3-2.2-0.4-0.7-0.1-1.4-0.2-2.1-0.4-0.8-0.1-1.6-0.3-2.4-0.5l-1.8-0.3c-0.9-0.2-1.7-0.3-2.5-0.5-0.5-0.1-1.1-0.2-1.6-0.3-0.9-0.2-1.7-0.4-2.6-0.5l-1.5-0.3-2.7-0.6c-0.4-0.1-0.9-0.2-1.3-0.3l-2.7-0.6-1.2-0.3c-0.9-0.2-1.9-0.5-2.8-0.7l-1-0.2c-1-0.2-1.9-0.5-2.9-0.7-0.3-0.1-0.6-0.2-0.9-0.2-1-0.3-2-0.5-2.9-0.8-0.3-0.1-0.5-0.1-0.8-0.2-1-0.3-2-0.6-3-0.8l-0.7-0.2-3-0.9c-0.2-0.1-0.4-0.1-0.6-0.2l-3-0.9c-0.2-0.1-0.3-0.1-0.5-0.2-1-0.3-2-0.7-3-1-0.1 0-0.3-0.1-0.4-0.1-1-0.3-2-0.7-3-1-0.1 0-0.2-0.1-0.4-0.1-1-0.4-2-0.7-3-1.1-0.1 0-0.2-0.1-0.3-0.1-1-0.4-2-0.7-3-1.1-0.1 0-0.2-0.1-0.2-0.1l-3-1.2c-0.1 0-0.1 0-0.2-0.1-1-0.4-2-0.8-2.9-1.2h-0.1c-1-0.4-2-0.8-2.9-1.3h-0.1c-1-0.4-1.9-0.9-2.9-1.3-0.9-0.4-1.9-0.9-2.8-1.3-7.5-3.6-14-7.5-19.7-11.7-0.2-0.2-0.5-0.4-0.7-0.5-12.3-9.1-20.3-19.5-23-30.7-2.7-10.9-0.7-23.3 5.5-36.7-3.8-22.4-5.7-45.1-5.7-67.8 0-9.4 0.3-18.8 1-28.1-16.3 15.5-29.7 31.3-40 47.1-22.2 34-29.8 68.8-22 100.4 7.8 31.7 30.6 59 66 78.8 17.6 9.9 38.4 18.1 61.9 24.5 6.7 1.8 13.7 3.5 20.9 5.1h0.1c2.2 0.5 4.4 0.9 6.7 1.4l0.6 0.1 6.3 1.2c0.5 0.1 1.1 0.2 1.6 0.3 1.8 0.3 3.6 0.6 5.5 0.9 1 0.2 2.1 0.3 3.1 0.5 1.4 0.2 2.8 0.5 4.2 0.7 2.5 0.4 4.9 0.7 7.4 1.1 27.9 3.8 57.8 5.7 89.3 5.7 21.2 0 43.2-0.9 65.7-2.6 55-4.2 113-13.4 171.7-27.5l6.3-1.5c99.8-24.5 185.4-57.6 261.2-101.9 4.2-2.5 8.4-5 12.5-7.5 11.7-7.2 22.9-14.5 33.4-22.1 1.9-1.3 3.7-2.7 5.5-4 0.9-0.7 1.8-1.3 2.7-2s1.8-1.3 2.6-2c1.2-0.9 2.4-1.8 3.6-2.8l1.5-1.2c1.4-1.1 2.8-2.2 4.1-3.2 0.3-0.2 0.6-0.5 0.9-0.7l4.5-3.6c0.1-0.1 0.3-0.2 0.4-0.3 1.6-1.3 3.1-2.5 4.6-3.8l0.1-0.1c3.8-3.2 7.5-6.4 11.1-9.7 19.3-17.5 34.9-35.3 46.5-53.1 22.6-34.6 30.2-69.3 22.4-101z"  /><path d="M150.4 659l0.2 0.1 0.6 0.2c1 0.3 1.9 0.6 2.9 0.9l0.3 0.1 0.6 0.2c1 0.3 1.9 0.6 2.9 0.8l0.4 0.1 0.6 0.2c0.9 0.3 1.9 0.5 2.8 0.8l0.5 0.1 0.7 0.2c0.9 0.2 1.8 0.5 2.7 0.7l0.6 0.2 0.7 0.2 0.3 0.1 2.4 0.6 0.7 0.2 0.7 0.2 0.5 0.1c0.7 0.2 1.4 0.3 2.1 0.5l0.8 0.2 0.8 0.2 0.7 0.1c0.6 0.1 1.3 0.3 1.9 0.4 0.3 0.1 0.6 0.1 0.9 0.2l0.9 0.2 0.7 0.2c0.6 0.1 1.2 0.3 1.7 0.4 0.4 0.1 0.8 0.2 1.2 0.2l0.9 0.2 0.9 0.2c0.5 0.1 0.9 0.2 1.4 0.3l1.6 0.3 0.8 0.2 0.9 0.2c0.4 0.1 0.8 0.1 1.1 0.2l1.8 0.3 0.8 0.1 0.9 0.2c0.3 0.1 0.7 0.1 1 0.2 1.5 0.3 3.1 0.5 4.6 0.8 26.3 4.2 55.1 6.5 85.7 6.8 22.6 0.3 46.4-0.6 70.7-2.4 41.8-3.2 85.4-9.4 129.7-18.6 16.3-3.4 32.7-7.1 48.8-11.2 66.1-16.7 128.3-38.4 184.9-64.4 44.1-20.3 83.4-42.7 116.8-66.6 3.5-2.5 6.3-4.5 8.9-6.5l3.6-2.7 0.6-0.4 0.6-0.5 0.3-0.2c0.7-0.5 1.3-1 2-1.5l0.8-0.6 0.7-0.5 0.5-0.4 1.5-1.2c0.3-0.2 0.6-0.5 0.9-0.7l0.6-0.5 0.5-0.4c0.5-0.4 0.9-0.7 1.4-1.1 0.3-0.3 0.6-0.5 0.9-0.8l0.6-0.5 0.4-0.4c0.4-0.4 0.9-0.7 1.3-1.1 0.3-0.3 0.7-0.6 1-0.8l0.5-0.4 0.4-0.3c0.4-0.4 0.9-0.7 1.3-1.1 0.4-0.3 0.7-0.6 1.1-0.9l0.4-0.4 0.4-0.3c0.4-0.4 0.8-0.7 1.2-1s0.7-0.6 1.1-0.9l0.4-0.4 0.3-0.3c0.4-0.3 0.8-0.7 1.2-1.1l1.2-1.1 0.3-0.2 0.2-0.2c0.4-0.4 0.8-0.7 1.3-1.1 0.4-0.4 0.8-0.7 1.2-1.1l0.3-0.2 0.2-0.2c0.4-0.4 0.8-0.7 1.2-1.1 0.5-0.4 0.9-0.9 1.4-1.3l0.1-0.1h0.1c0.4-0.4 0.8-0.8 1.3-1.2 0.4-0.4 0.8-0.8 1.3-1.2-16.1-207-176.2-372.5-373.3-372.7-252.4-0.3-397 177.9-383.8 403.5 3.1 53.2 8.3 104.2 25.1 151.1 0.1-0.5 0.3-0.4 0.4-0.4zM568 820.8l-2.7 0.6c-69.2 17-137.6 28-203.4 32.6-21 1.5-41.6 2.3-61.4 2.5 57.6 39.3 125.8 59.3 198.9 63.3 181.8 9.9 260.1-76.7 327.7-194.9-75.5 39.1-162.2 71.4-254.4 94.6-1.4 0.6-3 0.9-4.7 1.3z"  /></svg>