<?xml version="1.0" standalone="no"?><!DOCTYPE svg PUBLIC "-//W3C//DTD SVG 1.1//EN" "http://www.w3.org/Graphics/SVG/1.1/DTD/svg11.dtd"><svg t="1630576643169" class="icon" viewBox="0 0 1024 1024" version="1.1" xmlns="http://www.w3.org/2000/svg" p-id="5161" xmlns:xlink="http://www.w3.org/1999/xlink" width="128" height="128"><defs><style type="text/css">@font-face { font-family: uc-nexus-iconfont; src: url("chrome-extension://pogijhnlcfmcppgimcaccdkmbedjkmhi/res/font_9qmmi8b8jsxxbt9.woff") format("woff"), url("chrome-extension://pogijhnlcfmcppgimcaccdkmbedjkmhi/res/font_9qmmi8b8jsxxbt9.ttf") format("truetype"); }
</style></defs><path d="M519.168 847.36l50.176-55.296-50.176-119.296-50.176 119.296 50.176 55.296z" fill="#1890FF" p-id="5162"></path><path d="M525.312 560.64c64.512 0 124.416-25.088 169.984-70.656 45.568-45.568 70.656-105.984 70.656-169.984s-25.088-124.416-70.656-169.984c-45.568-45.568-105.984-70.656-169.984-70.656s-124.416 25.088-169.984 70.656C309.76 195.584 284.672 256 284.672 320s25.088 124.416 70.656 169.984c45.568 45.568 105.984 70.656 169.984 70.656z m-157.696-240.64c0-87.04 70.656-157.696 157.696-157.696s157.696 70.656 157.696 157.696-70.656 157.696-157.696 157.696-157.696-70.656-157.696-157.696zM615.936 859.136H248.32c-51.712 0-93.184-43.52-93.184-97.28s41.984-97.28 93.184-97.28h359.936c23.04 0 41.984-17.92 41.984-40.448s-18.944-40.448-41.984-40.448H248.32c-97.28 0-176.64 80.384-176.64 178.688s79.36 178.176 176.64 178.176h367.616c23.04 0 41.984-18.432 41.984-40.96s-18.944-40.448-41.984-40.448zM908.288 866.816h-188.928c-20.48 0-36.864 16.384-36.864 36.864s16.384 36.864 36.864 36.864h188.928c20.48 0 36.864-16.384 36.864-36.864s-16.384-36.864-36.864-36.864zM885.248 587.776H742.4c-39.936 0-72.704 32.768-72.704 72.704v103.936c0 39.936 32.768 72.704 72.704 72.704h142.848c40.448 0 73.216-32.768 72.704-72.704V660.48c0-39.936-32.768-72.704-72.704-72.704zM732.672 660.48c0-5.632 4.608-9.728 9.728-9.728h142.848c5.632 0 9.728 4.608 9.728 9.728v103.936c0 5.632-4.608 9.728-9.728 9.728H742.4c-5.632 0-9.728-4.608-9.728-9.728V660.48z" fill="#191919" p-id="5163"></path></svg>