<?xml version="1.0" standalone="no"?><!DOCTYPE svg PUBLIC "-//W3C//DTD SVG 1.1//EN" "http://www.w3.org/Graphics/SVG/1.1/DTD/svg11.dtd"><svg t="1630576655052" class="icon" viewBox="0 0 1024 1024" version="1.1" xmlns="http://www.w3.org/2000/svg" p-id="5420" xmlns:xlink="http://www.w3.org/1999/xlink" width="128" height="128"><defs><style type="text/css">@font-face { font-family: uc-nexus-iconfont; src: url("chrome-extension://pogijhnlcfmcppgimcaccdkmbedjkmhi/res/font_9qmmi8b8jsxxbt9.woff") format("woff"), url("chrome-extension://pogijhnlcfmcppgimcaccdkmbedjkmhi/res/font_9qmmi8b8jsxxbt9.ttf") format("truetype"); }
</style></defs><path d="M231.424 237.568m-30.72 0a30.72 30.72 0 1 0 61.44 0 30.72 30.72 0 1 0-61.44 0Z" fill="#1890FF" p-id="5421"></path><path d="M230.912 494.08m-30.72 0a30.72 30.72 0 1 0 61.44 0 30.72 30.72 0 1 0-61.44 0Z" fill="#1890FF" p-id="5422"></path><path d="M230.912 748.544m-30.72 0a30.72 30.72 0 1 0 61.44 0 30.72 30.72 0 1 0-61.44 0Z" fill="#1890FF" p-id="5423"></path><path d="M825.344 118.784H202.24c-55.296 0-100.352 45.056-100.352 100.352V250.88c0 55.296 45.056 100.352 100.352 100.352h622.592c55.296 0 100.352-45.056 100.864-100.352v-31.744c0-55.296-45.056-100.352-100.352-100.352zM170.496 219.136c0-17.408 14.336-31.744 31.744-31.744h623.104c17.408 0 31.744 14.336 31.744 31.744V250.88c0 17.408-14.336 31.744-31.744 31.744H202.24c-17.408 0-31.744-14.336-31.744-31.744v-31.744zM825.344 376.32H202.24c-55.296 0-100.352 45.056-100.352 100.352v31.744c0 55.296 45.056 100.352 100.352 100.352h622.592c55.296 0 100.352-45.056 100.864-100.352v-31.744c0-55.296-45.056-100.352-100.352-100.352zM170.496 476.672c0-17.408 14.336-31.744 31.744-31.744h623.104c17.408 0 31.744 14.336 31.744 31.744v31.744c0 17.408-14.336 31.744-31.744 31.744H202.24c-17.408 0-31.744-14.336-31.744-31.744v-31.744zM827.904 634.88H199.168c-53.76 0-97.28 39.936-97.28 88.576v104.448c0 48.64 43.52 88.576 97.28 88.576h628.736c27.648 0 54.272-10.752 72.704-29.184 8.704-9.216 11.264-22.016 6.656-33.28-5.632-12.288-17.92-20.48-32.256-20.48-9.728 0-18.944 3.584-25.6 10.24-5.12 5.632-13.312 8.704-21.504 8.704H199.168c-15.872 0-28.672-10.752-28.672-24.576v-104.448c0-13.312 12.8-24.576 28.672-24.576h628.736c15.872 0 28.672 10.752 28.672 24.576v33.28c0 17.92 15.36 32.256 34.304 32.256s34.304-14.336 34.304-32.256v-33.28c0-48.64-43.52-88.576-97.28-88.576z" fill="#191919" p-id="5424"></path></svg>