<?xml version="1.0" standalone="no"?><!DOCTYPE svg PUBLIC "-//W3C//DTD SVG 1.1//EN" "http://www.w3.org/Graphics/SVG/1.1/DTD/svg11.dtd"><svg t="1629792604732" class="icon" viewBox="0 0 1024 1024" version="1.1" xmlns="http://www.w3.org/2000/svg" p-id="3457" xmlns:xlink="http://www.w3.org/1999/xlink" width="128" height="128"><defs><style type="text/css">@font-face { font-family: uc-nexus-iconfont; src: url("chrome-extension://pogijhnlcfmcppgimcaccdkmbedjkmhi/res/font_9qmmi8b8jsxxbt9.woff") format("woff"), url("chrome-extension://pogijhnlcfmcppgimcaccdkmbedjkmhi/res/font_9qmmi8b8jsxxbt9.ttf") format("truetype"); }
</style></defs><path d="M941.9 389c-4.7-16.9-20.7-28.3-38.3-27-28.4 1.9-55.3-12.5-69.5-37.2-14.3-24.5-13.4-55.2 2.4-78.8 9.6-14.6 7.9-34-4.3-46.5-57.8-59.8-131.1-102.2-211.8-122.6-17-4.3-34.8 3.8-42.6 19.7-12.5 25.6-38.5 41.7-66.9 41.6-28.4 0.1-54.4-16-66.9-41.6-7.8-15.7-25.5-23.9-42.6-19.7-80.6 20.3-154 62.7-211.9 122.4-12.3 12.6-14 32-4.4 46.6 15.8 23.6 16.7 54.1 2.4 78.7-14.1 24.6-41.1 39-69.5 37.2-17.5-1.3-33.7 10-38.2 27.1-11.3 39.9-17 81-16.9 122.4 0 41.6 5.7 82.7 16.9 122.3 4.8 16.9 20.7 28.2 38.2 27.1 28.3-1.8 55.3 12.6 69.5 37.2 14.3 24.7 13.4 54.9-2.4 78.7-9.7 14.6-7.9 34.1 4.4 46.7 57.9 59.7 131.2 102.1 211.9 122.4 17 4.4 34.8-3.8 42.6-19.6 12.6-25.5 38.5-41.6 66.9-41.5 28.6 0 54.3 15.9 66.9 41.5 7.8 15.7 25.5 23.9 42.6 19.7 80.6-20.3 154-62.7 211.9-122.5 12.3-12.6 14-32 4.3-46.7-15.8-23.6-16.7-54.2-2.4-78.6 14-24.7 41.1-39.2 69.5-37.2 17.5 1 33.5-10.1 38.3-27.1 11.3-39.8 16.9-81 16.9-122.3-0.1-41.6-5.7-82.8-17-122.4zM891 590.7c-46.8 7-87.7 35-111.1 76-23.7 40.8-27.5 90.2-10.2 134-39.8 35.7-86.5 62.7-137.3 79.4-29.4-37-74.1-58.4-121.3-58.2-47.3-0.2-92 21.3-121.4 58.2-50.8-16.7-97.6-43.7-137.3-79.4 17.2-43.9 13.5-93.3-10.2-134-23.4-41.1-64.4-69.1-111.1-76-10.8-52.3-10.8-106.3 0-158.6 46.8-6.9 87.7-34.9 111.1-75.9 23.7-40.8 27.5-90.3 10.2-134.2 39.7-35.7 86.5-62.7 137.3-79.4 29.4 37 74.1 58.5 121.4 58.3 48.2 0 92.3-21.7 121.3-58.3 50.8 16.7 97.5 43.7 137.3 79.4a154.92 154.92 0 0 0 10.2 134.2c23.4 41 64.4 69 111.1 76 10.9 52.1 10.9 106.1 0 158.5z" fill="#191919" p-id="3458"></path><path d="M689.9 489.6c-9.5-90.2-86.1-158.3-179.1-158.3-93.5 0-170.7 69.6-179.5 160.8-10.5 109.3 79.4 205.3 189 199.7 51.2-2.7 91.4-18.9 121.8-54.5l1.2-1c13.2-11.5 14.5-31.3 3-44.4-11.5-13.2-31.3-14.5-44.4-3l-4.2 3.7c-2 1.7-3.6 3.6-5 5.6-20.5 18.3-52.4 29.3-81.9 29.3-63.7 0-115.6-51.9-115.6-115.6 0-63.8 51.8-115.6 115.6-115.6 60.3 0 109.8 44.4 115.1 103.1l0.2 8.3c0.3 16.2 13.7 29.2 29.9 28.9l6.1-0.1c16.2-0.3 29.2-13.7 29-29.9l-0.2-9.7c0-2.6-0.4-5-1-7.3z" fill="#1890FF" p-id="3459"></path></svg>