<?xml version="1.0" standalone="no"?><!DOCTYPE svg PUBLIC "-//W3C//DTD SVG 1.1//EN" "http://www.w3.org/Graphics/SVG/1.1/DTD/svg11.dtd"><svg t="1629792593395" class="icon" viewBox="0 0 1024 1024" version="1.1" xmlns="http://www.w3.org/2000/svg" p-id="3197" xmlns:xlink="http://www.w3.org/1999/xlink" width="128" height="128"><defs><style type="text/css">@font-face { font-family: uc-nexus-iconfont; src: url("chrome-extension://pogijhnlcfmcppgimcaccdkmbedjkmhi/res/font_9qmmi8b8jsxxbt9.woff") format("woff"), url("chrome-extension://pogijhnlcfmcppgimcaccdkmbedjkmhi/res/font_9qmmi8b8jsxxbt9.ttf") format("truetype"); }
</style></defs><path d="M789.8 95.2h-555c-85 0-154.2 69.2-154.2 154.2v375.7c0 85 69.2 154.2 154.2 154.2h76.8c16 0 29-13 29-29s-13-29-29-29h-76.8c-53 0-96.2-43.2-96.2-96.2V249.4c0-53 43.1-96.2 96.2-96.2h555c53 0 96.2 43.2 96.2 96.2v375.7c0 53-43.2 96.2-96.2 96.2h-245c-28.3 0-55.8 11.7-75.4 32.2L317.8 912.2c-11.1 11.6-10.6 29.9 0.9 41 5.6 5.4 12.8 8 20 8 7.6 0 15.3-3 21-9l151.7-158.7c8.7-9.1 20.9-14.3 33.4-14.3h245c85 0 154.2-69.2 154.2-154.2V249.4c0-85-69.1-154.2-154.2-154.2z" fill="#191919" p-id="3198"></path><path d="M286.4 383.6h451.9c16 0 29-13 29-29s-13-29-29-29H286.4c-16 0-29 13-29 29s13 29 29 29z" fill="#191919" p-id="3199"></path><path d="M286.4 537.5h261.9c16 0 29-13 29-29s-13-29-29-29H286.4c-16 0-29 13-29 29s13 29 29 29z" fill="#1890FF" p-id="3200"></path></svg>