<?xml version="1.0" standalone="no"?><!DOCTYPE svg PUBLIC "-//W3C//DTD SVG 1.1//EN" "http://www.w3.org/Graphics/SVG/1.1/DTD/svg11.dtd"><svg t="1629792599418" class="icon" viewBox="0 0 1024 1024" version="1.1" xmlns="http://www.w3.org/2000/svg" p-id="3327" xmlns:xlink="http://www.w3.org/1999/xlink" width="128" height="128"><defs><style type="text/css">@font-face { font-family: uc-nexus-iconfont; src: url("chrome-extension://pogijhnlcfmcppgimcaccdkmbedjkmhi/res/font_9qmmi8b8jsxxbt9.woff") format("woff"), url("chrome-extension://pogijhnlcfmcppgimcaccdkmbedjkmhi/res/font_9qmmi8b8jsxxbt9.ttf") format("truetype"); }
</style></defs><path d="M891.7 134.1c-23.5-24.6-58.4-36.5-106.6-36.5l-398.3-0.3h-0.2c-77 0-149.5 30.1-203.9 84.8-54.5 54.7-84.5 127.4-84.5 204.8V613c0 16 13 29 29 29s29-13 29-29V386.9c0-61.9 24-120.1 67.6-163.9 43.5-43.7 101.4-67.7 162.9-67.7h0.2l398.4 0.3c31.5 0 52.7 6.1 64.7 18.6 11.7 12.2 17.4 33.1 17.4 64.1v400.1C867.4 766.1 764 870 636.9 870h-407c-30.1 0-49.6-5.1-59.6-15.6-9.5-10-14.1-29.2-14.1-58.5v-33.5c0-16-13-29-29-29s-29 13-29 29v33.5c0 28.6 3.1 69.9 29.9 98.3 21.8 23.1 54.1 33.8 101.7 33.8h407c77.1 0 149.5-30.1 204-84.9 54.5-54.7 84.4-127.4 84.4-204.8v-400c0-46.7-11-80.7-33.5-104.2z" fill="#191919" p-id="3328"></path><path d="M575.1 656.8V433.9l147.5 240.7c3.1 5 8.3 8.1 13.9 8.3 2.2 0.6 4.5 0.9 7 0.9 2.4 0 4.8-0.3 7-0.9 6.2-0.3 11.2-4 13.9-9 3.8-4.7 6.1-10.6 6.1-17.1V370.7c0-14.9-12.1-27-27-27s-27 12.1-27 27v206.8l-139-226.7c-3.2-5.2-8.6-8.3-14.5-8.3h-12.4c-2.7 0-5.2 0.6-7.4 1.7-12.6 2.3-22.1 13.3-22.1 26.5v286.1c0 14.9 12.1 27 27 27s27-12.1 27-27z" fill="#1890FF" p-id="3329"></path><path d="M461.3 392.9c13.3 0 24-10.8 24-24s-10.8-24-24-24H281c-8.7 0-16.3 4.6-20.5 11.5-3.5 4.5-5.6 10.3-5.6 16.4v279.6c0 5.8 1.8 11.2 4.9 15.6 4 7.5 12 12.7 21.2 12.7h180.3c13.3 0 24-10.8 24-24s-10.8-24-24-24H308.9v-99.8h152.4c13.3 0 24-10.8 24-24s-10.8-24-24-24H308.9V393l152.4-0.1z" fill="#191919" p-id="3330"></path></svg>