<?xml version="1.0" standalone="no"?><!DOCTYPE svg PUBLIC "-//W3C//DTD SVG 1.1//EN" "http://www.w3.org/Graphics/SVG/1.1/DTD/svg11.dtd"><svg class="icon" width="128px" height="128.00px" viewBox="0 0 1024 1024" version="1.1" xmlns="http://www.w3.org/2000/svg"><path d="M877.056 94.208H67.072v702.464h189.44c4.096 0 7.168 4.096 5.632 8.192L209.92 949.248c-2.048 5.12 3.584 10.24 8.704 7.168l302.592-155.648c4.608-2.56 9.728-4.096 15.36-4.096H957.44V94.208h-80.384zM252.928 283.136h305.664c22.016 0 39.936 17.92 39.936 39.936s-17.92 39.936-39.936 39.936H252.928c-22.016 0-39.936-17.92-39.936-39.936s17.92-39.936 39.936-39.936z m499.2 269.312H252.928c-22.016 0-39.936-17.92-39.936-39.936s17.92-39.936 39.936-39.936h499.2c22.016 0 39.936 17.92 39.936 39.936s-17.92 39.936-39.936 39.936z" /></svg>