<?xml version="1.0" standalone="no"?><!DOCTYPE svg PUBLIC "-//W3C//DTD SVG 1.1//EN" "http://www.w3.org/Graphics/SVG/1.1/DTD/svg11.dtd"><svg class="icon" width="128px" height="128.00px" viewBox="0 0 1024 1024" version="1.1" xmlns="http://www.w3.org/2000/svg"><path d="M671.232 186.88V95.744H345.6v102.912h325.632z"  /><path d="M879.616 140.8H788.48v141.824H238.08V140.8H68.608v786.432H958.464V140.8h-78.848z m-158.72 477.184c-2.048 1.536-3.584 3.072-6.144 4.096l-126.976 112.128c-12.8 11.264-33.28 11.264-46.08 0s-12.8-29.184 0-40.448l80.384-70.656H320.512c-16.384 0-30.208-13.312-30.208-30.208v-4.096c0-16.384 13.312-30.208 30.208-30.208h287.232l-66.048-58.368c-12.8-11.264-12.8-29.184 0-40.448s33.28-11.264 46.08 0l127.488 112.64c2.048 1.024 4.096 2.56 5.632 4.096 6.144 5.632 9.216 12.288 9.728 19.456 0 8.192-3.072 16.384-9.728 22.016z"  /></svg>