<?xml version="1.0" standalone="no"?><!DOCTYPE svg PUBLIC "-//W3C//DTD SVG 1.1//EN" "http://www.w3.org/Graphics/SVG/1.1/DTD/svg11.dtd"><svg t="1630576649857" class="icon" viewBox="0 0 1024 1024" version="1.1" xmlns="http://www.w3.org/2000/svg" p-id="5290" xmlns:xlink="http://www.w3.org/1999/xlink" width="128" height="128"><defs><style type="text/css">@font-face { font-family: uc-nexus-iconfont; src: url("chrome-extension://pogijhnlcfmcppgimcaccdkmbedjkmhi/res/font_9qmmi8b8jsxxbt9.woff") format("woff"), url("chrome-extension://pogijhnlcfmcppgimcaccdkmbedjkmhi/res/font_9qmmi8b8jsxxbt9.ttf") format("truetype"); }
</style></defs><path d="M790.016 82.432H235.008c-92.16 0-166.912 74.752-166.912 166.912v376.32c0 92.16 74.752 166.912 166.912 166.912h76.8c23.04 0 41.984-18.944 41.984-41.984s-18.944-41.984-41.984-41.984h-76.8c-46.08 0-83.456-37.376-83.456-83.456V249.344c0-46.08 37.376-83.456 83.456-83.456h555.52c46.08 0 83.456 37.376 83.456 83.456V624.64c0 46.08-37.376 83.456-83.456 83.456h-245.248c-31.744 0-62.464 13.312-84.48 36.352l-151.552 158.72c-15.872 16.384-15.36 43.008 1.024 58.88 7.68 7.68 17.92 11.776 28.672 11.776 11.264 0 22.016-4.608 30.208-12.8l151.552-158.72c6.144-6.656 14.848-10.24 24.064-10.24h245.248c92.16 0 166.912-74.752 166.912-166.912V249.344c0-92.16-74.752-166.912-166.912-166.912z" fill="#181818" p-id="5291"></path><path d="M780.288 354.304c0-23.04-18.944-41.984-41.984-41.984H286.208c-23.04 0-41.984 18.944-41.984 41.984s18.944 41.984 41.984 41.984h452.096c23.04 0 41.984-18.944 41.984-41.984z" fill="#181818" p-id="5292"></path><path d="M548.352 486.912H286.208c-23.04 0-41.984 18.944-41.984 41.984s18.944 41.984 41.984 41.984h262.144c23.04 0 41.984-18.944 41.984-41.984s-18.944-41.984-41.984-41.984z" fill="#1890FF" p-id="5293"></path></svg>