<?xml version="1.0" standalone="no"?><!DOCTYPE svg PUBLIC "-//W3C//DTD SVG 1.1//EN" "http://www.w3.org/Graphics/SVG/1.1/DTD/svg11.dtd"><svg t="1641807122061" class="icon" viewBox="0 0 1024 1024" version="1.1" xmlns="http://www.w3.org/2000/svg" p-id="5246" xmlns:xlink="http://www.w3.org/1999/xlink" width="128" height="128"><defs><style type="text/css"></style></defs><path d="M1001.6 413c-1.6-7.5-6-13.9-12.4-18.2-6.4-4.2-14.3-5.6-21.5-4.1-8.6 1.8-17.5 2.7-26.2 2.7-46.4 0-87.8-23.5-110.8-63.1-27.4-47.1-21.1-106.3 15.4-147.6 10.5-11.8 9.5-29.8-2.5-40.3C792.2 97 733.4 63.2 668.9 42c-15.1-4.9-31.3 3.1-36.4 18.1-17.6 52.2-66.3 87.3-121.1 87.3s-103.5-35.1-121.1-87.3c-5-14.9-21.2-23-36.4-18.1-64.5 21.2-123.3 55-174.7 100.4-11.9 10.5-12.9 28.4-2.5 40.3 36.6 41.3 42.8 100.5 15.4 147.6-22.9 39.5-64.4 63.1-110.8 63.1-8.7 0-17.6-0.9-26.2-2.7-7.5-1.6-15.3 0-21.5 4.1-6.2 4.2-10.8 10.7-12.4 18.2C14.4 445.8 11 479.5 11 513.2s3.3 67.4 10.2 100.2c1.6 7.5 6 13.9 12.4 18.1 6.4 4.2 14.3 5.6 21.5 4.1 8.6-1.8 17.5-2.7 26.2-2.7 46.4 0 87.8 23.5 110.8 63.1 27.4 47.1 21.2 106.3-15.4 147.6-10.5 11.8-9.5 29.9 2.5 40.3 51.4 45.4 110.2 79.2 174.7 100.4 3 0.9 6 1.5 9.1 1.5 12 0 23.3-7.6 27.3-19.5 17.6-52 66.4-87.1 121.1-87.1 54.8 0 103.5 35.1 121.1 87.3 5 14.9 21.3 23 36.4 18.1 64.5-21.2 123.3-55 174.7-100.4 11.9-10.5 12.9-28.4 2.5-40.3-36.6-41.3-42.8-100.5-15.4-147.6 22.9-39.5 64.4-63.1 110.8-63.1 8.7 0 17.6 0.9 26.2 2.7 7.4 1.6 15.3 0.1 21.5-4.1 6.2-4.2 10.8-10.6 12.4-18.1 6.8-32.8 10.2-66.6 10.2-100.2-0.1-34-3.5-67.7-10.2-100.5M511.3 695.2c-101.3 0-183.4-81.5-183.4-182.1s82.1-182 183.4-182 183.4 81.5 183.4 182.1c0.1 100.6-82 182-183.4 182" p-id="5247"></path></svg>