<?xml version="1.0" standalone="no"?><!DOCTYPE svg PUBLIC "-//W3C//DTD SVG 1.1//EN" "http://www.w3.org/Graphics/SVG/1.1/DTD/svg11.dtd"><svg t="1631513103013" class="icon" viewBox="0 0 1024 1024" version="1.1" xmlns="http://www.w3.org/2000/svg" p-id="5556" xmlns:xlink="http://www.w3.org/1999/xlink" width="128" height="128"><defs><style type="text/css">@font-face { font-family: uc-nexus-iconfont; src: url("chrome-extension://pogijhnlcfmcppgimcaccdkmbedjkmhi/res/font_9qmmi8b8jsxxbt9.woff") format("woff"), url("chrome-extension://pogijhnlcfmcppgimcaccdkmbedjkmhi/res/font_9qmmi8b8jsxxbt9.ttf") format("truetype"); }
</style></defs><path d="M341.3 469h342.4c18.8 0 34-15.2 34-34s-15.2-34-34-34H341.3c-18.8 0-34 15.2-34 34s15.2 34 34 34zM341.3 649.3h227.4c18.8 0 34-15.2 34-34s-15.2-34-34-34H341.3c-18.8 0-34 15.2-34 34s15.2 34 34 34z" fill="#181818" p-id="5557"></path><path d="M767 187h-81.3c-11.3-29.4-30.2-55.7-54.8-76-32.8-27-74.3-41.9-116.9-41.9S429.9 84 397.1 111c-24.6 20.2-43.4 46.6-54.8 76H258c-75 0-136 61-136 136v494.9c0 75 61 136 136 136h299.3c19.9 0 36-16.1 36-36s-16.1-36-36-36H258c-35.3 0-64-28.7-64-64V323c0-35.3 28.7-64 64-64h140.5l5.9-28.7c10.7-51.7 56.8-89.2 109.6-89.2 52.9 0 99 37.5 109.6 89.2l5.9 28.7H767c35.3 0 64 28.7 64 64v306.1c0 19.9 16.1 36 36 36s36-16.1 36-36V323c0-75-61-136-136-136z" fill="#181818" p-id="5558"></path><path d="M790.9 692c-12.1-12.1-31.8-12-43.8 0.1-12.1 12.1-12 31.8 0.1 43.8l53 52.7h-169c-18.2 0-32.9 13.9-32.9 31s14.7 31 32.9 31h174l-51 53.4c-11.8 12.4-11.4 32 1 43.8 6 5.7 13.7 8.6 21.4 8.6 8.2 0 16.3-3.2 22.4-9.6l92.3-96.5c15.7-16.5 15.4-42.9-0.7-59L790.9 692z" fill="#1890FF" p-id="5559"></path></svg>