<?xml version="1.0" standalone="no"?><!DOCTYPE svg PUBLIC "-//W3C//DTD SVG 1.1//EN" "http://www.w3.org/Graphics/SVG/1.1/DTD/svg11.dtd"><svg class="icon" width="128px" height="128.00px" viewBox="0 0 1024 1024" version="1.1" xmlns="http://www.w3.org/2000/svg"><path d="M832 99.84H72.192V926.72h94.208c8.192 2.048 16.896 2.56 25.6 2.56h759.808v-829.44h-119.808zM457.728 491.008c15.36 0 28.16 12.8 28.16 28.16s-12.288 28.16-28.16 28.16H308.224v91.648h149.504c15.36 0 28.16 12.288 28.16 28.16s-12.288 28.16-28.16 28.16H277.504c-13.312 0-24.576-9.728-27.648-22.528-1.024-3.072-1.536-6.656-1.536-9.728V382.976c0-3.584 0.512-7.168 2.048-10.24 3.072-12.288 13.824-21.504 27.136-21.504h180.224c15.36 0 28.16 12.288 28.16 28.16s-12.288 28.16-28.16 28.16H308.224V491.52h149.504z m290.304 206.336c-3.072 1.536-6.656 2.048-10.24 2.048-9.216 0-17.92-4.608-23.04-12.8l-130.048-215.04v196.096c0 16.384-13.312 30.208-30.208 30.208s-30.208-13.312-30.208-30.208v-286.72c0-16.384 13.312-30.208 30.208-30.208 4.608 0 9.216 1.024 13.312 3.072 6.656 1.536 12.8 6.144 16.384 12.288l131.584 217.088V380.928c0-16.384 13.312-30.208 30.208-30.208s30.208 13.312 30.208 30.208v286.208c-0.512 15.872-12.8 29.184-28.16 30.208z" /></svg>