<?xml version="1.0" standalone="no"?><!DOCTYPE svg PUBLIC "-//W3C//DTD SVG 1.1//EN" "http://www.w3.org/Graphics/SVG/1.1/DTD/svg11.dtd"><svg t="1629792588166" class="icon" viewBox="0 0 1024 1024" version="1.1" xmlns="http://www.w3.org/2000/svg" p-id="3064" xmlns:xlink="http://www.w3.org/1999/xlink" width="128" height="128"><defs><style type="text/css">@font-face { font-family: uc-nexus-iconfont; src: url("chrome-extension://pogijhnlcfmcppgimcaccdkmbedjkmhi/res/font_9qmmi8b8jsxxbt9.woff") format("woff"), url("chrome-extension://pogijhnlcfmcppgimcaccdkmbedjkmhi/res/font_9qmmi8b8jsxxbt9.ttf") format("truetype"); }
</style></defs><path d="M202 351.1h622.9c49.7 0 90-40.3 90-90v-47.2c0-49.7-40.3-90-90-90H202c-49.7 0-90 40.3-90 90v47.2c0 49.7 40.3 90 90 90z m-42-137.2c0-23.2 18.8-42 42-42h622.9c23.2 0 42 18.8 42 42v47.2c0 23.2-18.8 42-42 42H202c-23.2 0-42-18.8-42-42v-47.2z" fill="#191919" p-id="3065"></path><path d="M231.5 237.5m-28.7 0a28.7 28.7 0 1 0 57.4 0 28.7 28.7 0 1 0-57.4 0Z" fill="#1890FF" p-id="3066"></path><path d="M202 603.7h622.9c49.7 0 90-40.3 90-90v-47.2c0-49.7-40.3-90-90-90H202c-49.7 0-90 40.3-90 90v47.2c0 49.7 40.3 90 90 90z m-42-137.2c0-23.2 18.8-42 42-42h622.9c23.2 0 42 18.8 42 42v47.2c0 23.2-18.8 42-42 42H202c-23.2 0-42-18.8-42-42v-47.2z" fill="#191919" p-id="3067"></path><path d="M202.3 489.1a28.7 28.7 0 1 0 57.4 0 28.7 28.7 0 1 0-57.4 0Z" fill="#1890FF" p-id="3068"></path><path d="M231 733.1m-28.7 0a28.7 28.7 0 1 0 57.4 0 28.7 28.7 0 1 0-57.4 0Z" fill="#1890FF" p-id="3069"></path><path d="M827.9 624.4H199c-48.1 0-87 35.1-87 78.4v119.8c0 43.3 38.9 78.4 87 78.4h628.9c25.9 0 49.2-10.2 65.1-26.4 13.8-14.1 2.8-36.3-18.1-36.3-7 0-13.5 2.7-18.2 7.4-7.1 7.2-17.4 11.7-28.9 11.7H199c-21.4 0-38.7-15.6-38.7-34.9V702.8c0-19.3 17.3-34.9 38.7-34.9h628.9c21.4 0 38.7 15.6 38.7 34.9v33.5c0 12 10.8 21.8 24.2 21.8s24.2-9.8 24.2-21.8v-33.5c-0.1-43.3-39-78.4-87.1-78.4z" fill="#191919" p-id="3070"></path></svg>