<?xml version="1.0" standalone="no"?><!DOCTYPE svg PUBLIC "-//W3C//DTD SVG 1.1//EN" "http://www.w3.org/Graphics/SVG/1.1/DTD/svg11.dtd"><svg t="1631513112181" class="icon" viewBox="0 0 1024 1024" version="1.1" xmlns="http://www.w3.org/2000/svg" p-id="5686" xmlns:xlink="http://www.w3.org/1999/xlink" width="128" height="128"><defs><style type="text/css">@font-face { font-family: uc-nexus-iconfont; src: url("chrome-extension://pogijhnlcfmcppgimcaccdkmbedjkmhi/res/font_9qmmi8b8jsxxbt9.woff") format("woff"), url("chrome-extension://pogijhnlcfmcppgimcaccdkmbedjkmhi/res/font_9qmmi8b8jsxxbt9.ttf") format("truetype"); }
</style></defs><path d="M682.6 380.4h-342c-18.8 0-34 15.2-34 34s15.2 34 34 34h342c18.8 0 34-15.2 34-34s-15.2-34-34-34zM682.6 540.6h-342c-18.8 0-34 15.2-34 34s15.2 34 34 34h342c18.8 0 34-15.2 34-34s-15.2-34-34-34z" fill="#181818" p-id="5687"></path><path d="M682.6 700.8h-342c-18.8 0-34 15.2-34 34s15.2 34 34 34h342c18.8 0 34-15.2 34-34s-15.2-34-34-34z" fill="#1890FF" p-id="5688"></path><path d="M866.1 487.9c19.9 0 36-16.1 36-36V323.5c0-75-61-136-136-136h-81.3c-11.3-29.4-30.2-55.7-54.8-76-32.8-27-74.3-41.9-116.9-41.9S429 84.5 396.2 111.5c-24.6 20.2-43.4 46.6-54.8 76h-84.3c-75 0-136 61-136 136v494.9c0 75 61 136 136 136h509c75 0 136-61 136-136V605.8c0-19.9-16.1-36-36-36s-36 16.1-36 36v212.5c0 35.3-28.7 64-64 64h-509c-35.3 0-64-28.7-64-64V323.5c0-35.3 28.7-64 64-64h140.5l5.9-28.7c10.7-51.7 56.8-89.2 109.6-89.2 52.9 0 99 37.5 109.6 89.2l5.9 28.7h137.5c35.3 0 64 28.7 64 64v128.4c0 19.8 16.2 36 36 36z" fill="#181818" p-id="5689"></path></svg>