<svg t="1639988420099" class="icon" viewBox="0 0 1024 1024" version="1.1" xmlns="http://www.w3.org/2000/svg" p-id="8103" xmlns:xlink="http://www.w3.org/1999/xlink" width="128" height="128"><path d="M928.4 99.2h-831c-22.4 0-40.6 18.2-40.6 40.6v21.4c0 22.4 18.2 40.6 40.6 40.6h28.2V517h782.3V201.9h20.5c22.4 0 40.6-18.2 40.6-40.6v-21.4c0-22.5-18.2-40.7-40.6-40.7z m-242 320c0 7.3-5.9 13.2-13.2 13.2H347.7c-7.3 0-13.2-5.9-13.2-13.2V315.8c0-7.3 5.9-13.2 13.2-13.2h325.5c7.3 0 13.2 5.9 13.2 13.2v103.4zM125.6 847.6c0 44.9 36.4 81.2 81.2 81.2h619.9c44.9 0 81.2-36.4 81.2-81.2V600.8H125.6v246.8z m209-158.5c0-6.9 5.6-12.5 12.5-12.5h326.8c6.9 0 12.5 5.6 12.5 12.5v94.6c0 6.9-5.6 12.5-12.5 12.5H347.1c-6.9 0-12.5-5.6-12.5-12.5v-94.6z" p-id="8104"></path></svg>