<?xml version="1.0" standalone="no"?><!DOCTYPE svg PUBLIC "-//W3C//DTD SVG 1.1//EN" "http://www.w3.org/Graphics/SVG/1.1/DTD/svg11.dtd"><svg t="1641807204880" class="icon" viewBox="0 0 1024 1024" version="1.1" xmlns="http://www.w3.org/2000/svg" p-id="5544" xmlns:xlink="http://www.w3.org/1999/xlink" width="128" height="128"><defs><style type="text/css"></style></defs><path d="M620.2 847.5c78.4-35.7 167.9-39 248.8-9.1l104.7 38.7-28.9 76.1-104.7-38.7c-62.6-23.2-132.2-19.6-192 9.9l-8.7 4.1c-78.7 35.8-169.3 36.4-248.5 1.6l-11.4-5c-68.3-29.9-146.2-30.4-214.9-1.4l-67.9 28.7-32.5-74.7 67.9-28.7c89.8-38 191.6-37.3 280.8 1.8l11.4 5c59.8 26.2 128.4 24.7 186.9-4.2l9-4.1zM600.5 73.4c45.5 0 82.4 36.4 82.4 81.2v81.2h82.4c45.5 0 82.4 36.4 82.4 81.3v203.1l36.9 13.7c40.9 15.1 62.7 59.2 49.7 100.3L902.5 734c-5.9 18.8-14.1 36.8-24.4 53.6l-9.1-3.4c-80.8-29.9-170.4-26.6-248.8 9.1l-9 4.3c-58.5 28.9-127.1 30.4-186.9 4.2l-11.4-5c-80.9-35.5-172.4-39.5-256.1-11.2-9.7-16.3-17.5-33.6-23.2-51.6l-31.7-99.8c-13-41.1 8.8-85.2 49.7-100.3l36.9-13.7V317.1c0-44.9 36.9-81.3 82.4-81.3h82.4v-81.2c0-44.9 36.9-81.2 82.4-81.2h164.8z m164.7 243.7H270.9v172.6l247.2-91.4 247.2 91.4V317.1zM600.5 154.7H435.7v81.2h164.8v-81.2z m0 0" p-id="5545"></path></svg>