<svg class="icon" width="128px" height="128.00px" viewBox="0 0 1024 1024" version="1.1" xmlns="http://www.w3.org/2000/svg"><path d="M848 86.2H178c-44.2 0-80 35.8-80 80v543c0 44.2 35.8 80 80 80h79.5c4.2 0 7.1 4.1 5.6 8.1l-52.5 144.2c-1.9 5.2 3.8 10 8.6 7.3L492 793.4c4.6-2.7 9.9-4.2 15.3-4.2H848c44.2 0 80-35.8 80-80v-543c0-44.2-35.8-80-80-80zM253.6 275h285.6c22.1 0 40 17.9 40 40s-17.9 40-40 40H253.6c-22.1 0-40-17.9-40-40s17.9-40 40-40z m479.3 269.5H253.6c-22.1 0-40-17.9-40-40s17.9-40 40-40h479.2c22.1 0 40 17.9 40 40 0.1 22.1-17.8 40-39.9 40z" /></svg>