<svg t="1638180302161" class="icon" viewBox="0 0 1024 1024" version="1.1" xmlns="http://www.w3.org/2000/svg" p-id="4124" xmlns:xlink="http://www.w3.org/1999/xlink" width="128" height="128"><path d="M228 739.1h568.1c55.2 0 100-44.8 100-100V216.9c0-55.2-44.8-100-100-100H228c-55.2 0-100 44.8-100 100v422.3c0 55.1 44.8 99.9 100 99.9z m-10-522.2c0-5.5 4.5-10 10-10h568.1c5.5 0 10 4.5 10 10v422.3c0 5.5-4.5 10-10 10H228c-5.5 0-10-4.5-10-10V216.9zM913.6 819.7H110.9c-25.8 0-46.7 20.9-46.7 46.7 0 25.8 20.9 46.7 46.7 46.7h802.7c25.8 0 46.7-20.9 46.7-46.7 0.1-25.8-20.9-46.7-46.7-46.7z" p-id="4125"></path></svg>