<?xml version="1.0" standalone="no"?><!DOCTYPE svg PUBLIC "-//W3C//DTD SVG 1.1//EN" "http://www.w3.org/Graphics/SVG/1.1/DTD/svg11.dtd"><svg t="1639993669146" class="icon" viewBox="0 0 1024 1024" version="1.1" xmlns="http://www.w3.org/2000/svg" p-id="5138" xmlns:xlink="http://www.w3.org/1999/xlink" width="128" height="128"><defs><style type="text/css"></style></defs><path d="M868.7 232.2L576.3 63.4c-39-22.5-87.1-22.5-126.1 0L157.9 232.2c-39 22.5-63 64.2-63 109.2v337.5c0 45.1 24 86.7 63 109.2l292.3 168.8c39 22.5 87.1 22.5 126.1 0l292.3-168.8c39-22.5 63-64.2 63-109.2V341.4c0.1-45.1-23.9-86.7-62.9-109.2zM511.4 722.7c-118.5 0-214.5-96-214.5-214.5s96-214.5 214.5-214.5 214.5 96 214.5 214.5-96 214.5-214.5 214.5z m0 0" p-id="5139"></path><path d="M391.5 508.2c0 67.2 54.5 121.8 121.8 121.8s121.8-54.5 121.8-121.8c0-67.2-54.5-121.8-121.8-121.8-67.3 0.1-121.8 54.6-121.8 121.8z m0 0" p-id="5140"></path></svg>