<svg t="1638180314106" class="icon" viewBox="0 0 1024 1024" version="1.1" xmlns="http://www.w3.org/2000/svg" p-id="4382" xmlns:xlink="http://www.w3.org/1999/xlink" width="128" height="128"><path d="M872.2 245.6L572.1 72.3c-17.8-10.3-38.2-15.8-58.9-15.8-20.5 0-40.9 5.4-58.9 15.8L154.2 245.6c-36.3 21-58.8 60.1-58.8 101.9v329.6c0 41.8 22.5 80.9 58.9 101.9l300.1 173.3c17.9 10.3 38.3 15.8 58.8 15.8s40.9-5.4 58.9-15.8L872.2 779c36.3-21 58.8-60.1 58.8-101.9V347.5c0-41.8-22.5-80.9-58.8-101.9z m-41 101.9v329.6c0 6.4-3.4 12.3-8.9 15.5L522.1 865.9c-2.6 1.5-5.7 2.3-8.9 2.3-3.1 0-6.2-0.8-9-2.4l-300-173.2c-5.5-3.2-8.9-9.1-8.9-15.5V347.5c0-6.4 3.4-12.3 8.9-15.5l300.2-173.3c2.6-1.5 5.7-2.3 8.9-2.3 3.1 0 6.2 0.8 9 2.4l300 173.2c5.5 3.2 8.9 9.1 8.9 15.5z" p-id="4383"></path><path d="M611.9 317l-98.7 152.4L414.5 317h-92.9l123.8 191.2h-92.1v63.5h118.8v36.7H353.3V672h118.8v81.7h80.8V672h118.6v-63.6H552.9v-36.7h118.6v-63.5H581L704.8 317z" p-id="4384"></path></svg>