<svg class="icon" width="128px" height="128.00px" viewBox="0 0 1024 1024" version="1.1" xmlns="http://www.w3.org/2000/svg"><path d="M891 94.5H135c-22.4 0-40.6 18.2-40.6 40.6v21.4c0 22.4 18.2 40.6 40.6 40.6h28.2v315.2h707.3V197.2H891c22.4 0 40.6-18.2 40.6-40.6v-21.4c0-22.5-18.2-40.7-40.6-40.7z m-211 320c0 7.3-5.9 13.2-13.2 13.2H361.4c-7.3 0-13.2-5.9-13.2-13.2V311c0-7.3 5.9-13.2 13.2-13.2h305.5c7.3 0 13.2 5.9 13.2 13.2v103.5zM163.2 849.9c0 44.9 36.4 81.2 81.2 81.2h544.9c44.9 0 81.2-36.4 81.2-81.2V596.1H163.2v253.8z m185-165.5c0-6.9 5.6-12.5 12.5-12.5h306.8c6.9 0 12.5 5.6 12.5 12.5V779c0 6.9-5.6 12.5-12.5 12.5H360.7c-6.9 0-12.5-5.6-12.5-12.5v-94.6z" /></svg>