<svg class="icon" width="128px" height="128.00px" viewBox="0 0 1024 1024" version="1.1" xmlns="http://www.w3.org/2000/svg"><path d="M502.4 64c-126.2 0-228.7 100.3-228.7 224.1s102.5 224.1 228.7 224.1c126.3 0 228.8-100.3 228.8-224.1S628.8 64 502.4 64z m0 0c-126.2 0-228.7 100.3-228.7 224.1s102.5 224.1 228.7 224.1c126.3 0 228.8-100.3 228.8-224.1S628.8 64 502.4 64z m-98.6 522.9c-163.2 0-295.5 129.6-295.5 289.4V895c0 65.4 132.3 65.4 295.5 65.4h216.7c163.1 0 295.4-2.4 295.4-65.4v-18.6c0-159.8-132.3-289.4-295.4-289.4H403.8z m0 0" /></svg>