<?xml version="1.0" standalone="no"?><!DOCTYPE svg PUBLIC "-//W3C//DTD SVG 1.1//EN" "http://www.w3.org/Graphics/SVG/1.1/DTD/svg11.dtd"><svg class="icon" width="128px" height="128.00px" viewBox="0 0 1024 1024" version="1.1" xmlns="http://www.w3.org/2000/svg"><path d="M879.3 309.1c-8.3 8.3-24.9 8.3-36 0l-83-83c-8.3-8.3-8.3-24.9 0-36l66.4-60.9h-727v770H945.8V245.4l-66.5 63.7zM558.4 630c-2.8 2.8-5.5 2.8-8.3 5.5l-149.4 66.4c-22.1 8.3-41.5-11.1-33.2-33.2l66.4-149.4c0-2.8 2.8-5.5 5.5-8.3l257.3-254.5c11.1-11.1 24.9-11.1 36 0l83 83c8.3 11.1 8.3 24.9 0 36L558.4 630z" /></svg>