<?xml version="1.0" standalone="no"?><!DOCTYPE svg PUBLIC "-//W3C//DTD SVG 1.1//EN" "http://www.w3.org/Graphics/SVG/1.1/DTD/svg11.dtd"><svg t="1629792569487" class="icon" viewBox="0 0 1024 1024" version="1.1" xmlns="http://www.w3.org/2000/svg" p-id="2676" xmlns:xlink="http://www.w3.org/1999/xlink" width="128" height="128"><defs><style type="text/css">@font-face { font-family: uc-nexus-iconfont; src: url("chrome-extension://pogijhnlcfmcppgimcaccdkmbedjkmhi/res/font_9qmmi8b8jsxxbt9.woff") format("woff"), url("chrome-extension://pogijhnlcfmcppgimcaccdkmbedjkmhi/res/font_9qmmi8b8jsxxbt9.ttf") format("truetype"); }
</style></defs><path d="M776.5 114.6H250.1c-82.2 0-149 66.8-149 149v377c0 82.2 66.8 149 149 149h305.6c16 0 29-13 29-29s-13-29-29-29H250.1c-50.2 0-91-40.8-91-91v-377c0-50.2 40.8-91 91-91h526.4c50.2 0 91 40.8 91 91v262.7c0 16 13 29 29 29s29-13 29-29V263.6c0-82.1-66.8-149-149-149zM555.8 852.1H241.2c-16 0-29 13-29 29s13 29 29 29h314.6c16 0 29-13 29-29s-13-29-29-29z" fill="#191919" p-id="2677"></path><path d="M763.8 749.6c52.4 0 94.8-42.4 94.8-94.8S816.1 560 763.8 560 669 602.4 669 654.8s42.4 94.8 94.8 94.8z m0-147.6c29.1 0 52.8 23.7 52.8 52.8s-23.7 52.8-52.8 52.8-52.8-23.7-52.8-52.8 23.7-52.8 52.8-52.8zM856.2 776.3H671.4c-37.4 0-67.7 30.3-67.7 67.7s30.3 67.7 67.7 67.7h184.8c37.4 0 67.7-30.3 67.7-67.7s-30.3-67.7-67.7-67.7z m0 93.4H671.4c-14.2 0-25.7-11.5-25.7-25.7s11.5-25.7 25.7-25.7h184.8c14.2 0 25.7 11.5 25.7 25.7s-11.5 25.7-25.7 25.7z" fill="#1890FF" p-id="2678"></path></svg>