<svg t="1639988425625" class="icon" viewBox="0 0 1024 1024" version="1.1" xmlns="http://www.w3.org/2000/svg" p-id="8230" xmlns:xlink="http://www.w3.org/1999/xlink" width="128" height="128"><path d="M821.6 835.1c22.7 5.4 38.5 24.3 38.5 46s-15.9 40.6-38.5 46H204c-22.7-5.4-38.6-24.3-38.6-46s15.9-40.6 38.6-45.9l617.6-0.1zM885 100.2c41.1 0 74.5 30.8 74.5 68.9v516.7c0 18.3-7.9 35.8-21.9 48.7-14 12.9-32.9 20.1-52.7 20.1H140.6c-41.1 0-74.4-30.8-74.4-68.8V169.1c0-38 33.3-68.9 74.4-69l744.4 0.1zM747.1 320.3c-14.8-3.7-30.6 0.2-41.4 10.2L589.1 438.4 472.6 330.5l-4.1-3.3-5-3c-13.9-7.3-31-6.9-44.5 1.1l-3.9 2.6 0.8-0.3-4.3 2.2c-2.8 1.6-5.4 3.5-7.7 5.7l-144.7 134-3.6 3.7c-13.2 15.8-11.7 38.2 3.6 52.3l4.1 3.3 4.3 2.7c16.8 9.3 38.3 6.8 52.2-6L441 413.3l115.8 107.2 4.7 3.7c6.6 4.6 14.5 7.3 22.8 7.8h10.1c10.2-0.7 19.8-4.8 27.1-11.6l144.7-134 3.8-4c8.7-10.5 11.2-24.4 6.6-36.9-4.6-12.6-15.7-22.2-29.5-25.6v0.4z m0 0" p-id="8231"></path></svg>