<?xml version="1.0" standalone="no"?><!DOCTYPE svg PUBLIC "-//W3C//DTD SVG 1.1//EN" "http://www.w3.org/Graphics/SVG/1.1/DTD/svg11.dtd"><svg t="1639993665596" class="icon" viewBox="0 0 1024 1024" version="1.1" xmlns="http://www.w3.org/2000/svg" p-id="5011" xmlns:xlink="http://www.w3.org/1999/xlink" width="128" height="128"><defs><style type="text/css"></style></defs><path d="M501.6 70.2c-126.2 0-228.7 100.3-228.7 224.1s102.5 224.1 228.7 224.1c126.3 0 228.8-100.3 228.8-224.1-0.1-123.8-102.5-224.1-228.8-224.1z m0 0c-126.2 0-228.7 100.3-228.7 224.1s102.5 224.1 228.7 224.1c126.3 0 228.8-100.3 228.8-224.1-0.1-123.8-102.5-224.1-228.8-224.1zM360.9 582C197.7 582 65.4 711.7 65.4 871.5v18.6c0 65.4 132.3 65.4 295.5 65.4h300.6c163.1 0 295.4-2.4 295.4-65.4v-18.6c0-159.8-132.3-289.4-295.4-289.4H360.9z m0 0" p-id="5012"></path></svg>