<?xml version="1.0" standalone="no"?><!DOCTYPE svg PUBLIC "-//W3C//DTD SVG 1.1//EN" "http://www.w3.org/Graphics/SVG/1.1/DTD/svg11.dtd"><svg t="1630576690207" class="icon" viewBox="0 0 1024 1024" version="1.1" xmlns="http://www.w3.org/2000/svg" p-id="6335" xmlns:xlink="http://www.w3.org/1999/xlink" width="128" height="128"><defs><style type="text/css">@font-face { font-family: uc-nexus-iconfont; src: url("chrome-extension://pogijhnlcfmcppgimcaccdkmbedjkmhi/res/font_9qmmi8b8jsxxbt9.woff") format("woff"), url("chrome-extension://pogijhnlcfmcppgimcaccdkmbedjkmhi/res/font_9qmmi8b8jsxxbt9.ttf") format("truetype"); }
</style></defs><path d="M302.08 406.016l-3.584-2.56c-15.872-9.728-36.864-5.632-47.104 10.24-2.56 4.096-5.12 8.192-7.168 11.776-9.216 15.872-20.48 42.496-19.968 79.872 0.512 18.432 15.872 33.28 34.304 33.28h1.024c18.432-0.512 33.28-15.872 33.28-34.816V496.64c0-5.632 1.024-10.24 2.048-14.848 2.56-10.752 7.168-20.992 13.824-30.72 5.12-7.68 6.656-16.896 5.12-25.6-1.536-7.68-5.632-14.336-11.776-19.456zM529.408 261.12c-2.56-18.944-19.456-31.744-37.888-29.696-2.048 0-4.096 0.512-6.144 1.024-34.816 0-120.32 11.776-187.392 109.056-5.12 6.656-7.168 15.36-5.632 24.064 1.536 9.216 6.656 17.92 14.336 23.04 6.144 3.584 12.8 5.632 19.456 5.632 11.264 0 22.016-5.12 28.16-13.824 3.072-4.096 6.144-8.192 8.704-11.264l2.048-2.048c4.096-4.096 10.24-10.24 19.968-18.432 31.744-27.136 70.656-43.52 114.688-49.152 9.216-1.024 17.408-5.632 23.04-12.8s7.68-16.384 6.656-25.6z" fill="#1890FF" p-id="6336"></path><path d="M1014.272 485.888c-7.68-48.128-60.416-78.336-107.008-91.136v-2.048l-7.168-1.536-0.512-0.512c-13.312-18.944-39.424-23.552-58.368-10.24l-2.048 1.536c-15.872 11.776-20.992 33.28-12.8 51.2 6.144 24.064 9.216 50.176 9.216 76.8 0 10.24 0 19.456-1.024 27.648h-0.512c-53.76 23.552-147.456 57.344-287.744 84.992-151.04 29.696-263.68 23.552-331.264 12.8-6.656-1.024-12.288-2.048-18.432-3.072-15.872-39.424-23.552-80.384-23.552-122.368 0-44.544 8.704-88.064 26.112-128.512 17.408-39.936 40.96-75.264 71.168-104.96 30.72-30.72 66.56-54.784 104.96-71.68 40.96-17.408 84.48-26.112 128.512-26.112 44.544 0 88.064 8.704 128.512 26.112 39.936 17.408 75.264 40.96 104.96 71.168 14.848 14.848 27.136 29.184 36.864 44.032 0.512 1.024 0.512 1.536 1.024 2.048 0 0.512 0.512 1.024 0.512 1.024l7.68 10.752c6.656 9.216 16.384 15.36 27.136 17.408 10.752 1.536 22.016-1.024 31.232-7.168l2.048-1.536c16.384-12.288 21.504-34.816 12.288-52.736l-2.56-4.096c-77.312-119.808-207.872-191.488-350.208-191.488C273.92 94.208 87.04 281.088 87.04 510.464v14.336c-8.192 4.096-18.432 9.216-28.16 15.872-14.336 9.216-25.088 18.432-32.256 28.16-19.456 25.088-17.408 48.128-14.336 59.392 4.096 13.824 14.336 34.816 61.44 56.32 18.944 8.704 39.936 15.872 62.976 22.016 72.704 135.68 212.992 219.648 367.104 219.648 197.632 0 367.616-138.752 407.04-330.752 28.16-14.848 48.64-27.136 63.488-38.912 37.888-27.136 42.496-53.248 39.936-70.656zM114.176 622.08l-22.528-10.752c-1.536-0.512-2.048-2.56-0.512-3.584l16.384-11.264c1.024-1.024 3.072-0.512 3.584 1.024l5.632 22.528c0.512 1.536-1.024 2.56-2.56 2.048z m624.128 121.856a334.1312 334.1312 0 0 1-104.96 71.168c-40.96 17.408-84.48 26.112-128.512 26.112-44.544 0-88.064-8.704-128.512-26.112-39.936-17.408-75.264-40.96-104.96-71.168-6.144-5.632-11.264-11.776-16.896-17.92 25.6 2.56 53.248 3.584 81.92 3.584 71.168 0 147.456-7.68 226.816-23.04 91.136-17.92 174.08-40.96 246.784-67.584-17.92 40.448-41.472 74.752-71.68 104.96zM934.4 496.64l-22.528 15.872c-1.536 1.536-4.608 0-4.608-2.56l-1.024-35.84c0-2.56 3.072-4.608 5.12-3.072l23.04 17.92c2.56 2.048 2.56 5.632 0 7.68z" fill="#191919" p-id="6337"></path></svg>