<?xml version="1.0" standalone="no"?><!DOCTYPE svg PUBLIC "-//W3C//DTD SVG 1.1//EN" "http://www.w3.org/Graphics/SVG/1.1/DTD/svg11.dtd"><svg class="icon" width="128px" height="128.00px" viewBox="0 0 1024 1024" version="1.1" xmlns="http://www.w3.org/2000/svg"><path d="M859.136 879.104v-44.032H164.864v92.16h694.272v-44.032-2.048-2.048zM958.464 169.472V100.352H65.024V754.688h892.928v-67.072V169.472zM336.896 604.16c0 25.088-19.968 45.056-45.056 45.056s-45.056-19.968-45.056-45.056V408.064c0-25.088 19.968-45.056 45.056-45.056s45.056 19.968 45.056 45.056V604.16z m220.672 0c0 25.088-19.968 45.056-45.056 45.056s-45.056-19.968-45.056-45.056V247.808c0-25.088 19.968-45.056 45.056-45.056s45.056 19.968 45.056 45.056V604.16z m220.672 0c0 25.088-19.968 45.056-45.056 45.056s-45.056-19.968-45.056-45.056V345.088c0-25.088 19.968-45.056 45.056-45.056s45.056 19.968 45.056 45.056V604.16z" /></svg>