<?xml version="1.0" standalone="no"?><!DOCTYPE svg PUBLIC "-//W3C//DTD SVG 1.1//EN" "http://www.w3.org/Graphics/SVG/1.1/DTD/svg11.dtd"><svg t="1630576660018" class="icon" viewBox="0 0 1024 1024" version="1.1" xmlns="http://www.w3.org/2000/svg" p-id="5551" xmlns:xlink="http://www.w3.org/1999/xlink" width="128" height="128"><defs><style type="text/css">@font-face { font-family: uc-nexus-iconfont; src: url("chrome-extension://pogijhnlcfmcppgimcaccdkmbedjkmhi/res/font_9qmmi8b8jsxxbt9.woff") format("woff"), url("chrome-extension://pogijhnlcfmcppgimcaccdkmbedjkmhi/res/font_9qmmi8b8jsxxbt9.ttf") format("truetype"); }
</style></defs><path d="M732.16 346.624c-16.896 0-30.72 13.824-30.72 30.72v178.176l-122.88-200.192c-3.584-6.144-10.752-10.24-17.92-10.24h-11.776c-3.072 0-6.144 1.024-8.704 2.048-14.336 3.072-24.576 15.36-24.576 30.208v272.384c0 16.896 13.824 30.72 30.72 30.72s30.72-13.824 30.72-30.72V455.68l130.56 213.504c4.096 6.144 10.24 9.728 16.896 10.24 2.56 0.512 5.12 1.024 7.68 1.024s5.12 0 7.168-1.024c7.168-0.512 13.312-4.608 16.896-10.752 4.608-5.12 6.656-11.776 6.656-18.944V377.344c0-16.896-13.824-30.72-30.72-30.72z" fill="#1890FF" p-id="5552"></path><path d="M905.728 125.44c-26.112-27.136-64-40.448-115.712-40.448l-408.576-0.512c-80.384 0-156.16 31.232-213.504 88.576-56.832 57.344-88.064 133.12-88.064 214.016v226.304c0 23.04 18.944 41.984 41.984 41.984s41.984-18.944 41.984-41.984V387.072c0-58.88 22.528-113.664 64.512-155.648 40.96-41.472 95.744-64 154.112-64l408.576 0.512c27.136 0 46.08 5.12 55.296 14.848 9.216 9.728 13.824 28.16 13.824 55.296v400.896c0 120.32-97.792 218.624-217.6 218.624H225.28c-32.256 0-45.056-6.656-50.176-11.776s-10.752-17.92-10.752-49.664V762.88c0-23.04-18.944-41.984-41.984-41.984s-41.984 18.944-41.984 41.984v33.28c0 30.72 3.584 75.264 33.28 107.008 24.576 26.112 59.904 37.888 111.104 37.888h417.28c80.384 0 156.16-31.744 212.48-88.576 56.832-57.344 88.064-133.12 88.064-214.016V238.592c0-50.176-11.776-87.04-36.864-113.152z" fill="#191919" p-id="5553"></path><path d="M463.36 404.48c15.872 0 28.16-12.8 28.16-28.16S478.72 348.16 463.36 348.16H291.84c-9.728 0-18.432 5.12-23.552 13.312-4.096 5.12-6.144 11.776-6.144 18.432v266.24c0 6.144 2.048 12.288 5.632 17.408 5.12 8.704 14.336 14.336 24.576 14.336h171.52c15.36 0 27.648-12.8 28.16-27.136 0-15.36-12.8-28.16-28.16-28.16H324.096V537.6h139.264c15.36 0 28.16-12.8 28.16-28.16S478.72 481.28 463.36 481.28H323.584V404.48h139.776z" fill="#191919" p-id="5554"></path></svg>