<?xml version="1.0" standalone="no"?><!DOCTYPE svg PUBLIC "-//W3C//DTD SVG 1.1//EN" "http://www.w3.org/Graphics/SVG/1.1/DTD/svg11.dtd"><svg t="1639993661154" class="icon" viewBox="0 0 1024 1024" version="1.1" xmlns="http://www.w3.org/2000/svg" p-id="4884" xmlns:xlink="http://www.w3.org/1999/xlink" width="128" height="128"><defs><style type="text/css"></style></defs><path d="M877.3 94.2h-730c-44.2 0-80 35.8-80 80v543c0 44.2 35.8 80 80 80h109.5c4.2 0 7.1 4.1 5.6 8.1L210 949.5c-1.9 5.2 3.8 10 8.6 7.3l302.8-155.4c4.6-2.7 9.9-4.2 15.3-4.2h340.7c44.2 0 80-35.8 80-80v-543c-0.1-44.2-35.9-80-80.1-80zM253 283h305.6c22.1 0 40 17.9 40 40s-17.9 40-40 40H253c-22.1 0-40-17.9-40-40s17.9-40 40-40z m499.2 269.5H253c-22.1 0-40-17.9-40-40s17.9-40 40-40h499.2c22.1 0 40 17.9 40 40s-17.9 40-40 40z" p-id="4885"></path></svg>