<svg t="1639988404793" class="icon" viewBox="0 0 1024 1024" version="1.1" xmlns="http://www.w3.org/2000/svg" p-id="7946" width="128" height="128" xmlns:xlink="http://www.w3.org/1999/xlink"><path d="M64.2 324.3h894.3v-48.1c0-130.1-18.4-147.1-127.9-147.1H192C86.6 129 64.2 148.2 64.2 276.2v48.1z m0 456.3c0 125.6 22.5 146.7 127.9 146.7h638.5c111.7 0 127.9-29.5 127.9-146.7V420H64.2v360.6z m136-125.8V567c0-26.6 15.9-45.6 39.9-45.6h99.8c24.1 0 39.9 19 39.9 45.6v87.8c0 27.1-15.9 45.6-39.9 45.6h-99.8c-24 0-39.9-18.5-39.9-45.6z m0 0" p-id="7947"></path></svg>