<?xml version="1.0" standalone="no"?><!DOCTYPE svg PUBLIC "-//W3C//DTD SVG 1.1//EN" "http://www.w3.org/Graphics/SVG/1.1/DTD/svg11.dtd"><svg class="icon" width="128px" height="128.00px" viewBox="0 0 1024 1024" version="1.1" xmlns="http://www.w3.org/2000/svg"><path d="M671.232 186.368V97.28H345.088V200.192h326.144z"  /><path d="M877.056 142.336h-90.112v141.824H237.056V142.336H67.072V928.768H957.44V142.336h-80.384z m-154.112 371.712l-204.288 217.088c-10.752 11.776-28.16 13.824-41.472 6.656-3.584-2.048-7.168-4.096-10.752-7.68L332.8 587.264c-12.288-13.312-12.288-33.792 0-47.104 13.312-14.336 36.352-14.336 49.664 0l110.592 117.76 180.224-190.976c13.312-14.336 36.352-14.336 49.664 0 12.288 13.312 12.288 33.792 0 47.104z"  /></svg>