<?xml version="1.0" standalone="no"?><!DOCTYPE svg PUBLIC "-//W3C//DTD SVG 1.1//EN" "http://www.w3.org/Graphics/SVG/1.1/DTD/svg11.dtd"><svg t="1640857683731" class="icon" viewBox="0 0 1024 1024" version="1.1" xmlns="http://www.w3.org/2000/svg" p-id="4855" xmlns:xlink="http://www.w3.org/1999/xlink" width="128" height="128"><defs><style type="text/css">@font-face { font-family: uc-nexus-iconfont; src: url("chrome-extension://pogijhnlcfmcppgimcaccdkmbedjkmhi/res/font_9qmmi8b8jsxxbt9.woff") format("woff"), url("chrome-extension://pogijhnlcfmcppgimcaccdkmbedjkmhi/res/font_9qmmi8b8jsxxbt9.ttf") format("truetype"); }
</style></defs><path d="M506 421c-52.9 0-95.9 43-95.9 95.9 0 52.9 43 95.9 95.9 95.9 52.9 0 95.9-43 95.9-95.9 0-52.9-43-95.9-95.9-95.9z m452.1 87.7c-1.7-27.2-8.7-53.6-20.8-78.7-4.6-9.6-13.8-15.3-25.2-14.8l-60.8 3.8c-7.3-26.6-17.4-51.7-30.3-75.3l48.8-55.3c7-8 8.5-19.4 3.8-28.9-12.3-25-28.9-46.8-49.2-64.7-20.4-18-44-31.7-70.3-40.8-9.9-3.5-21.2-0.6-28.2 7.4L685.5 207c-23.8-13.5-48.8-24.1-74.7-31.7l-4.6-73.8c-0.7-10.6-7.6-19.7-17.7-23.1-24.7-8.4-50-12.4-75.9-11.2v0.1h-1.5v-0.1C485.3 66 460 70 435.3 78.4c-10.1 3.4-17 12.6-17.7 23.1l-4.6 73.8c-25.9 7.5-50.9 18.2-74.7 31.7L298 161.4c-7.1-8-18.3-10.9-28.2-7.4-26.3 9.2-50 22.9-70.3 40.8-20.3 17.9-36.9 39.7-49.2 64.7-4.7 9.5-3.2 20.9 3.8 28.9l48.8 55.3c-12.9 23.6-23 48.8-30.3 75.3l-60.8-3.8c-11.4-0.6-20.6 5.1-25.2 14.8-12.1 25.1-19.1 51.4-20.8 78.7-1.6 27.2 2 54.3 10.9 80.5 3.4 10 12.6 17 23.1 17.6l73.8 4.6c7.6 25.9 18.2 51 31.7 74.7l-45.7 40.3c-8 7.1-10.9 18.2-7.4 28.2 9.2 26.3 22.8 49.9 40.9 70.5 18.1 20.3 39.9 36.9 64.7 49.2 9.5 4.7 21 3.2 28.9-3.9l55.4-48.8c23.6 12.9 48.8 23 75.3 30.3l-3.8 60.8c-0.6 10.6 5.1 20.5 14.7 25.1 24.9 12.2 51.3 19.2 78.7 20.9 1.2 0.1 2.4 0.2 3.6 0.2v0.2h3.2v-0.2c1-0.1 2.1-0.1 3.1-0.2 27.4-1.7 53.8-8.8 78.7-20.9 9.6-4.6 15.3-14.5 14.7-25.1l-3.8-60.8c26.6-7.3 51.7-17.4 75.3-30.3l55.4 48.8c7.9 7.1 19.4 8.6 28.9 3.9 24.9-12.3 46.7-28.9 64.7-49.2 18-20.6 31.7-44.2 40.9-70.5 3.5-10 0.6-21.2-7.4-28.2l-45.7-40.3c13.5-23.7 24.1-48.8 31.7-74.7l73.8-4.6c10.5-0.7 19.7-7.6 23.1-17.6 8.8-26.3 12.5-53.3 10.9-80.5zM508 708.6c-105.7 0-191.4-86.2-191.4-192.6 0-106.4 85.7-192.6 191.4-192.6S699.4 409.6 699.4 516c0 106.3-85.7 192.6-191.4 192.6z m0 0" p-id="4856"></path></svg>