<?xml version="1.0" standalone="no"?><!DOCTYPE svg PUBLIC "-//W3C//DTD SVG 1.1//EN" "http://www.w3.org/Graphics/SVG/1.1/DTD/svg11.dtd"><svg class="icon" width="128px" height="128.00px" viewBox="0 0 1024 1024" version="1.1" xmlns="http://www.w3.org/2000/svg"><path d="M950.8 423.4c-1.4-6.7-5.4-12.5-11.1-16.3-5.7-3.8-12.8-5-19.3-3.7-7.7 1.6-15.7 2.4-23.5 2.4-41.6 0-78.7-21.1-99.3-56.6-24.6-42.2-18.9-95.3 13.8-132.3 9.4-10.6 8.5-26.7-2.2-36.1-46.1-40.7-98.8-71-156.6-90-13.5-4.4-28.1 2.8-32.6 16.2-15.8 46.8-59.4 78.3-108.6 78.3s-92.8-31.5-108.6-78.3c-4.5-13.4-19-20.6-32.6-16.2-57.8 19-110.5 49.3-156.6 90-10.7 9.4-11.6 25.5-2.2 36.1 32.8 37 38.4 90.1 13.8 132.3-20.5 35.4-57.7 56.6-99.3 56.6-7.8 0-15.8-0.8-23.5-2.4-6.7-1.4-13.7 0-19.3 3.7-5.6 3.8-9.7 9.6-11.1 16.3-6.1 29.4-9.1 59.6-9.1 89.8 0 30.2 3 60.4 9.1 89.8 1.4 6.7 5.4 12.5 11.1 16.2 5.7 3.8 12.8 5 19.3 3.7 7.7-1.6 15.7-2.4 23.5-2.4 41.6 0 78.7 21.1 99.3 56.6 24.6 42.2 19 95.3-13.8 132.3-9.4 10.6-8.5 26.8 2.2 36.1 46.1 40.7 98.8 71 156.6 90 2.7 0.8 5.4 1.3 8.2 1.3 10.8 0 20.9-6.8 24.5-17.5 15.8-46.6 59.5-78.1 108.6-78.1s92.8 31.5 108.6 78.3c4.5 13.4 19.1 20.6 32.6 16.2 57.8-19 110.5-49.3 156.6-90 10.7-9.4 11.6-25.5 2.2-36.1-32.8-37-38.4-90.1-13.8-132.3 20.5-35.4 57.7-56.6 99.3-56.6 7.8 0 15.8 0.8 23.5 2.4 6.6 1.4 13.7 0.1 19.3-3.7s9.7-9.5 11.1-16.2c6.1-29.4 9.1-59.7 9.1-89.8-0.1-30.4-3.2-60.6-9.2-90m-439.5 253c-90.8 0-164.4-73.1-164.4-163.2S420.5 350 511.3 350s164.4 73.1 164.4 163.2c0.1 90.2-73.5 163.2-164.4 163.2" /></svg>