<svg t="1638180309187" class="icon" viewBox="0 0 1024 1024" version="1.1" xmlns="http://www.w3.org/2000/svg" p-id="4252" xmlns:xlink="http://www.w3.org/1999/xlink" width="128" height="128"><path d="M938.8 515.4c0-22.2-3-44.5-9-66.3 5.9-21.5 8.9-43.5 8.9-65.9 0-44.1-11.5-86.8-34.3-127-21.7-38.3-52.7-72.7-92.1-102.1C732.4 94.5 626.4 61.6 514 61.6c-112.5 0-218.4 32.9-298.2 92.5-39.3 29.4-70.3 63.7-92 102.1-22.7 40.2-34.3 82.9-34.3 127 0 22.5 3 44.7 9 66.3-5.9 21.7-8.9 43.8-8.9 65.9 0 22.6 3 44.9 9.1 66.6-6 21.9-9.1 44.3-9.1 66.6 0 44.1 11.5 86.8 34.3 127 21.7 38.3 52.7 72.6 92 102 79.9 59.7 185.8 92.5 298.3 92.5 112.4 0 218.4-32.9 298.3-92.5 39.3-29.4 70.3-63.7 92-102 22.8-40.2 34.3-82.9 34.3-127 0-22.4-3.1-44.8-9.1-66.7 6-21.6 9.1-43.9 9.1-66.5zM756.2 807.8c-64.7 43-150.1 66.6-240.5 66.6-89.1 0-173.7-23.1-238.1-65-35-22.8-62.1-49.9-79.9-79.5 5.9 5 12 9.8 18.3 14.6 79.9 59.7 185.8 92.5 298.3 92.5 112.4 0 218.4-32.9 298.3-92.5 8.5-6.4 16.6-13 24.3-19.8-17.5 30.8-44.7 59.2-80.7 83.1z m0-133.3c-64.7 43-150.1 66.6-240.5 66.6-89.1 0-173.7-23.1-238.1-65-34.1-22.2-60.5-48.4-78.4-77 5.4 4.5 10.9 8.9 16.6 13.2 79.9 59.6 185.8 92.5 298.3 92.5 112.4 0 218.4-32.9 298.3-92.5 8.2-6.1 15.9-12.4 23.3-18.9-17.4 30.1-44.3 57.7-79.5 81.1zM858.7 378c0 60.3-34.8 117.5-98 161-65.2 44.9-152.3 69.7-245 69.7s-179.8-24.8-245-69.7c-63.2-43.5-98-100.7-98-161 0-60.2 35.8-120.7 98.2-166 65.9-47.9 152.9-74.2 244.8-74.2s178.8 26.3 244.8 74.2c62.4 45.3 98.2 105.8 98.2 166z" p-id="4253"></path><path d="M497.9 222.9c2.4-0.2 5-0.3 7.5-0.4 16.6-0.6 31.7-0.6 45.7 0v-37.4h-53.2v37.8z" p-id="4254"></path><path d="M505.3 223c-2.5 0.1-5.1 0.3-7.5 0.4-174.3 9.4-177.6 54-182 70-4.4 16.2-4 44.2 41.9 60.1 26.3 9.1 90.1 20.3 139.9 28.4h0.3v100.9c9.3 0.6 19.2 0.9 29.9 1 8.3 0 16.1-0.1 23.3-0.5v-93.2c8.5 1.2 13.5 2 13.5 2s82.2 11.2 81.2 38.9c-0.9 25.3-21.2 49.1-95 52.7-7.2 0.4-15 0.5-23.3 0.5-10.7-0.1-20.7-0.4-29.9-1-71.2-4.5-101.8-24.2-121.6-66.6l-82.8 9.7s22.4 72.1 130.6 83.4c25.9 2.7 50.6 4.2 73.7 4.8h0.3v36.9H551v-37c46.7-1.3 81.4-6.1 96.8-10.1 27.4-7.1 80.6-19.6 86.2-70.7 0.3-0.3 6.8-60.6-127.8-76.8-21-2.5-39.2-4.8-55.1-7h-0.1V261c19.7 2.1 38.8 6.5 54.1 14.8 0 0 26.4 13.6 33 35.2l79.7-10.5s-25.4-71-166.8-77.5c-14-0.7-29.2-0.8-45.7 0zM438 329.7c-8.4-2.1-39.2-7.1-38.3-29.8 1-22.7 42.9-33.5 42.9-33.5s24.1-4.7 55.3-6.3h0.1v82c-42.6-7.1-54.6-11.1-60-12.4z m62.6 12.7c10 1.6 21.7 3.3 35.2 5.3-13.5-2-25.2-3.7-35.2-5.3z" p-id="4255"></path></svg>