<?xml version="1.0" standalone="no"?><!DOCTYPE svg PUBLIC "-//W3C//DTD SVG 1.1//EN" "http://www.w3.org/Graphics/SVG/1.1/DTD/svg11.dtd"><svg t="1629792611561" class="icon" viewBox="0 0 1024 1024" version="1.1" xmlns="http://www.w3.org/2000/svg" p-id="3586" xmlns:xlink="http://www.w3.org/1999/xlink" width="128" height="128"><defs><style type="text/css">@font-face { font-family: uc-nexus-iconfont; src: url("chrome-extension://pogijhnlcfmcppgimcaccdkmbedjkmhi/res/font_9qmmi8b8jsxxbt9.woff") format("woff"), url("chrome-extension://pogijhnlcfmcppgimcaccdkmbedjkmhi/res/font_9qmmi8b8jsxxbt9.ttf") format("truetype"); }
</style></defs><path d="M891.7 134.1c-23.5-24.6-58.4-36.5-106.6-36.5l-398.3-0.3h-0.2c-77 0-149.5 30.1-203.9 84.8-54.5 54.7-84.5 127.4-84.5 204.8V613c0 16 13 29 29 29s29-13 29-29V386.9c0-61.9 24-120.1 67.6-163.9 43.5-43.7 101.4-67.7 162.9-67.7h0.2l398.4 0.3c31.5 0 52.7 6.1 64.7 18.6 11.7 12.2 17.4 33.1 17.4 64.1v400.1C867.4 766.1 764 870 636.9 870h-407c-30.1 0-49.6-5.1-59.6-15.6-9.5-10-14.1-29.2-14.1-58.5v-33.5c0-16-13-29-29-29s-29 13-29 29v33.5c0 28.6 3.1 69.9 29.9 98.3 21.8 23.1 54.1 33.8 101.7 33.8h407c77.1 0 149.5-30.1 204-84.9 54.5-54.7 84.4-127.4 84.4-204.8v-400c0-46.7-11-80.7-33.5-104.2z" fill="#191919" p-id="3587"></path><path d="M511.1 243.8c-16 0-29 13-29 29v91.4l-159.9-0.4h-0.1c-15.4 0-28 12-28.9 27.2-0.7 2.5-1.1 5.1-1.1 7.8v161.1c0 14.7 10.9 26.8 25.1 28.7 2.5 0.7 5 1.1 7.7 1.1l157.1 0.4v163.7c0 16 13 29 29 29s29-13 29-29V590.2l161 0.4h0.1c6.1 0 11.7-1.9 16.4-5.1 8.5-5 14.3-14.3 14.3-25l0.3-161.8c0-2.9-0.4-5.6-1.2-8.2-1.6-14.5-13.8-25.8-28.8-25.8l-162.1-0.4v-91.6c0.1-16-12.9-28.9-28.9-28.9z m-161 287.9V421.8l132 0.4v109.9l-132-0.4z m323.9-109l-0.2 109.9-133.8-0.4V422.3l134 0.4z" fill="#1890FF" p-id="3588"></path></svg>