<?xml version="1.0" standalone="no"?><!DOCTYPE svg PUBLIC "-//W3C//DTD SVG 1.1//EN" "http://www.w3.org/Graphics/SVG/1.1/DTD/svg11.dtd"><svg t="1630576674538" class="icon" viewBox="0 0 1024 1024" version="1.1" xmlns="http://www.w3.org/2000/svg" p-id="5939" xmlns:xlink="http://www.w3.org/1999/xlink" width="128" height="128"><defs><style type="text/css">@font-face { font-family: uc-nexus-iconfont; src: url("chrome-extension://pogijhnlcfmcppgimcaccdkmbedjkmhi/res/font_9qmmi8b8jsxxbt9.woff") format("woff"), url("chrome-extension://pogijhnlcfmcppgimcaccdkmbedjkmhi/res/font_9qmmi8b8jsxxbt9.ttf") format("truetype"); }
</style></defs><path d="M905.728 125.44c-26.112-27.136-64-40.448-115.712-40.448l-403.456-0.512c-80.384 0-156.16 31.232-213.504 88.576-56.832 57.344-88.064 133.12-88.064 214.016v226.304c0 23.04 18.944 41.984 41.984 41.984s41.984-18.944 41.984-41.984V387.072c0-58.88 22.528-113.664 64.512-155.648 40.96-41.472 95.744-64 154.112-64l403.456 0.512c27.136 0 46.08 5.12 55.296 14.848 9.216 9.728 13.824 28.16 13.824 55.296v400.896c0 120.32-97.792 218.624-217.6 218.624H230.4c-32.256 0-45.056-6.656-50.176-11.776s-10.752-17.92-10.752-49.664V762.88c0-23.04-18.944-41.984-41.984-41.984s-41.984 18.944-41.984 41.984v33.28c0 30.72 3.584 75.264 33.28 107.008 24.576 26.112 59.904 37.888 111.104 37.888h412.16c80.384 0 156.16-31.744 212.48-88.576 56.832-57.344 88.064-133.12 88.064-214.016V238.592c0-50.176-11.776-87.04-36.864-113.152z" fill="#191919" p-id="5940"></path><path d="M719.872 398.336c-2.048-15.36-14.336-26.624-29.696-26.624l-149.504-0.512V287.744c0-8.192-3.072-15.36-8.704-20.992-5.632-5.632-12.8-8.704-20.992-8.704-16.384 0-29.696 13.312-29.696 29.696v83.456l-147.456-0.512a29.696 29.696 0 0 0-29.696 27.648c-0.512 2.56-1.024 5.12-1.024 7.68v151.04c0 14.848 11.264 27.136 25.6 29.184 2.56 0.512 5.12 1.024 7.68 1.024l144.896 0.512v151.04c0 16.384 13.312 29.696 29.696 29.696 16.384 0 29.696-13.312 29.184-29.696v-150.528l148.48 0.512c6.144 0 11.776-1.536 16.896-5.12 9.216-5.12 14.848-15.36 14.848-25.6l0.512-151.552c0-3.072-0.512-6.144-1.024-8.192z m-58.88 32.768v97.792l-120.32-0.512V430.592l120.32 0.512z m-297.984 96.768V430.08l118.784 0.512v97.792l-118.784-0.512z" fill="#1890FF" p-id="5941"></path></svg>