<?xml version="1.0" standalone="no"?><!DOCTYPE svg PUBLIC "-//W3C//DTD SVG 1.1//EN" "http://www.w3.org/Graphics/SVG/1.1/DTD/svg11.dtd"><svg t="1639993689461" class="icon" viewBox="0 0 1024 1024" version="1.1" xmlns="http://www.w3.org/2000/svg" p-id="5775" xmlns:xlink="http://www.w3.org/1999/xlink" width="128" height="128"><defs><style type="text/css"></style></defs><path d="M671.2 200v-62.6c0-22-18-40-40-40h-246c-22.1 0-40 17.9-40 40V200h326z" p-id="5776"></path><path d="M877.1 142.4h-89.8v141.8H237.1V142.4h-89.9c-44.2 0-80 35.8-80 80V849c0 44.2 35.8 80 80 80h730c44.2 0 80-35.8 80-80V222.4c-0.1-44.1-35.9-80-80.1-80zM723 513.8L518.7 731c-11 11.7-28 13.8-41.3 6.6-3.8-1.8-7.4-4.3-10.5-7.6L332.6 587.3c-12.4-13.2-12.4-33.7 0-46.9 13.5-14.4 36.3-14.4 49.8 0l110.8 117.8 180-191.2c13.5-14.4 36.3-14.4 49.8 0 12.4 13.1 12.4 33.7 0 46.8z" p-id="5777"></path></svg>