<?xml version="1.0" standalone="no"?><!DOCTYPE svg PUBLIC "-//W3C//DTD SVG 1.1//EN" "http://www.w3.org/Graphics/SVG/1.1/DTD/svg11.dtd"><svg class="icon" width="128px" height="128.00px" viewBox="0 0 1024 1024" version="1.1" xmlns="http://www.w3.org/2000/svg"><path d="M848.896 129.024H192c-7.168 0-13.824 0-19.968 0.512H64v210.944h894.464V129.536h-109.568zM64 419.84V922.624h108.544v-0.512c6.144 0 12.288 0.512 19.456 0.512h638.464c6.656 0 12.288 0 18.432-0.512v0.512h109.568v-136.192-375.296H64V419.84z m315.904 235.008c0 27.136-15.872 45.568-39.936 45.568H240.128c-24.064 0-39.936-18.432-39.936-45.568v-87.552c0-26.624 15.872-45.568 39.936-45.568h99.84c24.064 0 39.936 18.944 39.936 45.568v87.552z" /></svg>