<?xml version="1.0" standalone="no"?><!DOCTYPE svg PUBLIC "-//W3C//DTD SVG 1.1//EN" "http://www.w3.org/Graphics/SVG/1.1/DTD/svg11.dtd"><svg t="1629792582794" class="icon" viewBox="0 0 1024 1024" version="1.1" xmlns="http://www.w3.org/2000/svg" p-id="2935" xmlns:xlink="http://www.w3.org/1999/xlink" width="128" height="128"><defs><style type="text/css">@font-face { font-family: uc-nexus-iconfont; src: url("chrome-extension://pogijhnlcfmcppgimcaccdkmbedjkmhi/res/font_9qmmi8b8jsxxbt9.woff") format("woff"), url("chrome-extension://pogijhnlcfmcppgimcaccdkmbedjkmhi/res/font_9qmmi8b8jsxxbt9.ttf") format("truetype"); }
</style></defs><path d="M1001.472 487.936c-6.656-41.472-56.32-71.68-106.496-82.944 0-0.512-0.512-1.536-0.512-2.048l-2.048-0.512-3.072-4.608c-9.216-13.312-27.136-16.384-40.448-7.168l-1.024 1.024c-11.776 8.192-15.872 24.064-9.216 36.864 6.656 26.624 9.728 53.76 9.728 81.408 0 12.288-0.512 24.576-2.048 36.352-2.56 1.024-4.608 2.048-7.168 3.072-54.784 24.064-150.016 58.368-290.304 86.016-153.6 30.208-267.264 23.552-335.872 12.8-9.216-1.536-17.408-3.072-25.6-4.608-17.92-42.496-27.136-87.04-27.136-133.632 0-46.592 9.216-91.648 27.136-133.632 17.408-40.96 41.984-77.824 73.728-109.056s68.608-56.32 109.568-73.728c42.496-17.92 87.552-27.136 133.632-27.136s91.648 9.216 133.632 27.136c40.96 17.408 77.824 41.984 109.056 73.728 14.336 14.336 27.648 29.696 38.912 46.592 0.512 1.024 1.536 2.56 2.048 3.584l6.656 9.216c9.216 13.312 27.136 16.384 40.448 7.168l1.024-1.024c11.776-8.192 15.872-24.064 9.216-36.864-0.512-0.512-1.024-1.536-1.536-2.048 0-0.512-0.512-0.512-0.512-1.024-71.68-111.616-197.12-185.856-339.456-185.856-222.72 0-403.456 180.736-403.456 403.456 0 7.168 0 14.848 0.512 22.016-7.68 3.584-20.992 10.24-34.304 18.944-12.8 8.192-22.528 16.384-29.184 25.088-15.36 19.456-15.36 36.864-12.288 48.128s11.776 28.672 54.272 48.128c18.944 8.704 40.96 16.384 66.048 22.528 67.072 129.536 202.24 218.112 358.4 218.112 196.608 0 360.448-140.8 395.776-326.656 27.136-13.824 50.176-27.136 67.072-40.448 17.92-12.8 38.912-33.28 34.816-58.368zM88.064 609.792c5.12-4.608 13.312-10.24 22.016-15.36 2.048 9.728 4.608 19.968 7.68 29.696-13.824-5.632-23.552-10.752-29.696-14.336z m659.456 143.36c-31.744 31.744-68.608 56.32-109.056 73.728-42.496 17.92-87.552 27.136-133.632 27.136s-91.648-9.216-133.632-27.136c-40.96-17.408-77.824-41.984-109.056-73.728-13.312-13.312-25.6-27.648-36.864-43.008 31.232 4.096 68.608 6.656 111.616 6.656 62.976 0 137.728-6.144 224.256-23.04 119.808-23.552 208.896-52.224 270.848-76.8-3.072 9.216-6.144 17.92-9.728 26.624-18.432 41.472-43.008 77.824-74.752 109.568z m160.256-238.08v-5.12c0-13.824-0.512-27.136-1.536-39.936 16.384 6.656 28.672 15.36 33.792 21.504-5.12 5.632-15.36 13.312-32.256 23.552z" fill="#191919" p-id="2936"></path><path d="M290.816 361.472c12.288 8.192 28.672 5.12 36.864-6.656 3.072-4.608 6.144-8.704 9.216-12.288 4.096-4.096 10.752-11.264 22.528-20.992 33.28-28.16 73.216-45.056 118.784-50.688 14.336-1.536 25.088-14.848 23.04-29.696s-14.848-25.088-29.696-23.04c-2.048 0-4.096 0.512-5.632 1.024-20.992 0-111.616 3.584-182.272 105.984-8.192 11.264-4.608 28.16 7.168 36.352zM281.6 426.496c8.192-12.288 5.12-28.672-7.168-36.864 0 0-0.512 0-0.512-0.512-12.288-7.68-28.16-4.608-36.352 7.68-2.56 4.096-5.12 8.192-7.168 11.776-8.192 13.824-19.456 39.424-18.944 75.776 0.512 14.336 12.288 26.112 26.624 26.112h0.512c14.848-0.512 26.112-12.288 26.112-27.136v-6.656-0.512c0-6.144 1.024-11.264 2.048-16.384 2.048-8.704 6.144-20.48 14.848-33.28z" fill="#1890FF" p-id="2937"></path></svg>