<?xml version="1.0" standalone="no"?><!DOCTYPE svg PUBLIC "-//W3C//DTD SVG 1.1//EN" "http://www.w3.org/Graphics/SVG/1.1/DTD/svg11.dtd"><svg class="icon" width="128px" height="128.00px" viewBox="0 0 1024 1024" version="1.1" xmlns="http://www.w3.org/2000/svg"><path d="M354.304 424.448h126.464v96.256H354.304zM541.184 424.448h126.976v96.256h-126.976z"  /><path d="M833.024 99.84H73.216v829.44H952.32v-829.44h-119.296z m-115.712 477.184c-6.144 6.144-14.336 10.24-23.552 10.24h-152.576v167.424c0 16.384-13.312 30.208-30.208 30.208s-30.208-13.312-30.208-30.208v-167.424H328.192c-16.384 0-30.208-12.288-32.768-28.16-1.024-2.56-1.536-5.632-1.536-8.704V395.264c0-3.072 0.512-6.144 1.536-9.216 2.56-15.872 16.384-27.648 32.768-27.648h152.576V267.776c0-16.384 13.312-30.208 30.208-30.208s30.208 13.312 30.208 30.208V358.4h152.576c10.752 0 19.968 5.12 26.112 12.8 5.12 5.632 8.192 12.8 8.192 20.48v161.792c0 9.728-4.096 17.92-10.752 23.552z"  /></svg>