<?xml version="1.0" standalone="no"?><!DOCTYPE svg PUBLIC "-//W3C//DTD SVG 1.1//EN" "http://www.w3.org/Graphics/SVG/1.1/DTD/svg11.dtd"><svg t="1629792563772" class="icon" viewBox="0 0 1024 1024" version="1.1" xmlns="http://www.w3.org/2000/svg" p-id="2546" xmlns:xlink="http://www.w3.org/1999/xlink" width="128" height="128"><defs><style type="text/css">@font-face { font-family: uc-nexus-iconfont; src: url("chrome-extension://pogijhnlcfmcppgimcaccdkmbedjkmhi/res/font_9qmmi8b8jsxxbt9.woff") format("woff"), url("chrome-extension://pogijhnlcfmcppgimcaccdkmbedjkmhi/res/font_9qmmi8b8jsxxbt9.ttf") format("truetype"); }
</style></defs><path d="M872.5 338c-16 0-29 13-29 29v380c0 50-42.9 90.8-95.6 90.8H277.1c-52.7 0-95.6-40.7-95.6-90.8V247.1c0-50.1 42.9-90.8 95.6-90.8h423.8c16 0 29-13 29-29s-13-29-29-29H277.1c-84.7 0-153.6 66.7-153.6 148.8V747c0 82 68.9 148.8 153.6 148.8h470.7c84.7 0 153.6-66.7 153.6-148.8V367c0.1-16-12.9-29-28.9-29z" fill="#191919" p-id="2547"></path><path d="M950.2 78c-11.3-11.3-29.7-11.2-41 0.1L537.8 451.6c-11.3 11.4-11.3 29.7 0.1 41 5.7 5.6 13 8.4 20.5 8.4s14.9-2.9 20.6-8.5L950.3 119c11.3-11.3 11.3-29.7-0.1-41zM258.5 708.5c0 16 13 29 29 29h450c16 0 29-13 29-29s-13-29-29-29h-450c-16.1 0-29 13-29 29z" fill="#191919" p-id="2548"></path><path d="M458.1 551H287.5c-16 0-29 13-29 29s13 29 29 29h170.7c16 0 29-13 29-29s-13.1-29-29.1-29z" fill="#1890FF" p-id="2549"></path></svg>