<?xml version="1.0" standalone="no"?><!DOCTYPE svg PUBLIC "-//W3C//DTD SVG 1.1//EN" "http://www.w3.org/Graphics/SVG/1.1/DTD/svg11.dtd"><svg class="icon" width="128px" height="128.00px" viewBox="0 0 1024 1024" version="1.1" xmlns="http://www.w3.org/2000/svg"><path d="M850.944 100.352H66.048v653.824H959.488V100.352h-108.544z m-80.896 282.112l-3.584 4.096-144.896 134.144c-7.168 6.656-16.896 10.752-27.136 11.776h-10.24c-8.192-0.512-16.384-3.072-23.04-7.68l-4.608-3.584-115.712-108.032-121.344 112.128c-13.824 12.8-35.328 15.36-52.224 6.144l-4.096-2.56-4.096-3.072c-15.36-14.336-16.896-36.352-3.584-52.224l3.584-3.584 144.896-134.144c2.048-2.048 5.12-4.096 7.68-5.632l4.096-2.048-0.512-0.512 4.096-2.56c13.312-8.192 30.72-8.192 44.544-1.024l5.12 3.072 4.096 3.072 116.736 108.032L706.56 330.24c10.752-10.24 26.624-13.824 41.472-10.24v-0.512c13.824 3.584 25.088 12.8 29.696 25.6 3.584 12.8 1.024 26.624-7.68 37.376zM741.888 835.072H165.376v92.16H860.16v-92.16z" /></svg>