<svg class="icon" width="128px" height="128.00px" viewBox="0 0 1024 1024" version="1.1" xmlns="http://www.w3.org/2000/svg"><path d="M855.2 243.8L573.5 81.2c-37.6-21.7-83.9-21.7-121.5 0L170.2 243.8c-37.6 21.7-60.8 61.8-60.8 105.2v325.3c0 43.4 23.2 83.5 60.8 105.2l281.7 162.7c37.6 21.7 83.9 21.7 121.5 0l281.7-162.7c37.6-21.7 60.8-61.8 60.8-105.2V349.1c0.1-43.5-23.1-83.6-60.7-105.3zM510.9 716.6c-114.2 0-206.7-92.6-206.7-206.7s92.6-206.7 206.7-206.7c114.2 0 206.7 92.6 206.7 206.7s-92.5 206.7-206.7 206.7z m0 0"  /><path d="M395.3 509.9c0 64.8 52.5 117.4 117.4 117.4 64.8 0 117.4-52.5 117.4-117.4 0-64.8-52.5-117.4-117.4-117.4-64.8 0-117.4 52.6-117.4 117.4z m0 0"  /></svg>