<svg t="1639988433998" class="icon" viewBox="0 0 1024 1024" version="1.1" xmlns="http://www.w3.org/2000/svg" p-id="8357" xmlns:xlink="http://www.w3.org/1999/xlink" width="128" height="128"><path d="M820.7 835.4H203.1c-22.7 5.4-38.6 24.3-38.6 45.9 0 21.7 15.9 40.6 38.6 46h617.6c22.7-5.4 38.5-24.3 38.5-46s-15.8-40.5-38.5-45.9zM884.1 100.5l-744.5-0.1c-41.1 0.1-74.4 30.9-74.4 69v516.8c0 38 33.3 68.8 74.4 68.8H884c19.7 0 38.7-7.2 52.7-20.1 14-12.9 21.8-30.4 21.9-48.7V169.4c0-38.1-33.4-68.9-74.5-68.9zM336.9 604.4c0 25-20.2 45.2-45.2 45.2s-45.2-20.2-45.2-45.2V408c0-25 20.2-45.2 45.2-45.2s45.2 20.2 45.2 45.2v196.4z m220.6 0c0 25-20.2 45.2-45.2 45.2-25 0-45.2-20.2-45.2-45.2V247.6c0-25 20.2-45.2 45.2-45.2 25 0 45.2 20.2 45.2 45.2v356.8z m220.6 0c0 25-20.2 45.2-45.2 45.2s-45.2-20.2-45.2-45.2V345.2c0-25 20.2-45.2 45.2-45.2s45.2 20.2 45.2 45.2v259.2z" p-id="8358"></path></svg>