<?xml version="1.0" standalone="no"?><!DOCTYPE svg PUBLIC "-//W3C//DTD SVG 1.1//EN" "http://www.w3.org/Graphics/SVG/1.1/DTD/svg11.dtd"><svg t="1639993673059" class="icon" viewBox="0 0 1024 1024" version="1.1" xmlns="http://www.w3.org/2000/svg" p-id="5266" xmlns:xlink="http://www.w3.org/1999/xlink" width="128" height="128"><defs><style type="text/css"></style></defs><path d="M541 424.6h127v96.2H541zM354.4 424.6H481v96.2H354.4z" p-id="5267"></path><path d="M833 99.8H193c-66.3 0-120 53.7-120 120v590c0 66.3 53.7 120 120 120h640c66.3 0 120-53.7 120-120v-590c0-66.3-53.7-120-120-120z m-104.9 454c0 9.3-4.2 17.5-10.8 23-6 6.1-14.4 10-23.6 10H541v167.5c0 16.6-13.4 30-30 30s-30-13.4-30-30V586.8H328.4c-16.6 0-30.4-12.3-32.7-28.4-0.9-2.8-1.3-5.8-1.3-8.9V395.4c0-3.2 0.5-6.3 1.4-9.2 2.6-15.7 16.2-27.6 32.6-27.6H481v-91c0-16.6 13.4-30 30-30s30 13.4 30 30v91h152.6c10.7 0 20.2 5.1 26.2 13 5.1 5.4 8.2 12.6 8.2 20.6v161.6z" p-id="5268"></path></svg>