<?xml version="1.0" standalone="no"?><!DOCTYPE svg PUBLIC "-//W3C//DTD SVG 1.1//EN" "http://www.w3.org/Graphics/SVG/1.1/DTD/svg11.dtd"><svg t="1630576669310" class="icon" viewBox="0 0 1024 1024" version="1.1" xmlns="http://www.w3.org/2000/svg" p-id="5810" xmlns:xlink="http://www.w3.org/1999/xlink" width="128" height="128"><defs><style type="text/css">@font-face { font-family: uc-nexus-iconfont; src: url("chrome-extension://pogijhnlcfmcppgimcaccdkmbedjkmhi/res/font_9qmmi8b8jsxxbt9.woff") format("woff"), url("chrome-extension://pogijhnlcfmcppgimcaccdkmbedjkmhi/res/font_9qmmi8b8jsxxbt9.ttf") format("truetype"); }
</style></defs><path d="M535.552 839.168H241.152c-23.04 0-41.984 18.944-41.984 41.984 0 23.552 18.432 41.984 41.984 41.984h293.888c23.04 0 41.984-18.944 41.984-41.984s-18.432-41.984-41.472-41.984zM776.704 101.888H249.856c-89.088 0-161.792 72.704-161.792 161.792v335.872c0 89.088 72.704 161.792 161.792 161.792h285.184c23.04 0 41.984-18.944 41.984-41.984 0-23.552-18.432-41.984-41.984-41.984H249.856c-43.008 0-78.336-35.328-78.336-78.336V263.68c0-43.008 35.328-78.336 78.336-78.336h526.336c43.008 0 78.336 35.328 78.336 78.336v247.296c0 23.04 18.944 41.984 41.984 41.984 23.552 0 41.984-18.432 41.984-41.984V263.68c0-89.088-72.704-161.792-161.792-161.792z" fill="#191919" p-id="5811"></path><path d="M778.24 768.512c53.76 0 97.28-43.52 97.28-97.28s-43.52-97.28-97.28-97.28-97.28 43.52-97.28 97.28 43.52 97.28 97.28 97.28z m0-147.456c27.648 0 50.176 22.528 50.176 50.176s-22.528 50.176-50.176 50.176-50.176-22.528-50.176-50.176 22.528-50.176 50.176-50.176zM870.912 784.896H686.08c-38.912 0-70.144 31.232-70.144 70.144s31.232 70.144 70.144 70.144h184.832c38.912 0 70.144-31.232 70.144-70.144s-31.232-70.144-70.144-70.144z m-184.832 47.104h184.832c12.8 0 23.04 10.24 23.04 23.04s-10.24 23.04-23.04 23.04H686.08c-12.8 0-23.04-10.24-23.04-23.04s10.24-23.04 23.04-23.04z" fill="#1890FF" p-id="5812"></path></svg>