<?xml version="1.0" standalone="no"?><!DOCTYPE svg PUBLIC "-//W3C//DTD SVG 1.1//EN" "http://www.w3.org/Graphics/SVG/1.1/DTD/svg11.dtd"><svg t="1629792576210" class="icon" viewBox="0 0 1024 1024" version="1.1" xmlns="http://www.w3.org/2000/svg" p-id="2805" xmlns:xlink="http://www.w3.org/1999/xlink" width="128" height="128"><defs><style type="text/css">@font-face { font-family: uc-nexus-iconfont; src: url("chrome-extension://pogijhnlcfmcppgimcaccdkmbedjkmhi/res/font_9qmmi8b8jsxxbt9.woff") format("woff"), url("chrome-extension://pogijhnlcfmcppgimcaccdkmbedjkmhi/res/font_9qmmi8b8jsxxbt9.ttf") format("truetype"); }
</style></defs><path d="M513.9 555.6c61.8 0 120-24.1 163.7-67.8s67.8-101.9 67.8-163.7-24.1-120-67.8-163.7-101.9-67.8-163.7-67.8-120 24.1-163.7 67.8-67.8 101.9-67.8 163.7 24.1 120 67.8 163.7 101.8 67.8 163.7 67.8z m0-405c95.7 0 173.5 77.8 173.5 173.5s-77.8 173.5-173.5 173.5-173.5-77.8-173.5-173.5 77.8-173.5 173.5-173.5zM631.3 869.7h-388c-58.3 0-105.8-51.9-105.8-115.6S185 638.5 243.3 638.5h380.2c16 0 29-13 29-29s-13-29-29-29H243.3c-90.3 0-163.8 77.9-163.8 173.6 0 95.7 73.5 173.6 163.8 173.6h388.1c16 0 29-13 29-29s-13.1-29-29.1-29z" fill="#191919" p-id="2806"></path><path d="M513.9 847.4l50-55.4-50-119.5L463.8 792z" fill="#1890FF" p-id="2807"></path><path d="M880.3 590h-143c-36 0-65.2 29.3-65.2 65.2v114.3c0 36 29.3 65.2 65.2 65.2h143c36 0 65.2-29.3 65.2-65.2V655.2c0-35.9-29.3-65.2-65.2-65.2z m17.2 179.5c0 9.5-7.7 17.2-17.2 17.2h-143c-9.5 0-17.2-7.7-17.2-17.2V655.2c0-9.5 7.7-17.2 17.2-17.2h143c9.5 0 17.2 7.7 17.2 17.2v114.3zM903.3 869.6h-189c-16 0-29 13-29 29s13 29 29 29h189c16 0 29-13 29-29s-13-29-29-29z" fill="#191919" p-id="2808"></path></svg>