<svg class="icon" width="128px" height="128.00px" viewBox="0 0 1024 1024" version="1.1" xmlns="http://www.w3.org/2000/svg"><path d="M861.6 278.1c-8.3 8.3-24.9 8.3-36 0l-83-83c-8.3-8.3-8.3-24.9 0-36L809 98.2H183.8C136.8 98.2 98 137 98 184v655.7c0 49.8 38.7 88.5 85.8 88.5h658.5c47 0 85.8-38.7 85.8-85.8v-628l-66.5 63.7zM798 344.5L540.7 599c-2.8 2.8-5.5 2.8-8.3 5.5L383 670.9c-22.1 8.3-41.5-11.1-33.2-33.2l66.4-149.4c0-2.8 2.8-5.5 5.5-8.3L679 225.5c11.1-11.1 24.9-11.1 36 0l83 83c8.3 11.1 8.3 24.9 0 36z m0 0" /></svg>