<svg class="icon" width="128px" height="128.00px" viewBox="0 0 1024 1024" version="1.1" xmlns="http://www.w3.org/2000/svg"><path d="M540.3 423h127v96.2h-127zM353.7 423h126.6v96.2H353.7z"  /><path d="M827.3 98.2h-630c-55.2 0-100 44.8-100 100v630c0 55.2 44.8 100 100 100h630c55.2 0 100-44.8 100-100v-630c0-55.2-44.7-100-100-100z m-99.9 454c0 9.3-4.2 17.5-10.8 23-6 6.1-14.4 10-23.6 10H540.3v167.5c0 16.6-13.4 30-30 30s-30-13.4-30-30V585.2H327.7c-16.6 0-30.4-12.3-32.7-28.4-0.9-2.8-1.3-5.8-1.3-8.9V393.8c0-3.2 0.5-6.3 1.4-9.2 2.6-15.7 16.2-27.6 32.6-27.6h152.6v-91c0-16.6 13.4-30 30-30s30 13.4 30 30v91H693c10.7 0 20.2 5.1 26.2 13 5.1 5.4 8.2 12.6 8.2 20.6v161.6z"  /></svg>