<svg class="icon" width="128px" height="128.00px" viewBox="0 0 1024 1024" version="1.1" xmlns="http://www.w3.org/2000/svg"><path d="M827.7 98.2h-630c-55.2 0-100 44.8-100 100v630c0 55.2 44.8 100 100 100h630c55.2 0 100-44.8 100-100v-630c0-55.2-44.8-100-100-100zM458.5 489.6c15.5 0 28 12.5 28 28s-12.5 28-28 28H309.1v91.8h149.4c15.5 0 28 12.5 28 28s-12.5 28-28 28H278.2c-13.5 0-24.8-9.6-27.4-22.4-1.1-3.1-1.7-6.4-1.7-9.8V381.7c0-3.6 0.6-7.1 1.8-10.4 2.9-12.4 14-21.6 27.3-21.6h180.3c15.5 0 28 12.5 28 28s-12.5 28-28 28H309.1v83.9h149.4z m318.1 176c0 15.9-12.4 28.9-28 29.9-3.2 1.3-6.6 1.9-10 1.9-9.1 0-18-4.6-23.1-13l-130.2-215v196.2c0 16.6-13.4 30-30 30s-30-13.4-30-30V379.5c0-16.6 13.4-30 30-30 4.8 0 9.4 1.2 13.4 3.2 6.6 1.7 12.6 5.9 16.4 12.2L716.6 582V379.5c0-16.6 13.4-30 30-30s30 13.4 30 30v286.1z" /></svg>