<?xml version="1.0" standalone="no"?><!DOCTYPE svg PUBLIC "-//W3C//DTD SVG 1.1//EN" "http://www.w3.org/Graphics/SVG/1.1/DTD/svg11.dtd"><svg t="1647328304637" class="icon" viewBox="0 0 1024 1024" version="1.1" xmlns="http://www.w3.org/2000/svg" p-id="6114" width="128" height="128" xmlns:xlink="http://www.w3.org/1999/xlink"><defs><style type="text/css"></style></defs><path d="M512 61.99c92.43 0 178.3 28 249.63 75.96L645.28 252.43A288.638 288.638 0 0 0 512 220.03c-160.02 0-289.75 129.73-289.75 289.74S351.98 799.52 512 799.52s289.74-129.73 289.74-289.75c0-34.63-6.06-67.88-17.23-98.67l119.61-117.72a445.633 445.633 0 0 1 55.66 216.39c0 247.31-200.48 447.78-447.78 447.78S64.21 757.08 64.21 509.77 264.69 61.99 512 61.99z m0 237.06c25.6 0 50.12 4.55 72.83 12.9L468.51 426.48l-4.61 153.57 153.46-4.42L719.83 474.8c14.67 87.2-26.66 174.3-103.51 218.07-76.84 43.77-172.84 34.91-240.37-22.2-67.52-57.1-92.21-150.29-61.81-233.34 30.4-83.04 109.42-138.27 197.86-138.28zM905.57 86.7l55.84 55.95-385.8 385.14 0.11 0.1-58.87 2.92 2.9-58.87 385.8-385.28 0.02 0.04z m0 0" p-id="6115"></path></svg>