<svg class="icon" width="128px" height="128.00px" viewBox="0 0 1024 1024" version="1.1" xmlns="http://www.w3.org/2000/svg"><path d="M956.8 451.2c-7.4-30.2-29.1-56.1-62.9-75-16.6-9.3-36-17-58.1-23.1 15.8 25.3 28.7 52.5 38.3 81.2 13.2 9.2 21.6 19.7 24.4 31.1 2.9 11.8 0 25.6-8 40.4-0.4 0.7-0.7 1.3-1.1 2-0.4 0.6-0.7 1.3-1.1 1.9-0.1 0.1-0.1 0.2-0.2 0.3-0.3 0.6-0.7 1.2-1.1 1.7-0.1 0.1-0.2 0.3-0.3 0.4-0.3 0.6-0.7 1.1-1.1 1.6-0.1 0.2-0.2 0.4-0.3 0.5-0.3 0.5-0.7 1-1.1 1.6-0.1 0.2-0.3 0.4-0.4 0.6-0.3 0.5-0.7 1-1.1 1.5l-0.5 0.7c-0.4 0.5-0.7 1-1.1 1.5-0.2 0.2-0.4 0.5-0.5 0.7-0.4 0.5-0.7 1-1.1 1.5-0.2 0.3-0.4 0.5-0.6 0.8-0.4 0.5-0.7 1-1.1 1.4-0.2 0.3-0.4 0.5-0.6 0.8-0.4 0.5-0.8 0.9-1.1 1.4-0.2 0.3-0.5 0.6-0.7 0.9-0.4 0.5-0.8 0.9-1.1 1.4-0.2 0.3-0.5 0.6-0.7 0.9-0.4 0.5-0.8 0.9-1.2 1.4-0.3 0.3-0.5 0.6-0.8 0.9-0.4 0.5-0.8 0.9-1.2 1.4-0.3 0.3-0.6 0.6-0.8 0.9-0.4 0.4-0.8 0.9-1.2 1.3l-0.9 1c-0.4 0.4-0.8 0.9-1.2 1.3-0.3 0.3-0.6 0.7-0.9 1-0.4 0.4-0.8 0.9-1.3 1.3-0.3 0.3-0.6 0.7-1 1-0.4 0.4-0.8 0.9-1.3 1.3l-1 1c-0.4 0.4-0.9 0.8-1.3 1.3-0.4 0.4-0.7 0.7-1.1 1-0.4 0.4-0.9 0.8-1.3 1.3l-1.1 1.1c-0.4 0.4-0.9 0.8-1.3 1.2-0.4 0.4-0.8 0.7-1.2 1.1l-1.3 1.2c-0.4 0.4-0.8 0.7-1.2 1.1l-1.4 1.2c-0.4 0.4-0.8 0.7-1.3 1.1-0.5 0.4-0.9 0.8-1.4 1.2-0.4 0.4-0.9 0.8-1.3 1.1-0.5 0.4-0.9 0.8-1.4 1.2-0.5 0.4-0.9 0.8-1.4 1.2-0.5 0.4-0.9 0.8-1.4 1.2-0.5 0.4-0.9 0.8-1.4 1.2-0.5 0.4-0.9 0.8-1.4 1.2l-1.5 1.2-1.4 1.1c-0.5 0.4-1 0.8-1.6 1.2-0.5 0.4-0.9 0.7-1.4 1.1-0.5 0.4-1.1 0.8-1.6 1.3-0.5 0.4-0.9 0.7-1.4 1.1-0.6 0.4-1.1 0.9-1.7 1.3-0.5 0.3-0.9 0.7-1.4 1-0.6 0.5-1.2 0.9-1.9 1.4-0.4 0.3-0.8 0.6-1.3 1l-2.1 1.5c-0.4 0.3-0.7 0.5-1.1 0.8-1.1 0.8-2.2 1.6-3.3 2.3-2.6 1.9-5.3 3.7-8 5.6C779.3 606 744.4 625 705.8 642c-48.6 21.4-103 39.8-160.5 53.9-14.1 3.5-28.2 6.6-42.2 9.5-38.7 7.9-76.6 13.3-112.9 16.3-21.4 1.7-42.2 2.6-62.3 2.6-27.3 0-53.1-1.6-77.1-4.9l-4.2-0.6-1.8-0.3c-0.8-0.1-1.6-0.2-2.4-0.4-0.6-0.1-1.3-0.2-1.9-0.3-0.7-0.1-1.5-0.2-2.2-0.4-0.7-0.1-1.4-0.2-2.1-0.4-0.7-0.1-1.3-0.2-2-0.3-0.8-0.1-1.6-0.3-2.3-0.4-0.6-0.1-1.1-0.2-1.7-0.3-0.8-0.2-1.6-0.3-2.4-0.5l-1.5-0.3c-0.8-0.2-1.6-0.3-2.5-0.5l-1.4-0.3c-0.8-0.2-1.7-0.4-2.5-0.6-0.4-0.1-0.8-0.2-1.3-0.3-0.9-0.2-1.7-0.4-2.6-0.6-0.4-0.1-0.8-0.2-1.1-0.3-0.9-0.2-1.8-0.4-2.7-0.7l-1-0.2c-0.9-0.2-1.8-0.5-2.7-0.7-0.3-0.1-0.6-0.2-0.9-0.2-0.9-0.2-1.9-0.5-2.8-0.7-0.3-0.1-0.5-0.1-0.8-0.2-0.9-0.3-1.9-0.5-2.8-0.8l-0.7-0.2c-1-0.3-1.9-0.6-2.8-0.8-0.2-0.1-0.4-0.1-0.6-0.2-1-0.3-1.9-0.6-2.9-0.9-0.2-0.1-0.3-0.1-0.5-0.2-1-0.3-1.9-0.6-2.9-0.9-0.1 0-0.3-0.1-0.4-0.1-1-0.3-1.9-0.6-2.9-1-0.1 0-0.2-0.1-0.3-0.1-1-0.3-1.9-0.7-2.9-1-0.1 0-0.2-0.1-0.3-0.1-1-0.4-1.9-0.7-2.8-1.1-0.1 0-0.2-0.1-0.2-0.1-1-0.4-1.9-0.7-2.8-1.1-0.1 0-0.1 0-0.2-0.1-0.9-0.4-1.9-0.8-2.8-1.2h-0.1c-0.9-0.4-1.9-0.8-2.8-1.2h-0.1l-2.7-1.2c-0.9-0.4-1.8-0.8-2.7-1.3-7.1-3.4-13.4-7.2-18.8-11.1-0.2-0.2-0.5-0.3-0.7-0.5-11.7-8.7-19.3-18.6-21.9-29.3-2.5-10.4-0.7-22.2 5.2-34.9-3.6-21.3-5.4-42.9-5.4-64.5 0-9 0.3-17.9 0.9-26.7-15.5 14.8-28.3 29.8-38.1 44.8-21.1 32.4-28.3 65.4-20.9 95.6 7.4 30.2 29.1 56.1 62.9 75 16.8 9.4 36.5 17.2 59 23.3 6.4 1.7 13 3.3 19.9 4.8h0.1c2.1 0.4 4.2 0.9 6.4 1.3l0.6 0.1c2 0.4 4 0.8 6 1.1l1.5 0.3c1.7 0.3 3.4 0.6 5.2 0.9 1 0.2 2 0.3 2.9 0.5 1.3 0.2 2.6 0.4 4 0.6 2.3 0.4 4.7 0.7 7.1 1 26.5 3.6 55 5.4 85 5.4 20.2 0 41.1-0.9 62.5-2.5 52.3-4 107.6-12.7 163.5-26.2 2-0.5 4-0.9 6-1.4 95-23.3 176.4-54.8 248.6-97 4-2.4 8-4.7 11.9-7.1 11.1-6.8 21.8-13.8 31.8-21 1.8-1.3 3.5-2.5 5.3-3.8 0.9-0.6 1.7-1.3 2.6-1.9 0.8-0.6 1.7-1.2 2.5-1.9 1.2-0.9 2.3-1.7 3.4-2.6 0.5-0.4 1-0.7 1.5-1.1 1.3-1 2.6-2.1 3.9-3.1 0.3-0.2 0.6-0.4 0.8-0.6 1.4-1.1 2.8-2.3 4.2-3.4 0.1-0.1 0.3-0.2 0.4-0.3 1.5-1.2 2.9-2.4 4.4-3.6l0.1-0.1c3.6-3.1 7.2-6.1 10.5-9.2 18.4-16.6 33.2-33.5 44.2-50.5 21.2-32.2 28.4-65.3 21-95.5z m0 0"  /><path d="M167.2 653l0.2 0.1 0.6 0.2c0.9 0.3 1.8 0.5 2.7 0.8l0.3 0.1 0.6 0.2c0.9 0.3 1.8 0.5 2.7 0.8l0.4 0.1 0.6 0.2c0.9 0.2 1.8 0.5 2.7 0.7l0.5 0.1 0.7 0.2c0.9 0.2 1.7 0.5 2.6 0.7l0.6 0.1 0.7 0.2 0.3 0.1c0.7 0.2 1.5 0.4 2.3 0.6l0.7 0.2 0.7 0.2 0.5 0.1c0.7 0.2 1.3 0.3 2 0.5l0.8 0.2 0.8 0.2 0.6 0.1c0.6 0.1 1.2 0.3 1.8 0.4 0.3 0.1 0.6 0.1 0.9 0.2l0.8 0.2 0.7 0.2c0.6 0.1 1.1 0.2 1.7 0.3 0.4 0.1 0.8 0.2 1.2 0.2l0.8 0.2 0.8 0.2c0.4 0.1 0.9 0.2 1.3 0.3l1.5 0.3 0.8 0.2 0.9 0.2c0.4 0.1 0.7 0.1 1.1 0.2l1.8 0.3 0.8 0.1 0.9 0.2c0.3 0.1 0.6 0.1 0.9 0.2 1.5 0.2 2.9 0.5 4.4 0.7 25 4 52.5 6.1 81.6 6.5 21.5 0.2 44.1-0.5 67.3-2.3 39.7-3 81.3-9 123.4-17.7 15.5-3.2 31.1-6.8 46.4-10.7 62.9-15.9 122.1-36.5 176-61.3 42-19.3 79.4-40.6 111.1-63.3 3.3-2.4 6-4.3 8.5-6.2 1.1-0.9 2.3-1.7 3.4-2.6l0.5-0.4 0.6-0.5 0.3-0.2c0.6-0.5 1.3-1 1.9-1.4l0.7-0.6 0.6-0.5 0.5-0.4 1.5-1.2c0.3-0.2 0.6-0.4 0.8-0.7l0.6-0.5 0.5-0.4c0.4-0.3 0.9-0.7 1.3-1.1 0.3-0.2 0.6-0.5 0.9-0.7l0.6-0.5 0.4-0.3c0.4-0.3 0.8-0.7 1.2-1 0.3-0.3 0.6-0.5 1-0.8l0.5-0.4 0.4-0.3c0.4-0.3 0.8-0.7 1.2-1 0.3-0.3 0.7-0.6 1-0.9l0.4-0.4 0.4-0.3c0.4-0.3 0.8-0.7 1.2-1 0.4-0.3 0.7-0.6 1-0.9l0.4-0.3 0.3-0.3c0.4-0.3 0.8-0.7 1.1-1l1.1-1 0.3-0.2 0.2-0.2c0.4-0.4 0.8-0.7 1.2-1.1 0.4-0.3 0.8-0.7 1.1-1l0.3-0.2 0.2-0.2c0.4-0.3 0.8-0.7 1.1-1 0.4-0.4 0.9-0.8 1.3-1.2l0.1-0.1c0.4-0.4 0.8-0.8 1.2-1.1 0.4-0.4 0.8-0.8 1.2-1.1-15.3-197-167.7-354.5-355.3-354.7-240.4-0.7-378 168.9-365.4 383.5 3 50.6 7.9 99.2 23.9 143.8 0.1 0.1 0.2 0.1 0.3 0.1z m397.5 154l-2.5 0.6c-65.8 16.2-131 26.6-193.6 31-20 1.4-39.6 2.2-58.5 2.3 54.8 37.5 119.7 56.5 189.3 60.3 173 9.4 247.6-73 311.9-185.5-71.8 37.3-154.3 68.1-242 90.2-1.5 0.4-3.1 0.8-4.6 1.1z m0 0"  /></svg>