<?xml version="1.0" standalone="no"?><!DOCTYPE svg PUBLIC "-//W3C//DTD SVG 1.1//EN" "http://www.w3.org/Graphics/SVG/1.1/DTD/svg11.dtd"><svg t="1641549362553" class="icon" viewBox="0 0 1024 1024" version="1.1" xmlns="http://www.w3.org/2000/svg" p-id="8363" xmlns:xlink="http://www.w3.org/1999/xlink" width="128" height="128"><defs><style type="text/css"></style></defs><path d="M820.736 100.352h-752.64v654.848h892.928V100.352h-140.288z m-307.712 455.68H226.816c-25.088 0-45.056-19.968-45.056-45.056s19.968-45.056 45.056-45.056h286.72c25.088 0 45.056 19.968 45.056 45.056s-20.48 45.056-45.568 45.056z m210.944-208.384H226.816c-25.088 0-45.056-19.968-45.056-45.056s19.968-45.056 45.056-45.056h497.152c25.088 0 45.056 19.968 45.056 45.056s-19.968 45.056-45.056 45.056zM206.336 835.584h-38.912v91.648h694.784v-91.648h-38.4z" p-id="8364"></path></svg>