<svg class="icon" width="128px" height="128.00px" viewBox="0 0 1024 1024" version="1.1" xmlns="http://www.w3.org/2000/svg"><path d="M661.3 196.7v-62.6c0-22-18-40-40-40h-226c-22.1 0-40 17.9-40 40v62.6h306z" /><path d="M848.3 139.1h-69.8v141.8H248.2V139.1h-69.9c-44.2 0-80 35.8-80 80v626.6c0 44.2 35.8 80 80 80h670c44.2 0 80-35.8 80-80V219.1c0-44.2-35.8-80-80-80zM720.7 616.4c-1.8 1.6-3.8 3-5.9 4.1L587.7 732.7c-12.7 11.2-33.3 11.2-46 0-12.7-11.2-12.7-29.4 0-40.6l80.3-70.9H320.3c-16.6 0-30-13.4-30-30v-4c0-16.6 13.4-30 30-30h287.3l-66-58.2c-12.7-11.2-12.7-29.4 0-40.6 12.7-11.2 33.3-11.2 46 0L715 570.8c2 1.1 3.9 2.4 5.6 4 6.1 5.4 9.3 12.5 9.5 19.6 0.6 7.8-2.5 15.9-9.4 22z" /></svg>