<svg viewBox="0 0 1031 1024" version="1.1" xmlns="http://www.w3.org/2000/svg" width="128.875" height="128"><path d="M88.58011 231.028071a80.407056 80.407056 0 0 0-80.407057 79.106798v475.337354a80.453494 80.453494 0 0 0 81.660877 83.588046h99.539432l153.128656 153.778786 153.128656-153.778786h319.00449c21.77933 0 42.606685-8.799964 57.768627-24.426284a80.476713 80.476713 0 0 0 22.61521-58.511632v-69.540611h54.239355a80.407056 80.407056 0 0 0 79.756927-80.383837V160.837332a80.383837 80.383837 0 0 0-80.383838-80.383838H222.553172a80.407056 80.407056 0 0 0-80.407056 80.383838V231.028071H88.58011z m806.46211 421.724911V310.134869a80.360619 80.360619 0 0 0-80.383837-79.106798H205.974876V160.837332c0-9.171466 7.430049-16.578296 16.578296-16.578296h726.078273c9.148247 0 16.578296 7.40683 16.578296 16.578296v475.337354c0 9.171466-7.430049 16.601515-16.578296 16.601515h-53.589225zM72.001814 311.411909c0-9.171466 7.430049-16.601515 16.601515-16.601515h726.078273a16.578296 16.578296 0 0 1 16.578296 15.324475v475.337354c0 9.171466-7.430049 16.578296-16.578296 16.578296H471.390141l-127.611083 127.611084-127.611084-127.611084H88.58011a16.601515 16.601515 0 0 1-16.601515-16.578296V311.411909z m0 474.060314"></path><path d="M712.541653 548.105392a50.385017 50.385017 0 1 0-100.770033-0.046438 50.385017 50.385017 0 0 0 100.770033 0.046438z m0 0M502.015872 548.105392a50.408235 50.408235 0 1 0-100.816471 0 50.408235 50.408235 0 0 0 100.816471 0z m0 0M291.466872 548.105392a50.408235 50.408235 0 1 0-100.816471 0 50.408235 50.408235 0 0 0 100.816471 0z m0 0"></path></svg>