<?xml version="1.0" standalone="no"?><!DOCTYPE svg PUBLIC "-//W3C//DTD SVG 1.1//EN" "http://www.w3.org/Graphics/SVG/1.1/DTD/svg11.dtd"><svg t="1641345108613" class="icon" viewBox="0 0 1024 1024" version="1.1" xmlns="http://www.w3.org/2000/svg" p-id="5850" xmlns:xlink="http://www.w3.org/1999/xlink" width="200" height="200"><defs><style type="text/css"></style></defs><path d="M815.9 101H210.1C149.3 101 100 150.2 100 211.1v605.7c0 60.9 49.3 110.2 110.1 110.2h605.7c60.8 0 110.1-49.3 110.1-110.1V211.1c0.2-60.9-49.1-110.1-110-110.1zM668.7 705c-43.2 37.3-97.3 57.4-153.8 57.4-5.9 0-11.8-0.2-17.7-0.6-71.6-5.2-136.6-43.4-176.8-101.6v42.5c0 15.2-12.3 27.5-27.5 27.5s-27.5-12.3-27.5-27.5V564.9H403c15.2 0 27.5 12.3 27.5 27.5s-12.3 27.5-27.5 27.5h-42.8c30.1 49.5 82.6 82.4 141.1 86.8 48.2 3.5 94.9-11.9 131.5-43.5 36.6-31.5 58.7-75.5 62.3-123.7 1.1-15.2 14.5-26.8 29.4-25.4 15.2 1.1 26.5 14.3 25.4 29.4-4.7 63-33.6 120.4-81.2 161.5z m92.2-244.1H623.2c-15.2 0-27.5-12.3-27.5-27.5s12.3-27.5 27.5-27.5h43.9c-17.7-28.8-42.3-52.1-73-67.3-14.3-6.5-30.1-11.4-46.3-14.1-48.8-8.2-97.9 3.1-138.3 31.9-40.3 28.8-67 71.5-75.2 120.4-2.3 13.5-14 23-27.1 23-1.5 0-3.1-0.1-4.6-0.4-15-2.5-25.1-16.7-22.6-31.7 10.6-63.3 45.3-118.8 97.5-156.1 52.3-37.3 116-52 179.3-41.4 21.1 3.5 41.5 9.8 60.9 18.8 35.9 17.7 65.5 43.6 87.9 75.3v-40.9c0-15.2 12.3-27.5 27.5-27.5s27.5 12.3 27.5 27.5l0.3 137.5z m0 0" p-id="5851"></path></svg>