<svg class="icon" viewBox="0 0 1024 1024" version="1.1" xmlns="http://www.w3.org/2000/svg" width="128" height="128"><path d="M772.8 98.4H253.7c-85.5 0-155 69.4-155 154.7v361.7c0 85.3 69.5 154.7 155 154.7h519.1c85.5 0 155-69.4 155-154.7v-50.6c0-19.3-15.7-35-35-35s-35 15.7-35 35v50.4c0 46.6-38.1 84.6-85 84.6H253.7c-46.9 0-85-37.9-85-84.6V253.3c0-46.6 38.1-84.6 85-84.6h519.1c46.9 0 85 37.9 85 84.6V389c0 19.3 15.7 35 35 35s35-15.7 35-35V253.1c0-85.3-69.6-154.7-155-154.7zM833.2 858H192.7c-19.3 0-35 15.7-35 35s15.7 35 35 35h640.5c19.3 0 35-15.7 35-35s-15.7-35-35-35z"></path><path d="M675.5 288.8c-12.9-12.9-33.8-12.9-46.7 0L513.7 403.9 398.6 288.8c-12.9-12.9-33.8-12.9-46.7 0-12.9 12.9-12.9 33.8 0 46.7L467 450.6 363.2 554.4c-12.9 12.9-12.9 33.8 0 46.7 12.9 12.9 33.8 12.9 46.7 0l103.8-103.8L617.4 601c12.9 12.9 33.8 12.9 46.7 0s12.9-33.8 0-46.7L560.3 450.6l115.1-115.1c12.9-12.9 12.9-33.8 0.1-46.7z"></path></svg>