<svg class="icon" viewBox="0 0 1024 1024" version="1.1" xmlns="http://www.w3.org/2000/svg" width="128" height="128"><path d="M772.8 98.4H253.7c-85.5 0-155 69.4-155 154.7v361.7c0 85.3 69.5 154.7 155 154.7h519.1c85.5 0 155-69.4 155-154.7v-50.6c0-19.3-15.7-35-35-35s-35 15.7-35 35v50.4c0 46.6-38.1 84.6-85 84.6H253.7c-46.9 0-85-37.9-85-84.6V253.3c0-46.6 38.1-84.6 85-84.6h519.1c46.9 0 85 37.9 85 84.6V389c0 19.3 15.7 35 35 35s35-15.7 35-35V253.1c0-85.3-69.6-154.7-155-154.7zM833.2 858H192.7c-19.3 0-35 15.7-35 35s15.7 35 35 35h640.5c19.3 0 35-15.7 35-35s-15.7-35-35-35z"></path><path d="M693.5 281.2L463.6 513l-110-118.6c-12.4-13.4-33.3-14.1-46.6-1.7-13.4 12.4-14.1 33.3-1.7 46.6l118.9 128.1c9.9 10.6 23.8 16.9 38.3 17.1h0.9c14.2 0 28-5.7 38-15.8l239.1-241c12.8-12.9 12.7-33.8-0.2-46.7-13.1-12.8-34-12.7-46.8 0.2z"></path></svg>