<svg width="128px" height="109.78px" viewBox="0 0 1194 1024" xmlns="http://www.w3.org/2000/svg"><path d="M1110.189521 84.477146v627.87068h-1027.42475v-627.87068zM1118.180602 0H76.486065A76.486065 76.486065 0 0 0 0 76.486065v642.140468a76.486065 76.486065 0 0 0 76.486065 76.486065H553.667781v144.410256H356.744705a42.238573 42.238573 0 0 0 0 84.477146h479.464883a42.238573 42.238573 0 0 0 0-84.477146h-198.06466v-144.410256h480.035674a76.486065 76.486065 0 0 0 76.486065-76.486065V76.486065A76.486065 76.486065 0 0 0 1118.180602 0z"  /></svg>