<?xml version="1.0" standalone="no"?><!DOCTYPE svg PUBLIC "-//W3C//DTD SVG 1.1//EN" "http://www.w3.org/Graphics/SVG/1.1/DTD/svg11.dtd"><svg t="1627694123749" class="icon" viewBox="0 0 1024 1024" version="1.1" xmlns="http://www.w3.org/2000/svg" p-id="1991" xmlns:xlink="http://www.w3.org/1999/xlink" width="128" height="128"><defs><style type="text/css"></style></defs><path d="M128 896h69.12A422.4 422.4 0 0 1 192 832a64 64 0 0 1-64-64 192 192 0 0 1 145.28-185.6A457.6 457.6 0 0 1 336.64 512H320a256 256 0 0 0-256 256v64a64 64 0 0 0 64 64z m222.08-395.392c5.76-5.12 11.52-10.432 17.92-15.296a353.152 353.152 0 0 1-28.16-57.6 159.36 159.36 0 0 1 42.88-296.32 312.64 312.64 0 0 1 63.36-64.64A228.032 228.032 0 0 0 416 63.744a223.168 223.168 0 0 0-65.92 436.864zM608 576A224 224 0 1 0 384 352 224 224 0 0 0 608 576z m0-384A160 160 0 1 1 448 352 160 160 0 0 1 608 192zM256 832v64a64 64 0 0 0 64 64h576a64 64 0 0 0 64-64v-64a256 256 0 0 0-256-256H512a256 256 0 0 0-256 256z m448-192a192 192 0 0 1 192 192 64 64 0 0 1-64 64H384a64 64 0 0 1-64-64 192 192 0 0 1 192-192h192z" p-id="1992"></path></svg>