<?xml version="1.0" standalone="no"?><!DOCTYPE svg PUBLIC "-//W3C//DTD SVG 1.1//EN" "http://www.w3.org/Graphics/SVG/1.1/DTD/svg11.dtd"><svg t="1627614246136" class="icon" viewBox="0 0 1024 1024" version="1.1" xmlns="http://www.w3.org/2000/svg" p-id="1925" width="128" height="128" xmlns:xlink="http://www.w3.org/1999/xlink"><defs><style type="text/css">@font-face { font-family: feedback-iconfont; src: url("//at.alicdn.com/t/font_1031158_1uhr8ri0pk5.eot?#iefix") format("embedded-opentype"), url("//at.alicdn.com/t/font_1031158_1uhr8ri0pk5.woff2") format("woff2"), url("//at.alicdn.com/t/font_1031158_1uhr8ri0pk5.woff") format("woff"), url("//at.alicdn.com/t/font_1031158_1uhr8ri0pk5.ttf") format("truetype"), url("//at.alicdn.com/t/font_1031158_1uhr8ri0pk5.svg#iconfont") format("svg"); }
</style></defs><path d="M786.7 1022.8c-9.7 1.2-19.4-2-26.4-8.8L536.2 864.6 426.3 974.4c-8.8 8.8-35.2 17.6-48.4 8.8-17.6-9.5-27.9-28.4-26.4-48.4V728.3c-1.2-9.7 2-19.4 8.8-26.4l351.6-382.3c18.2-18.2 47.7-18.2 65.9 0 18.2 18.2 18.2 47.7 0 65.9L435.1 759.1v74.7l65.9-57.1c17.6-17.6 35.2-17.6 57.1-8.8l206.6 131.8 158.2-773.5-782.3 382.4 175.8 109.9c17.6 8.8 26.4 48.4 8.8 65.9-8.8 17.6-48.4 26.4-65.9 17.6L17.6 543.7C6.7 535.3 0.3 522.4 0 508.6c0-17.6 8.8-26.4 26.4-35.2L958.1 7.6c14.9-8.8 33.5-8.8 48.4 0C1024 16.4 1024 34 1024 56L839.4 987.7c0 17.6-8.8 26.4-26.4 35.2l-26.3-0.1z" fill="#ffffff" p-id="1926"></path></svg>