<svg viewBox="0 0 1024 1024" xmlns="http://www.w3.org/2000/svg" width="128" height="128"><path d="M865.35 362.72a383.67 383.67 0 1 0-204.07 502.63q17.64-7.46 34.31-16.55l-29.73-29.73q-14.16 7.14-29 13a339.91 339.91 0 0 1-61.18 17.55c-0.38 0.08-0.75 0.15-1.13 0.21a345.42 345.42 0 0 1-126.17-0.22A339.91 339.91 0 0 1 387.17 832a345.78 345.78 0 0 1-158.3-125.7A341.37 341.37 0 0 1 169.08 532q-0.59-9.93-0.58-20t0.58-20a343.67 343.67 0 0 1 284.78-318.58 346 346 0 0 1 116.28 0 339.36 339.36 0 0 1 59.53 15.85A344.22 344.22 0 0 1 854.92 492q0.58 9.93 0.58 20t-0.58 20q-0.58 10.21-1.77 20.28a343.12 343.12 0 0 1-83.21 186.33 345.86 345.86 0 0 1-55.32 50.61l28.71 28.71a385.41 385.41 0 0 0 122-156.65 379.27 379.27 0 0 0 25.86-91.61A387.7 387.7 0 0 0 895.5 512a381 381 0 0 0-30.15-149.28z"></path><path d="M875.5 532h-727a20 20 0 0 1 0-40h727a20 20 0 0 1 0 40zM512 369.78c-96.12 0-193.43-23.95-289.24-71.19a20 20 0 1 1 17.69-35.87c180.19 88.84 362.91 88.84 543.1 0a20 20 0 1 1 17.69 35.87c-95.81 47.24-193.12 71.19-289.24 71.19zM792.38 747.22a19.81 19.81 0 0 1-8.83-2.07c-180.19-88.84-362.91-88.84-543.1 0a20 20 0 0 1-17.69-35.87C318.57 662 415.88 638.09 512 638.09S705.43 662 801.24 709.28a20 20 0 0 1-8.86 37.94zM634.62 787.84l18.46 18.46q-7.79 12.87-16.25 25.73Q622 854.61 605.06 877a20 20 0 0 1-12 7.56 19.66 19.66 0 0 1-4 0.4 20 20 0 0 1-16-32l1.76-2.34 0.77-1a784.21 784.21 0 0 0 52.84-80.1 21.67 21.67 0 0 0 6.19 18.32z"></path><path d="M740.67 516q0 8-0.27 16-0.2 5.81-0.53 11.6A513.33 513.33 0 0 1 715 673.19q-4 12.21-8.55 24.37-2.49 6.63-5.19 13.26-9.06 22.36-20.27 44.81l-7.1-7.1a21.7 21.7 0 0 0-30.68 0l-7 7a605.79 605.79 0 0 0 27-56.41q7.85-18.87 14.06-37.73a470.61 470.61 0 0 0 22.34-106.46q1-11.48 1.44-22.93 0.72-20-0.37-40-3.91-71.61-31.21-143.38-7.08-18.66-15.75-37.36-30.52-65.85-80.6-132.26a20 20 0 0 1 31.94-24q12.9 17.11 24.61 34.31c25.07 36.82 46 73.88 62.6 110.79q7.76 17.22 14.22 34.38c0.35 0.93 0.7 1.85 1 2.78 19 51.29 30 103.24 32.54 154.78q0.65 11.96 0.64 23.96zM434.92 885a20 20 0 0 1-16-8c-44.8-59.42-78.93-119.8-101.43-179.48-22.66-60.12-34.16-121.21-34.16-181.52s11.5-121.4 34.18-181.56C340 274.76 374.14 214.38 418.94 155a20 20 0 0 1 31.94 24c-171 226.74-171 447.18 0 673.92a20 20 0 0 1-16 32z"></path><path d="M891.21 569.67A222 222 0 0 0 780 540a224.85 224.85 0 0 0-40.13 3.6 220.56 220.56 0 0 0-40.24 11.33 223.23 223.23 0 0 0-125.11 294.86c0.12 0.28 0.24 0.54 0.36 0.81a221.25 221.25 0 0 0 18.16 34c0.45 0.69 0.9 1.37 1.36 2A222.76 222.76 0 0 0 780 986c123.16 0 223-99.84 223-223a222.89 222.89 0 0 0-111.79-193.33z m60.31 133.88q-0.37 0.41-0.78 0.81L768.6 886.5a27.26 27.26 0 0 1-34.76 0L704.37 857l-0.5 0.05-8.28-8.28-29.73-29.73-12.78-12.74-18.46-18.46a21.67 21.67 0 0 1-6.13-18.36 21.59 21.59 0 0 1 6.13-12.31l8.63-8.63a21.7 21.7 0 0 1 30.68 0l69.4 69.4 7.64 7.64 160.22-160.23a21.68 21.68 0 0 1 30.67 0l8.63 8.63A21.69 21.69 0 0 1 952 703c-0.14 0.16-0.31 0.36-0.48 0.55z"></path><path d="M951.52 703.55c-0.32 0.38-0.67 0.75-1 1.11L768.35 886.8a27.26 27.26 0 0 1-34.76 0l-29.72-29.72 0.5-0.05 29.47 29.47a27.26 27.26 0 0 0 34.76 0l182.14-182.14q0.41-0.36 0.78-0.81z"></path></svg>