<svg viewBox="0 0 1024 1024" xmlns="http://www.w3.org/2000/svg" width="128" height="128"><path d="M298.9 533.3c-8.2 0-15.3-4.6-18.9-11.4-3.4-6.5-10.7-9.9-18-9.9-15.9 0-26.9 17.1-19.2 31 10.9 19.7 31.9 33 56 33 49.4 0 85.7-56 49-108-10.8-15.3-29.7-20.6-48.4-20-12.1 0.4-22-9.3-22-21.3 0-11.8 9.6-21.3 21.3-21.3 8.2 0 15.3 4.6 18.9 11.4 3.4 6.5 10.7 9.9 18 9.9 15.7 0 26.9-16.8 19.4-30.6-12.5-23-38.8-37.5-67.8-32.4-25.7 4.5-46.9 25.6-51.4 51.4-7.1 40.5 23.8 75.6 63 75.6 11.8 0 21.3 9.6 21.3 21.3 0.1 11.8-9.5 21.3-21.2 21.3zM789.5 554.7V373.3c0-5.8-4.7-10.7-10.7-10.7h-21.4c-3.6 0-6.8 1.7-9 4.5l-0.9 1.9-54.2 121.6-54.2-121.4-0.9-1.9c-1.9-2.8-5.1-4.7-9-4.7h-21.4c-6 0-10.7 4.7-10.7 10.7v181.3c0 11.7 9.6 21.3 21.3 21.3 11.7 0 21.3-9.6 21.3-21.3v-96l29.4 67.7c1.6 4.2 5.5 6.9 10 6.9H707c4.4 0 8.4-2.8 10-6.9l29.4-67.7v96c0 11.7 9.6 21.3 21.3 21.3 12.2 0.1 21.8-9.5 21.8-21.2zM544.2 405.3c11.8 0 21.3-9.6 21.3-21.3 0-11.8-9.6-21.3-21.3-21.3H437.5c-11.8 0-21.3 9.6-21.3 21.3v170.7c0 11.8 9.6 21.3 21.3 21.3h106.7c11.8 0 21.3-9.6 21.3-21.3 0-11.8-9.6-21.3-21.3-21.3h-85.3v-42.7h42.7c11.8 0 21.3-9.6 21.3-21.3 0-11.8-9.6-21.3-21.3-21.3h-42.7v-42.7h85.3zM277.5 682.7h469.3c11.8 0 21.3-9.6 21.3-21.3 0-11.8-9.6-21.3-21.3-21.3H277.5c-11.8 0-21.3 9.6-21.3 21.3 0 11.7 9.6 21.3 21.3 21.3z"></path><path d="M938.9 277.3c11.8 0 21.3-9.6 21.3-21.3V149.3c0-23.6-19.1-42.7-42.7-42.7H106.9c-23.6 0-42.7 19.1-42.7 42.7v725.3c0 23.6 19.1 42.7 42.7 42.7h810.7c23.6 0 42.7-19.1 42.7-42.7v-448c0-11.8-9.6-21.3-21.3-21.3-11.8 0-21.3 9.6-21.3 21.3v426.7c0 11.8-9.6 21.3-21.3 21.3h-768c-11.8 0-21.3-9.6-21.3-21.3V170.7c0-11.8 9.6-21.3 21.3-21.3h768c11.8 0 21.3 9.6 21.3 21.3V256c-0.2 11.8 9.4 21.3 21.2 21.3z"></path></svg>