<?xml version="1.0" standalone="no"?><!DOCTYPE svg PUBLIC "-//W3C//DTD SVG 1.1//EN" "http://www.w3.org/Graphics/SVG/1.1/DTD/svg11.dtd"><svg t="1628842158918" class="icon" viewBox="0 0 1024 1024" version="1.1" xmlns="http://www.w3.org/2000/svg" p-id="13940" xmlns:xlink="http://www.w3.org/1999/xlink" width="128" height="128"><defs><style type="text/css"></style></defs><path d="M828.5 462.3c0-49.4-9.7-97.4-28.8-142.6-18.4-43.6-44.9-82.8-78.5-116.4-33.6-33.6-72.8-60-116.4-78.5C559.7 105.7 511.7 96 462.3 96s-97.4 9.7-142.6 28.8c-43.6 18.4-82.8 44.9-116.4 78.5-33.6 33.6-60 72.8-78.5 116.4C105.7 364.9 96 412.8 96 462.3s9.7 97.4 28.8 142.6c18.4 43.6 44.9 82.8 78.5 116.4 33.6 33.6 72.8 60 116.4 78.5 45.2 19.1 93.1 28.8 142.6 28.8s97.4-9.7 142.6-28.8c43.6-18.4 82.8-44.9 116.4-78.5 33.6-33.6 60-72.8 78.5-116.4 19-45.2 28.7-93.2 28.7-142.6zM676 676c-57.1 57.1-133 88.5-213.7 88.5-80.7 0-156.6-31.4-213.7-88.5-57.2-57.1-88.6-133-88.6-213.7 0-80.7 31.4-156.6 88.5-213.7 57.1-57.1 133-88.5 213.7-88.5 80.7 0 156.6 31.4 213.7 88.5 57.1 57.1 88.5 133 88.5 213.7 0.1 80.7-31.3 156.6-88.4 213.7zM918.6 873.4L782.9 737.6c-12.5-12.5-32.8-12.5-45.3 0s-12.5 32.8 0 45.3l135.8 135.8c6.2 6.2 14.4 9.4 22.6 9.4s16.4-3.1 22.6-9.4c12.5-12.6 12.5-32.8 0-45.3z" p-id="13941"></path><path d="M334.3 462.3c-17.7 0-32 14.3-32 32v64c0 17.7 14.3 32 32 32s32-14.3 32-32v-64c0-17.7-14.4-32-32-32zM462.3 334.3c-17.7 0-32 14.3-32 32v192c0 17.7 14.3 32 32 32s32-14.3 32-32v-192c0-17.7-14.4-32-32-32zM590.3 398.3c-17.7 0-32 14.3-32 32v128c0 17.7 14.3 32 32 32s32-14.3 32-32v-128c0-17.7-14.4-32-32-32z" p-id="13942"></path></svg>