<svg viewBox="0 0 1024 1024" width="128" height="124" xmlns="http://www.w3.org/2000/svg"><path d="M951.380144 200.482406l-513.20982 0.125694c-48.643693 0.628471-87.986009 40.096481-87.986009 88.865869l0 512.078572c0.125694 48.769388 40.473564 88.363092 88.991563 88.865869l324.668373 0 127.076936 127.076936c8.672907 8.672907 22.750668 8.672907 31.423575 0 4.273606-4.273606 6.410409-10.181238 6.536104-15.711787l0-111.239454 22.247891 0c49.146471 0 88.991563-39.845093 88.991563-88.865869L1040.120319 289.473969C1040.246013 240.327498 1000.400921 200.482406 951.380144 200.482406L951.380144 200.482406zM951.25445 833.353198l-44.74717 0c-5.656243 0.125694-11.186793 2.262497-15.460399 6.536104-4.147912 4.147912-6.284715 10.432627-6.536104 15.711787l0 92.385309-102.06377-114.6332-343.145435 0c-24.636082 0-31.926352-7.415964-31.926352-31.926352L407.375221 289.473969c0-24.510388 7.415964-31.926352 31.926352-31.926352l511.952877 0c24.636082 0 31.926352 7.415964 31.926352 31.926352l0 511.952877C983.180802 826.062929 975.764838 833.353198 951.25445 833.353198L951.25445 833.353198zM951.25445 833.353198M773.145629 89.117258c0-48.769388-39.342315-88.363092-87.986009-88.991563l-579.953493-0.125694C56.185351 0.125694 16.340259 39.970787 16.340259 89.117258l0 578.822244c0.125694 49.146471 39.970787 88.865869 88.991563 88.865869l22.247891 0 0 111.239454c0.125694 5.530549 2.262497 11.438181 6.536104 15.711787 8.672907 8.672907 22.750668 8.672907 31.423575 0 0.125694-0.125694 90.499895-90.499895 133.487345-133.487345 4.022218-4.022218 6.536104-9.678461 6.536104-15.711787 0-12.318041-12.820818-32.554823-25.13886-32.554823-6.159021 0-16.96873 7.290269-21.116642 11.312487L184.51923 787.851862l0.251389-53.168688c0-18.72845-9.049989-24.259-13.197901-28.281217-4.273606-4.273606-15.837482-6.410409-21.493725-6.536104l-44.74717 0c-24.636082 0-31.926352-7.415964-31.926352-31.926352L73.40547 89.242952c0-16.843036 19.859699-31.926352 31.926352-31.926352l578.69655 0c24.510388 0 31.926352 7.415964 31.926352 31.926352l0 44.495782c0 12.318041 17.471507 22.247891 29.789549 22.247891 12.318041 0 27.275663-9.92985 27.275663-22.247891L773.019935 89.117258 773.145629 89.117258zM773.145629 89.117258" /></svg>