<?xml version="1.0" standalone="no"?><!DOCTYPE svg PUBLIC "-//W3C//DTD SVG 1.1//EN" "http://www.w3.org/Graphics/SVG/1.1/DTD/svg11.dtd"><svg t="1622531680935" class="icon" viewBox="0 0 1024 1024" version="1.1" xmlns="http://www.w3.org/2000/svg" p-id="1607" xmlns:xlink="http://www.w3.org/1999/xlink" width="128" height="128"><defs><style type="text/css">@font-face { font-family: uc-nexus-iconfont; src: url("chrome-extension://pogijhnlcfmcppgimcaccdkmbedjkmhi/res/font_9qmmi8b8jsxxbt9.woff") format("woff"), url("chrome-extension://pogijhnlcfmcppgimcaccdkmbedjkmhi/res/font_9qmmi8b8jsxxbt9.ttf") format("truetype"); }
</style></defs><path d="M196.923077 356.430769v7.876923-7.876923zM827.076923 452.923077H315.076923v-92.553846c0-104.369231 78.769231-196.923077 183.138462-202.830769 96.492308-5.907692 177.230769 55.138462 202.830769 141.784615 1.969231 7.876923 9.846154 15.753846 19.692308 15.753846h80.738461c11.815385 0 21.661538-11.815385 19.692308-23.630769C789.661538 141.784615 655.753846 31.507692 496.246154 39.384615c-167.384615 7.876923-295.384615 151.630769-299.323077 317.046154V452.923077c-43.323077 0-78.769231 35.446154-78.769231 78.769231v374.153846c0 43.323077 35.446154 78.769231 78.769231 78.769231h630.153846c43.323077 0 78.769231-35.446154 78.769231-78.769231V531.692308c0-43.323077-35.446154-78.769231-78.769231-78.769231zM602.584615 840.861538c3.938462 11.815385-5.907692 25.6-19.692307 25.6h-143.753846c-13.784615 0-23.630769-11.815385-19.692308-25.6l35.446154-118.153846c-29.538462-19.692308-47.261538-55.138462-39.384616-94.523077 7.876923-37.415385 37.415385-66.953846 76.8-74.830769 63.015385-11.815385 118.153846 33.476923 118.153846 92.553846 0 31.507692-15.753846 61.046154-41.353846 76.8l33.476923 118.153846z" p-id="1608"></path></svg>