<svg viewBox="0 0 1024 1024" xmlns="http://www.w3.org/2000/svg" width="128" height="128"><path d="M511.934 89.6c52.61 0 102.145 20.095 139.135 56.575 36.8 36.16 57.09 84.29 56.96 135.425 0 105.855-88 192-196.095 192s-196.16-86.145-196.16-192c0-51.072 20.16-99.135 57.09-135.36C409.854 109.695 459.264 89.6 511.934 89.6M620.288 640.828c150.14 0 272.254 119.62 272.319 266.624l0 11.455c-40.065 20.61-189.825 20.61-272.319 20.61L403.584 939.517c-94.592 0-234.817 0-272.192-19.455l0-12.61c0-147.005 122.047-266.624 272.192-266.624L620.288 640.828M511.934 25.6c-143.742 0-260.222 114.56-260.159 255.999 0 141.312 116.417 255.999 260.159 255.999 143.745 0 260.094-114.687 260.094-255.999C772.158 140.16 655.678 25.6 511.934 25.6L511.934 25.6zM620.288 576.829 403.584 576.829c-185.665 0-336.192 148.035-336.192 330.624l0 21.375c0 74.625 150.527 74.69 336.192 74.69l216.894 0c185.6 0 336.189-2.75 336.189-74.69l0-21.375C956.543 724.863 806.078 576.829 620.288 576.829L620.288 576.829z"></path></svg>