<svg class="icon" viewBox="0 0 1024 1024" xmlns="http://www.w3.org/2000/svg" width="128" height="128"><path d="M591.5136 891.1872H477.1328c-16.9472 0-30.72-13.7728-30.72-30.72s13.7728-30.72 30.72-30.72h114.3808c16.9472 0 30.72 13.7728 30.72 30.72s-13.7216 30.72-30.72 30.72z"></path><path d="M767.8976 44.6464H300.8c-73.4208 0-133.12 59.6992-133.12 133.12v668.416c0 73.4208 59.6992 133.12 133.12 133.12h467.0976c73.4208 0 133.12-59.6992 133.12-133.12V177.7664c0-73.3696-59.6992-133.12-133.12-133.12z m-467.0976 61.44h467.0976c39.5264 0 71.68 32.1536 71.68 71.68v547.4304H229.12V177.7664c0-39.5264 32.1536-71.68 71.68-71.68z m467.0976 811.8272H300.8c-39.5264 0-71.68-32.1536-71.68-71.68v-59.5968h610.4576v59.5968c0 39.5264-32.1536 71.68-71.68 71.68z"></path></svg>