<svg class="icon" viewBox="0 0 1024 1024" version="1.1" xmlns="http://www.w3.org/2000/svg" width="128" height="128"><path d="M794.06 350.44c19.33 0 35-15.67 35-35v-87.68c0-85.23-69.53-154.57-155-154.57H350.6c-85.47 0-155 69.34-155 154.57v569.9c0 85.78 69.53 155.57 155 155.57h323.46c85.47 0 155-69.79 155-155.57V474.59c0-19.33-15.67-35-35-35s-35 15.67-35 35v323.07c0 47.18-38.13 85.57-85 85.57H350.6c-46.87 0-85-38.38-85-85.57v-569.9c0-46.63 38.13-84.57 85-84.57h323.46c46.87 0 85 37.94 85 84.57v87.68c0 19.33 15.67 35 35 35z"></path><path d="M422.22 751.5c-19.33 0-35 15.67-35 35s15.67 35 35 35h180.22c19.33 0 35-15.67 35-35s-15.67-35-35-35H422.22z"></path></svg>