<svg class="icon" viewBox="0 0 1024 1024" xmlns="http://www.w3.org/2000/svg" width="128" height="128"><path d="M851.76 182.12L526.09 70.25a40.701 40.701 0 0 0-26.32-0.01L174.11 182.12c-26.56 9.13-44.41 34.13-44.41 62.21v212.63c0 122.17 51.57 234.9 141.48 309.3L492.16 944.8l0.31 0.25c6.48 5.12 14.24 7.67 22.01 7.67 7.76 0 15.53-2.56 22.01-7.67l0.21-0.17 219.09-178.5 0.33-0.27c45.12-37.68 80.29-84.32 104.53-138.6 23.57-52.78 35.53-109.82 35.53-169.51V244.34c-0.01-28.09-17.85-53.09-44.42-62.22z m-26.41 275.87c0 100.35-41.72 192.77-114.47 253.63l-196.5 160.09-198.2-160.14c-73.5-60.9-115.65-153.68-115.65-254.61V247.94l312.39-107.32 312.43 107.32v210.05z"></path><path d="M419.38 297.1c0-19.56-15.85-35.41-35.41-35.41s-35.41 15.85-35.41 35.41v348.54c0 19.56 15.85 35.41 35.41 35.41s35.41-15.85 35.41-35.41V506.79H606.5v138.85c0 19.56 15.85 35.41 35.41 35.41 19.56 0 35.41-15.85 35.41-35.41V297.1c0-19.56-15.85-35.41-35.41-35.41-19.56 0-35.41 15.85-35.41 35.41v138.85H419.38V297.1z"></path></svg>