<?xml version="1.0" standalone="no"?><!DOCTYPE svg PUBLIC "-//W3C//DTD SVG 1.1//EN" "http://www.w3.org/Graphics/SVG/1.1/DTD/svg11.dtd"><svg t="1627546622723" class="icon" viewBox="0 0 1024 1024" version="1.1" xmlns="http://www.w3.org/2000/svg" p-id="3108" xmlns:xlink="http://www.w3.org/1999/xlink" width="128" height="128"><defs><style type="text/css">@font-face { font-family: feedback-iconfont; src: url("//at.alicdn.com/t/font_1031158_1uhr8ri0pk5.eot?#iefix") format("embedded-opentype"), url("//at.alicdn.com/t/font_1031158_1uhr8ri0pk5.woff2") format("woff2"), url("//at.alicdn.com/t/font_1031158_1uhr8ri0pk5.woff") format("woff"), url("//at.alicdn.com/t/font_1031158_1uhr8ri0pk5.ttf") format("truetype"), url("//at.alicdn.com/t/font_1031158_1uhr8ri0pk5.svg#iconfont") format("svg"); }
</style></defs><path d="M842.394595 799.733237 640.973076 799.733237 640.973076 914.825508l57.549005 0c15.903853 0 28.774503 12.869099 28.774503 28.773324 0 15.903202-12.870649 28.7723-28.774503 28.7723L353.22805 972.371132c-15.904877 0-28.774503-12.869099-28.774503-28.7723 0-15.904225 12.869626-28.773324 28.774503-28.773324l57.549005 0L410.777055 799.733237 180.581034 799.733237c-63.562199 0-115.098011-51.5337-115.098011-115.093295L65.483023 166.720116c0-63.559595 51.535812-115.093295 115.098011-115.093295l661.812537 0c63.561176 0 115.098011 51.5337 115.098011 115.093295l0 517.919826C957.491582 748.198513 905.95577 799.733237 842.394595 799.733237zM583.424071 914.825508 583.424071 799.733237 468.32606 799.733237 468.32606 914.825508 583.424071 914.825508zM899.942577 166.720116c0-31.779797-25.767906-57.546647-57.547982-57.546647L180.581034 109.173468c-31.781099 0-57.549005 25.76685-57.549005 57.546647l0 402.826532L899.942577 569.546647 899.942577 166.720116zM899.942577 627.093295 123.033052 627.093295l0 57.546647c0 31.779797 25.767906 57.545624 57.549005 57.545624l661.812537 0c31.781099 0 57.547982-25.76685 57.547982-57.545624L899.942577 627.093295z" p-id="3109"></path></svg>