<svg class="icon" viewBox="0 0 1024 1024" version="1.1" xmlns="http://www.w3.org/2000/svg" width="128" height="128"><path d="M772.77 98.41H253.66c-85.47 0-155 69.39-155 154.68V605.73c0 85.29 69.53 154.68 155 154.68h519.11c85.47 0 155-69.39 155-154.68V564.1c0-19.33-15.67-35-35-35s-35 15.67-35 35v41.46c0 46.63-38.13 84.57-85 84.57H253.66c-46.87 0-85-37.94-85-84.57v-352.3c0-46.63 38.13-84.57 85-84.57h519.11c46.87 0 85 37.94 85 84.57v135.68c0 19.33 15.67 35 35 35s35-15.67 35-35V253.09c0-85.29-69.53-154.68-155-154.68zM833.19 858.04h-640.5c-19.33 0-35 15.67-35 35s15.67 35 35 35h640.49c19.33 0 35-15.67 35-35s-15.66-35-34.99-35z"></path></svg>