<svg class="icon" viewBox="0 0 1024 1024" xmlns="http://www.w3.org/2000/svg" width="128" height="128"><path d="M256 426.666667v426.666666h512V426.666667H256z m42.666667-85.333334V256a213.333333 213.333333 0 1 1 426.666666 0v85.333333h42.666667a85.333333 85.333333 0 0 1 85.333333 85.333334v426.666666a85.333333 85.333333 0 0 1-85.333333 85.333334H256a85.333333 85.333333 0 0 1-85.333333-85.333334V426.666667a85.333333 85.333333 0 0 1 85.333333-85.333334h42.666667z m85.333333 0h256V256a128 128 0 0 0-256 0v85.333333z m128 384c-46.933333 0-85.333333-38.4-85.333333-85.333333s38.4-85.333333 85.333333-85.333333 85.333333 38.4 85.333333 85.333333-38.4 85.333333-85.333333 85.333333z"></path></svg>