<svg class="icon" viewBox="0 0 1024 1024" xmlns="http://www.w3.org/2000/svg" width="128" height="128"><path d="M851.2 671.54c19.33 0 35-15.67 35-35v-75.68c0-85.23-66.1-154.57-147.35-154.57h-13.81V280.28c0-57.08-22.23-110.75-62.59-151.11-40.36-40.36-94.03-62.59-151.11-62.59S400.58 88.8 360.22 129.17c-40.36 40.36-62.59 94.03-62.59 151.11V406.3h-13.81c-81.25 0-147.35 69.34-147.35 154.57v242.3c0 85.23 66.1 154.57 147.35 154.57h455.03c81.25 0 147.35-69.34 147.35-154.57V771.7c0-19.33-15.67-35-35-35s-35 15.67-35 35v31.47c0 46.63-34.7 84.57-77.35 84.57H283.82c-42.65 0-77.35-37.94-77.35-84.57v-242.3c0-46.63 34.7-84.57 77.35-84.57h455.03c42.65 0 77.35 37.94 77.35 84.57v75.68c0 19.32 15.67 34.99 35 34.99zM655.04 406.3H367.63V280.28c0-79.24 64.47-143.71 143.71-143.71 79.24 0 143.71 64.47 143.71 143.71V406.3z"></path><path d="M511.33 682.01m-60 0a60 60 0 1 0 120 0 60 60 0 1 0-120 0Z"></path></svg>