<?xml version="1.0" standalone="no"?><!DOCTYPE svg PUBLIC "-//W3C//DTD SVG 1.1//EN" "http://www.w3.org/Graphics/SVG/1.1/DTD/svg11.dtd"><svg t="1636335136905" class="icon" viewBox="0 0 1024 1024" version="1.1" xmlns="http://www.w3.org/2000/svg" p-id="3650" width="128" height="128" xmlns:xlink="http://www.w3.org/1999/xlink"><defs><style type="text/css"></style></defs><path d="M827.8 741.5H196.2c-51.9 0-94.2-42.3-94.2-94.2V252.6c0-51.9 42.3-94.2 94.2-94.2h631.6c51.9 0 94.2 42.3 94.2 94.2v394.7c0 51.9-42.3 94.2-94.2 94.2zM196.2 228.4c-13.3 0-24.2 10.9-24.2 24.2v394.7c0 13.3 10.9 24.2 24.2 24.2h631.6c13.3 0 24.2-10.9 24.2-24.2V252.6c0-13.3-10.9-24.2-24.2-24.2H196.2zM734.4 865.7H289.6c-19.3 0-35-15.7-35-35s15.7-35 35-35h444.8c19.3 0 35 15.7 35 35s-15.7 35-35 35z" p-id="3651"></path><path d="M282.3 561.5c-9 0-17.9-3.4-24.7-10.3-13.7-13.7-13.7-35.8 0-49.5l153.1-153.1c13.7-13.7 35.8-13.7 49.5 0L588.6 477 717 348.7c13.7-13.7 35.8-13.7 49.5 0 13.7 13.7 13.7 35.8 0 49.5l-153.2 153c-13.7 13.7-35.8 13.7-49.5 0L435.4 422.9 307 551.2c-6.8 6.9-15.7 10.3-24.7 10.3z" p-id="3652"></path><path d="M741.7 561.3c-19.3 0-35-15.7-35-35V408.6H589c-19.3 0-35-15.7-35-35s15.7-35 35-35h152.7c19.3 0 35 15.7 35 35v152.7c0 19.3-15.7 35-35 35z" p-id="3653"></path></svg>