<?xml version="1.0" standalone="no"?><!DOCTYPE svg PUBLIC "-//W3C//DTD SVG 1.1//EN" "http://www.w3.org/Graphics/SVG/1.1/DTD/svg11.dtd"><svg t="1631847474392" class="icon" viewBox="0 0 1146 1024" version="1.1" xmlns="http://www.w3.org/2000/svg" p-id="3922" xmlns:xlink="http://www.w3.org/1999/xlink" width="143.25" height="128"><defs><style type="text/css"></style></defs><path d="M1081.487719 0H64.673684C28.74386 0 0 28.74386 0 64.673684V754.526316c0 35.929825 28.74386 64.673684 64.673684 64.673684h423.97193V934.175439H283.845614c-25.150877 0-46.708772 21.557895-46.708772 46.708772v43.115789H898.245614v-43.115789c0-25.150877-21.557895-46.708772-46.708772-46.708772H646.736842v-114.975439h431.157895c35.929825 0 64.673684-28.74386 64.673684-64.673684V64.673684c3.592982-35.929825-25.150877-64.673684-61.080702-64.673684zM524.575439 736.561404c0-25.150877 21.557895-46.708772 46.708772-46.708772s46.708772 21.557895 46.708771 46.708772c0 25.150877-21.557895 46.708772-46.708771 46.708771s-46.708772-21.557895-46.708772-46.708771z m535.354386-86.231579H82.638596V93.417544h977.291229v556.912281z" p-id="3923"></path></svg>