<?xml version="1.0" standalone="no"?><!DOCTYPE svg PUBLIC "-//W3C//DTD SVG 1.1//EN" "http://www.w3.org/Graphics/SVG/1.1/DTD/svg11.dtd"><svg t="1631774002556" class="icon" viewBox="0 0 1024 1024" version="1.1" xmlns="http://www.w3.org/2000/svg" p-id="6333" xmlns:xlink="http://www.w3.org/1999/xlink" width="128" height="128"><defs><style type="text/css">@font-face { font-family: uc-nexus-iconfont; src: url("chrome-extension://pogijhnlcfmcppgimcaccdkmbedjkmhi/res/font_9qmmi8b8jsxxbt9.woff") format("woff"), url("chrome-extension://pogijhnlcfmcppgimcaccdkmbedjkmhi/res/font_9qmmi8b8jsxxbt9.ttf") format("truetype"); }
</style></defs><path d="M891.8 494.4c19.9 0 36-16.1 36-36V312c0-86-70-156-156-156H714v-20c0-19.9-16.1-36-36-36s-36 16.1-36 36v20H383.2v-20c0-19.9-16.1-36-36-36s-36 16.1-36 36v20h-57.1c-86 0-156 70-156 156v458.6c0 86 70 156 156 156h517.6c86 0 156-70 156-156V613.7c0-19.9-16.1-36-36-36s-36 16.1-36 36v156.9c0 46.3-37.7 84-84 84H254.2c-46.3 0-84-37.7-84-84V396h685.6v62.5c0 19.8 16.1 35.9 36 35.9zM170.2 324v-12c0-46.3 37.7-84 84-84h57.1v28c0 19.9 16.1 36 36 36s36-16.1 36-36v-28H642v28c0 19.9 16.1 36 36 36s36-16.1 36-36v-28h57.9c46.3 0 84 37.7 84 84v12H170.2z" p-id="6334"></path><path d="M638.2 486.7L473.7 648.2l-60.3-65.6c-12.7-13.8-34.2-14.7-48-2-13.8 12.7-14.7 34.2-2 48l75.7 82.3c8.4 9.1 20.3 14.6 32.7 14.9h1.2c12 0 23.7-4.8 32.2-13.2L686 535.1c13.4-13.2 13.6-34.7 0.4-48.1-13.2-13.3-34.8-13.5-48.2-0.3z" p-id="6335"></path></svg>