<?xml version="1.0" standalone="no"?><!DOCTYPE svg PUBLIC "-//W3C//DTD SVG 1.1//EN" "http://www.w3.org/Graphics/SVG/1.1/DTD/svg11.dtd"><svg t="1631773980725" class="icon" viewBox="0 0 1024 1024" version="1.1" xmlns="http://www.w3.org/2000/svg" p-id="5948" xmlns:xlink="http://www.w3.org/1999/xlink" width="128" height="128"><defs><style type="text/css">@font-face { font-family: uc-nexus-iconfont; src: url("chrome-extension://pogijhnlcfmcppgimcaccdkmbedjkmhi/res/font_9qmmi8b8jsxxbt9.woff") format("woff"), url("chrome-extension://pogijhnlcfmcppgimcaccdkmbedjkmhi/res/font_9qmmi8b8jsxxbt9.ttf") format("truetype"); }
</style></defs><path d="M892.2 577.7c-19.9 0-36 16.1-36 36v156.9c0 46.3-37.7 84-84 84H254.5c-46.3 0-84-37.7-84-84V396h685.6v62.4c0 19.9 16.1 36 36 36s36-16.1 36-36V312c0-86-70-156-156-156h-57.8v-20.1c0-19.9-16.1-36-36-36s-36 16.1-36 36V156H383.6v-20.1c0-19.9-16.1-36-36-36s-36 16.1-36 36V156h-57.1c-86 0-156 70-156 156v458.6c0 86 70 156 156 156h517.7c86 0 156-70 156-156V613.7c0-19.9-16.1-36-36-36zM254.5 228h57.1v28c0 19.9 16.1 36 36 36s36-16.1 36-36v-28h258.7v28c0 19.9 16.1 36 36 36s36-16.1 36-36v-28h57.8c46.3 0 84 37.7 84 84v12H170.5v-12c0-46.3 37.7-84 84-84z" p-id="5949"></path><path d="M417 760.2c6.7 8.7 16.7 13.2 26.9 13.2 7.3 0 14.6-2.3 20.8-7.1l159.8-123.8 0.8-0.6c10.5-8.6 16.3-21.3 16-34.7-0.3-13.5-6.7-26-17.7-34.2L464.2 454c-15.1-11.2-36.4-8.1-47.6 6.9-11.2 15.1-8.1 36.4 6.9 47.6l133.9 99.9-134.3 104.1c-14.9 11.5-17.6 32.9-6.1 47.7z" p-id="5950"></path></svg>