<?xml version="1.0" standalone="no"?><!DOCTYPE svg PUBLIC "-//W3C//DTD SVG 1.1//EN" "http://www.w3.org/Graphics/SVG/1.1/DTD/svg11.dtd"><svg t="1631774017706" class="icon" viewBox="0 0 1024 1024" version="1.1" xmlns="http://www.w3.org/2000/svg" p-id="6718" xmlns:xlink="http://www.w3.org/1999/xlink" width="128" height="128"><defs><style type="text/css">@font-face { font-family: uc-nexus-iconfont; src: url("chrome-extension://pogijhnlcfmcppgimcaccdkmbedjkmhi/res/font_9qmmi8b8jsxxbt9.woff") format("woff"), url("chrome-extension://pogijhnlcfmcppgimcaccdkmbedjkmhi/res/font_9qmmi8b8jsxxbt9.ttf") format("truetype"); }
</style></defs><path d="M916 736.6L584.3 182.2c-14.9-24.9-41.1-39.7-70.1-39.8h-0.1c-29 0-55.1 14.8-70 39.6L110.2 736.4c-15.4 25.6-15.9 56.4-1.2 82.4 14.7 26 41.3 41.6 71.2 41.6h665.6c29.9 0 56.5-15.5 71.2-41.5 14.7-26 14.3-56.7-1-82.3z m-61.6 46.8c-1.3 2.3-3.8 5-8.6 5H180.2c-4.7 0-7.2-2.7-8.5-5-1.3-2.3-2.3-5.8 0.1-9.8l333.9-554.4c2.3-3.9 5.8-4.7 8.4-4.7 2.5 0 6 0.8 8.4 4.7l331.7 554.4c2.4 4 1.4 7.6 0.2 9.8z" p-id="6719"></path><path d="M513 610.5c18.2 0 33-14.8 33-33V419c0-18.2-14.8-33-33-33s-33 14.8-33 33v158.5c0 18.2 14.8 33 33 33z" p-id="6720"></path><path d="M513 686.6m-47.7 0a47.7 47.7 0 1 0 95.4 0 47.7 47.7 0 1 0-95.4 0Z" p-id="6721"></path></svg>