<?xml version="1.0" standalone="no"?><!DOCTYPE svg PUBLIC "-//W3C//DTD SVG 1.1//EN" "http://www.w3.org/Graphics/SVG/1.1/DTD/svg11.dtd"><svg t="1631774012765" class="icon" viewBox="0 0 1024 1024" version="1.1" xmlns="http://www.w3.org/2000/svg" p-id="6590" xmlns:xlink="http://www.w3.org/1999/xlink" width="128" height="128"><defs><style type="text/css">@font-face { font-family: uc-nexus-iconfont; src: url("chrome-extension://pogijhnlcfmcppgimcaccdkmbedjkmhi/res/font_9qmmi8b8jsxxbt9.woff") format("woff"), url("chrome-extension://pogijhnlcfmcppgimcaccdkmbedjkmhi/res/font_9qmmi8b8jsxxbt9.ttf") format("truetype"); }
</style></defs><path d="M227.5 457.2h580.4c24.3 0 44-19.8 44-44.1s-19.7-44-44-44H303.2l149.5-146c17.3-17 17.7-44.8 0.7-62.2-17-17.3-44.8-17.7-62.2-0.7L187.5 359.1l-0.2 0.2c-16.6 16.4-21.6 40.9-12.7 62.5 8.9 21.5 29.6 35.4 52.9 35.4zM847.7 604.8c-8.9-21.5-29.6-35.4-52.9-35.4H214.4c-24.3 0-44 19.7-44 44s19.7 44 44 44h504.7l-149.6 146c-17.4 17-17.8 44.8-0.8 62.2 8.6 8.9 20.1 13.3 31.5 13.3 11.1 0 22.2-4.2 30.7-12.5l203.9-198.9 0.2-0.2c16.6-16.4 21.6-40.9 12.7-62.5z" p-id="6591"></path></svg>