<?xml version="1.0" standalone="no"?><!DOCTYPE svg PUBLIC "-//W3C//DTD SVG 1.1//EN" "http://www.w3.org/Graphics/SVG/1.1/DTD/svg11.dtd"><svg t="1631775542962" class="icon" viewBox="0 0 1024 1024" version="1.1" xmlns="http://www.w3.org/2000/svg" p-id="6976" xmlns:xlink="http://www.w3.org/1999/xlink" width="128" height="128"><defs><style type="text/css">@font-face { font-family: uc-nexus-iconfont; src: url("chrome-extension://pogijhnlcfmcppgimcaccdkmbedjkmhi/res/font_9qmmi8b8jsxxbt9.woff") format("woff"), url("chrome-extension://pogijhnlcfmcppgimcaccdkmbedjkmhi/res/font_9qmmi8b8jsxxbt9.ttf") format("truetype"); }
</style></defs><path d="M63.791373 129.957841l121.364115 0 0 120.917954-121.364115 0L63.791373 129.957841 63.791373 129.957841zM310.315046 129.957841l649.892557 0 0 120.917954L310.315046 250.875794 310.315046 129.957841 310.315046 129.957841zM63.791373 462.140429l121.364115 0 0 120.91386-121.364115 0L63.791373 462.140429 63.791373 462.140429zM310.315046 462.140429l649.892557 0 0 120.91386L310.315046 583.054289 310.315046 462.140429 310.315046 462.140429zM63.791373 773.350356l121.364115 0 0 120.691803-121.364115 0L63.791373 773.350356 63.791373 773.350356zM310.315046 773.350356l649.892557 0 0 120.691803L310.315046 894.042159 310.315046 773.350356 310.315046 773.350356zM310.315046 773.350356" p-id="6977"></path></svg>