<?xml version="1.0" standalone="no"?><!DOCTYPE svg PUBLIC "-//W3C//DTD SVG 1.1//EN" "http://www.w3.org/Graphics/SVG/1.1/DTD/svg11.dtd"><svg t="1631774007869" class="icon" viewBox="0 0 1024 1024" version="1.1" xmlns="http://www.w3.org/2000/svg" p-id="6462" xmlns:xlink="http://www.w3.org/1999/xlink" width="128" height="128"><defs><style type="text/css">@font-face { font-family: uc-nexus-iconfont; src: url("chrome-extension://pogijhnlcfmcppgimcaccdkmbedjkmhi/res/font_9qmmi8b8jsxxbt9.woff") format("woff"), url("chrome-extension://pogijhnlcfmcppgimcaccdkmbedjkmhi/res/font_9qmmi8b8jsxxbt9.ttf") format("truetype"); }
</style></defs><path d="M576.4 509.9l243.7-243.4c17.2-17.2 17.2-45 0-62.2-17.2-17.2-45-17.2-62.2 0L514.1 447.7 270.3 204.3c-17.2-17.2-45.1-17.2-62.2 0-17.2 17.2-17.2 45.1 0 62.2l243.7 243.4-243.7 243.4c-17.2 17.2-17.2 45 0 62.2 8.6 8.6 19.9 12.9 31.1 12.9 11.3 0 22.5-4.3 31.1-12.9L514.1 572l243.8 243.5c8.6 8.6 19.8 12.9 31.1 12.9s22.5-4.3 31.1-12.9c17.2-17.2 17.2-45.1 0-62.2L576.4 509.9z" p-id="6463"></path></svg>