<?xml version="1.0" standalone="no"?><!DOCTYPE svg PUBLIC "-//W3C//DTD SVG 1.1//EN" "http://www.w3.org/Graphics/SVG/1.1/DTD/svg11.dtd"><svg t="1636351620892" class="icon" viewBox="0 0 1024 1024" version="1.1" xmlns="http://www.w3.org/2000/svg" p-id="3813" xmlns:xlink="http://www.w3.org/1999/xlink" width="128" height="128"><defs><style type="text/css"></style></defs><path d="M884.053333 797.639111l-81.578666-131.527111V401.408c0-101.148444-83.228444-211.399111-203.662223-251.733333-5.688889-54.044444-45.226667-92.785778-96.142222-92.785778-50.915556 0-90.510222 39.537778-96.142222 92.785778-121.230222 40.334222-203.662222 149.845333-203.662222 251.733333v264.704l-84.821334 137.671111c-5.688889 9.102222-5.688889 20.48 0 29.582222 5.632 9.159111 16.156444 14.506667 27.477334 14.506667h202.808889c14.563556 66.161778 78.392889 115.598222 154.339555 115.598222 75.946667 0 139.776-50.232889 154.339556-115.598222h204.458666c17.749333 0 32.312889-12.970667 32.312889-29.696a27.989333 27.989333 0 0 0-9.671111-20.48zM502.670222 115.484444c11.320889 0 21.048889 8.362667 26.680889 19.797334-8.931556-0.739556-17.806222-3.015111-26.737778-3.015111-8.817778 0-17.749333 2.275556-26.624 3.015111 5.688889-11.377778 15.36-19.797333 26.680889-19.797334z m0 789.447112c-40.391111 0-74.353778-24.291556-87.267555-57.002667h175.331555c-13.710222 33.450667-47.672889 57.002667-88.064 57.002667z m-302.250666-115.598223l62.236444-100.352a30.037333 30.037333 0 0 0 4.039111-14.449777v-273.066667c0-98.872889 101.034667-209.92 235.975111-209.92s235.975111 111.047111 235.975111 209.92v272.270222c0 5.347556 1.592889 9.898667 3.982223 14.449778l62.236444 100.408889H200.419556v0.739555z" p-id="3814"></path></svg>