<?xml version="1.0" standalone="no"?><!DOCTYPE svg PUBLIC "-//W3C//DTD SVG 1.1//EN" "http://www.w3.org/Graphics/SVG/1.1/DTD/svg11.dtd"><svg t="1631845009440" class="icon" viewBox="0 0 1024 1024" version="1.1" xmlns="http://www.w3.org/2000/svg" p-id="3019" xmlns:xlink="http://www.w3.org/1999/xlink" width="128" height="128"><defs><style type="text/css"></style></defs><path d="M785.5 401.9c-49.2-49.2-114.6-76.2-184.1-76.2H295.9l89.6-82.1c15.7-14.4 16.7-38.7 2.4-54.4s-38.7-16.7-54.4-2.4L187.9 320.2c-9.8 8.9-15.6 21.7-16 34.9-0.4 13.3 4.7 26.4 14 35.9L332 541.2c7.5 7.8 17.6 11.6 27.6 11.6 9.7 0 19.4-3.6 26.9-10.9 15.2-14.8 15.6-39.2 0.7-54.4l-82.5-84.7h296.7c101.1 0 183.4 82.3 183.4 183.4s-82.3 183.4-183.4 183.4H264.3c-21.3 0-38.5 17.2-38.5 38.5s17.2 38.5 38.5 38.5h337.1c69.6 0 135-27.1 184.2-76.3 49.2-49.2 76.2-114.6 76.2-184.1 0-69.7-27.1-135.1-76.3-184.3z" p-id="3020"></path></svg>