<svg viewBox="0 0 1024 1024" version="1.1" xmlns="http://www.w3.org/2000/svg" width="128" height="128"><path d="M780.459 103.595c9.386 0 18.432 3.584 25.088 10.24l104.618 104.789c13.824 13.824 13.654 36.352-0.341 50.347l-522.07 522.24-268.629 113.664L232.96 636.416l522.24-522.24c6.656-6.827 15.701-10.581 25.259-10.581m0-59.734c-24.406 0-48.811 9.387-67.584 27.99l-524.8 524.8c-3.755 3.925-6.827 8.362-8.875 13.482L47.275 921.088c-6.827 15.872-3.243 34.304 8.874 46.421 8.022 8.192 18.774 12.63 29.867 12.63 5.632 0 11.264-1.195 16.725-3.414l311.126-131.754c4.949-2.048 9.557-5.12 13.482-8.875l524.8-524.8c37.206-37.205 37.376-97.621 0.342-134.827L847.7 71.68C829.1 53.077 804.693 43.861 780.46 43.861z"></path><path d="M632.832 171.179l-42.155 42.325L806.4 429.227l42.325-42.326L632.832 171.18z"></path></svg>