<?xml version="1.0" standalone="no"?><!DOCTYPE svg PUBLIC "-//W3C//DTD SVG 1.1//EN" "http://www.w3.org/Graphics/SVG/1.1/DTD/svg11.dtd"><svg t="1631845021770" class="icon" viewBox="0 0 1024 1024" version="1.1" xmlns="http://www.w3.org/2000/svg" p-id="3278" xmlns:xlink="http://www.w3.org/1999/xlink" width="128" height="128"><defs><style type="text/css"></style></defs><path d="M516.9 543.8c93.9 0 177.9-59.5 208.9-148.1 6.6-18.8-3.3-39.3-22-45.9-18.8-6.6-39.3 3.3-45.9 22-21 59.8-77.6 99.9-141 99.9-82.4 0-149.4-67-149.4-149.4s67-149.4 149.4-149.4c60.2 0 114.2 35.8 137.7 91.3 7.7 18.3 28.9 26.9 47.2 19.1 18.3-7.7 26.9-28.9 19.1-47.2-34.8-82-114.8-135.1-204-135.1-59.1 0-114.7 23-156.5 64.8s-64.8 97.4-64.8 156.5 23 114.7 64.8 156.5c41.8 41.9 97.4 65 156.5 65zM747.9 587.4h-462c-91.8 0-166.5 74.7-166.5 166.5v5.3c0 91.8 74.7 166.5 166.5 166.5H748c91.8 0 166.5-74.7 166.5-166.5v-5.3c-0.1-91.8-74.8-166.5-166.6-166.5z m94.5 171.8c0 52.1-42.4 94.5-94.5 94.5h-462c-52.1 0-94.5-42.4-94.5-94.5v-5.3c0-52.1 42.4-94.5 94.5-94.5h236.7l-47.8 114.3 52.4 58 52.4-58-47.8-114.3h216.3c52.1 0 94.5 42.4 94.5 94.5v5.3z" p-id="3279"></path></svg>