<svg viewBox="0 0 1024 1024" version="1.1" xmlns="http://www.w3.org/2000/svg" width="128" height="128"><path d="M298.406478 494.03419h255.923223c23.544937 0 42.687994 19.143057 42.687994 42.687993 0 23.544937-19.143057 42.687994-42.687994 42.687994h-255.923223c-23.544937 0-42.687994-19.143057-42.687994-42.687994 0-23.544937 19.143057-42.687994 42.687994-42.687993zM298.406478 294.414076h426.572828c23.544937 0 42.687994 19.143057 42.687994 42.687993s-19.143057 42.687994-42.687994 42.687994H298.406478c-23.544937-0.307108-42.380886-19.654904-42.073778-43.19984 0.307108-23.135459 18.938319-41.76667 42.073778-42.176147z"></path><path d="M512.051185 0C229.204839 0 0 200.643807 0 447.96801 2.763971 588.930521 74.524843 719.553734 191.942417 797.456763V1024l224.291113-136.151155c31.529741 5.323203 63.571329 8.087174 95.510547 8.189543 282.641608 0 512.051185-200.643807 512.051184-448.070378S794.795161 0 512.051185 0z m-0.204739 831.852844c-36.341098-0.204739-72.579826-4.094772-108.204339-11.56773l-150.687593 90.392083 2.047385-148.43547c-114.960712-63.468959-187.642907-183.036289-191.225832-314.273717 0-211.904429 200.643807-383.884835 448.070379-383.884835 247.324203 0 448.070379 171.980406 448.070379 383.884835s-200.643807 383.884835-448.070379 383.884834z"></path></svg>