<svg viewBox="0 0 1024 1024" version="1.1" xmlns="http://www.w3.org/2000/svg" width="128" height="128"><path d="M787.3 150.9H236c-75 0-136 61-136 136v348.2c0 75 61 136 136 136h103.2c19.9 0 36-16.1 36-36s-16.1-36-36-36H236c-35.3 0-64-28.7-64-64V286.9c0-35.3 28.7-64 64-64h551.3c35.3 0 64 28.7 64 64v348.2c0 35.3-28.7 64-64 64H549c-9.3 0-18.3 3.1-25.7 8.8L310.4 867c-15.9 11.9-19.2 34.5-7.3 50.4 7.1 9.5 17.9 14.5 28.9 14.5 7.5 0 15-2.3 21.5-7.2L559 771.1h228.3c75 0 136-61 136-136V286.9c0-75-61-136-136-136z"></path><path d="M279.186407 492.12211a51.1 51.1 0 1 0 99.464622-23.48678 51.1 51.1 0 1 0-99.464622 23.48678Z"></path><path d="M477.960938 516.534009a51.1 51.1 0 1 0 72.265052-72.267574 51.1 51.1 0 1 0-72.265052 72.267574Z"></path><path d="M663.159817 516.535302a51.1 51.1 0 1 0 72.265052-72.267574 51.1 51.1 0 1 0-72.265052 72.267574Z"></path></svg>